<svg width="36" height="36" viewBox="0 0 36 36" fill="none" xmlns="http://www.w3.org/2000/svg">
<path d="M32.1411 3.86745C31.3911 3.10095 30.2811 2.81745 29.2461 3.11745L5.11113 10.0909C4.01913 10.3939 3.24513 11.2594 3.03663 12.3574C2.82363 13.4764 3.56763 14.8984 4.53963 15.4924L12.0861 20.1004C12.8601 20.5744 13.8591 20.4559 14.4996 19.8139L23.1411 11.1724C23.5761 10.7209 24.2961 10.7209 24.7311 11.1724C25.1661 11.6059 25.1661 12.3124 24.7311 12.7624L16.0746 21.4039C15.4326 22.0459 15.3126 23.0419 15.7851 23.8174L20.3961 31.3924C20.9361 32.2909 21.8661 32.8024 22.8861 32.8024C23.0061 32.8024 23.1411 32.8024 23.2611 32.7859C24.4311 32.6374 25.3611 31.8409 25.7061 30.7159L32.8611 6.76245C33.1761 5.74245 32.8911 4.63245 32.1411 3.86745Z" fill="#FB9F2D"/>
<path opacity="0.4" fill-rule="evenodd" clip-rule="evenodd" d="M4.51574 25.2116C4.22774 25.2116 3.93974 25.1021 3.72074 24.8816C3.28124 24.4421 3.28124 23.7311 3.72074 23.2916L5.76824 21.2426C6.20774 20.8046 6.92024 20.8046 7.35974 21.2426C7.79774 21.6821 7.79774 22.3946 7.35974 22.8341L5.31074 24.8816C5.09174 25.1021 4.80374 25.2116 4.51574 25.2116ZM10.1575 27.0002C9.86954 27.0002 9.58154 26.8907 9.36254 26.6702C8.92304 26.2307 8.92304 25.5197 9.36254 25.0802L11.41 23.0312C11.8495 22.5932 12.562 22.5932 13.0015 23.0312C13.4395 23.4707 13.4395 24.1832 13.0015 24.6227L10.9525 26.6702C10.7335 26.8907 10.4455 27.0002 10.1575 27.0002ZM10.5381 32.3522C10.7571 32.5727 11.0451 32.6822 11.3331 32.6822C11.6211 32.6822 11.9091 32.5727 12.1281 32.3522L14.1771 30.3047C14.6151 29.8652 14.6151 29.1527 14.1771 28.7132C13.7376 28.2752 13.0251 28.2752 12.5856 28.7132L10.5381 30.7622C10.0986 31.2017 10.0986 31.9127 10.5381 32.3522Z" fill="#FB9F2D"/>
</svg>
