<svg width="40" height="40" viewBox="0 0 40 40" fill="none" xmlns="http://www.w3.org/2000/svg">
<path opacity="0.4" d="M16.6499 29.9668C24.0045 29.9668 29.9666 24.0048 29.9666 16.6502C29.9666 9.29557 24.0045 3.3335 16.6499 3.3335C9.29533 3.3335 3.33325 9.29557 3.33325 16.6502C3.33325 24.0048 9.29533 29.9668 16.6499 29.9668Z" fill="#FDC82B"/>
<path d="M36.6166 26.6501C36.6166 32.1501 32.1499 36.6168 26.6499 36.6168C23.2499 36.6168 20.2666 34.9168 18.4666 32.3335C25.7332 31.5168 31.5166 25.7335 32.3332 18.4668C34.9165 20.2668 36.6166 23.2501 36.6166 26.6501Z" fill="#FDC82B"/>
<path d="M19.0833 16.1831L15.0833 14.7831C14.6833 14.6498 14.5999 14.6164 14.5999 14.0331C14.5999 13.5998 14.8999 13.2498 15.2833 13.2498H17.7833C18.3166 13.2498 18.7499 13.7331 18.7499 14.3331C18.7499 15.0164 19.3166 15.5831 19.9999 15.5831C20.6833 15.5831 21.2499 15.0164 21.2499 14.3331C21.2499 12.4164 19.7666 10.8498 17.9166 10.7664V10.6831C17.9166 9.99977 17.3499 9.43311 16.6666 9.43311C15.9833 9.43311 15.4166 9.98311 15.4166 10.6831V10.7664H15.2666C13.5166 10.7664 12.0833 12.2331 12.0833 14.0498C12.0833 15.6331 12.7833 16.6498 14.2333 17.1498L18.2499 18.5498C18.6499 18.6831 18.7333 18.7164 18.7333 19.2998C18.7333 19.7331 18.4333 20.0831 18.0499 20.0831H15.5499C15.0166 20.0831 14.5833 19.5998 14.5833 18.9998C14.5833 18.3164 14.0166 17.7498 13.3333 17.7498C12.6499 17.7498 12.0833 18.3164 12.0833 18.9998C12.0833 20.9164 13.5666 22.4831 15.4166 22.5664V22.6664C15.4166 23.3498 15.9833 23.9164 16.6666 23.9164C17.3499 23.9164 17.9166 23.3498 17.9166 22.6664V22.5831H18.0666C19.8166 22.5831 21.2499 21.1164 21.2499 19.2998C21.2499 17.7164 20.5333 16.6998 19.0833 16.1831Z" fill="#FDC82B"/>
</svg>
