<svg width="41" height="41" viewBox="0 0 41 41" fill="none" xmlns="http://www.w3.org/2000/svg">
<path opacity="0.4" d="M34.1667 12.0265V28.9732C34.1667 31.5698 33.9275 33.4148 33.3125 34.7303C33.3125 34.7473 33.2954 34.7815 33.2783 34.7986C32.9025 35.2769 32.4071 35.5161 31.8263 35.5161C30.9208 35.5161 29.8275 34.9182 28.6488 33.654C27.248 32.1507 25.0954 32.2703 23.8654 33.9103L22.14 36.1994C21.4567 37.1219 20.5513 37.5832 19.6458 37.5832C18.7404 37.5832 17.835 37.1219 17.1516 36.1994L15.4092 33.8932C14.1963 32.2703 12.0608 32.1507 10.66 33.6369L10.6429 33.654C8.71247 35.7211 7.0042 36.0286 6.01337 34.7986C5.99628 34.7815 5.97917 34.7473 5.97917 34.7303C5.36417 33.4148 5.125 31.5698 5.125 28.9732V12.0265C5.125 9.42984 5.36417 7.58484 5.97917 6.26942C5.97917 6.25234 5.9792 6.23525 6.01337 6.21817C6.98712 4.97109 8.71247 5.27859 10.6429 7.34567L10.66 7.36275C12.0608 8.849 14.1963 8.72942 15.4092 7.1065L17.1516 4.80025C17.835 3.87775 18.7404 3.4165 19.6458 3.4165C20.5513 3.4165 21.4567 3.87775 22.14 4.80025L23.8654 7.08942C25.0954 8.72942 27.248 8.849 28.6488 7.34567C29.8275 6.0815 30.9208 5.48359 31.8263 5.48359C32.4071 5.48359 32.9025 5.73984 33.2783 6.21817C33.3125 6.23525 33.3125 6.25234 33.3125 6.26942C33.9275 7.58484 34.1667 9.42984 34.1667 12.0265Z" fill="#FF8990"/>
<path d="M27.3334 18.7915H13.6667C12.9663 18.7915 12.3855 18.2107 12.3855 17.5103C12.3855 16.8098 12.9663 16.229 13.6667 16.229H27.3334C28.0338 16.229 28.6147 16.8098 28.6147 17.5103C28.6147 18.2107 28.0338 18.7915 27.3334 18.7915Z" fill="#FF8990"/>
<path d="M23.9167 24.771H13.6667C12.9663 24.771 12.3855 24.1902 12.3855 23.4897C12.3855 22.7893 12.9663 22.2085 13.6667 22.2085H23.9167C24.6172 22.2085 25.198 22.7893 25.198 23.4897C25.198 24.1902 24.6172 24.771 23.9167 24.771Z" fill="#FF8990"/>
</svg>
