<svg width="1920" height="351" viewBox="0 0 1920 351" fill="none" xmlns="http://www.w3.org/2000/svg">
<mask id="mask0_497_4577" style="mask-type:alpha" maskUnits="userSpaceOnUse" x="0" y="0" width="1920" height="180">
<rect width="1920" height="179.199" fill="#0393FB"/>
</mask>
<g mask="url(#mask0_497_4577)">
<path d="M960.444 189.19L925.909 182.286C907.057 178.504 876.345 178.504 857.492 182.286C838.64 186.067 807.013 186.13 787.802 182.286C768.59 178.442 738.237 178.504 719.189 182.286C700.141 186.067 668.742 186.13 649.531 182.286C630.319 178.442 599.966 178.504 581.081 182.286C562.197 186.067 530.602 186.13 511.391 182.286C492.179 178.442 461.826 178.504 442.974 182.286C424.122 186.067 392.495 186.13 373.283 182.286C354.072 178.442 323.719 178.504 304.671 182.286C285.622 186.067 254.191 186.13 234.98 182.286C215.768 178.442 185.415 178.504 166.367 182.286C147.319 186.067 115.888 186.13 96.6761 182.286C77.4645 178.442 47.1116 178.504 28.2594 182.286C9.4073 186.067 -22.2524 186.13 -41.464 182.286L-75.999 175.366L-75.3782 174.645L-40.8432 181.548C-21.9584 185.33 8.75401 185.33 27.6061 181.548C46.4583 177.767 78.0853 177.704 97.3295 181.548C116.574 185.393 146.894 185.33 165.746 181.548C184.598 177.767 216.226 177.704 235.437 181.548C254.649 185.393 285.034 185.33 304.05 181.548C323.065 177.767 354.529 177.704 373.741 181.548C392.952 185.393 423.305 185.33 442.157 181.548C461.009 177.767 492.636 177.704 511.848 181.548C531.06 185.393 561.412 185.33 580.297 181.548C599.182 177.767 630.777 177.704 649.988 181.548C669.2 185.393 699.553 185.33 718.405 181.548C737.257 177.767 768.884 177.704 788.095 181.548C807.307 185.393 837.66 185.33 856.708 181.548C875.756 177.767 907.155 177.704 926.366 181.548L961.065 188.437L960.444 189.19Z" fill="white" fill-opacity="0.07"/>
<path d="M960.444 176.01L925.909 169.106C907.057 165.325 876.345 165.325 857.492 169.106C838.64 172.888 807.013 172.95 787.802 169.106C768.59 165.262 738.237 165.325 719.189 169.106C700.141 172.888 668.742 172.95 649.531 169.106C630.319 165.262 599.966 165.325 581.081 169.106C562.197 172.888 530.602 172.95 511.391 169.106C492.179 165.262 461.826 165.325 442.974 169.106C424.122 172.888 392.495 172.95 373.283 169.106C354.072 165.262 323.719 165.325 304.671 169.106C285.622 172.888 254.191 172.95 234.98 169.106C215.768 165.262 185.415 165.325 166.367 169.106C147.319 172.888 115.888 172.95 96.6761 169.106C77.4645 165.262 47.1116 165.325 28.2594 169.106C9.4073 172.888 -22.2524 172.95 -41.464 169.106L-75.999 162.187L-75.3782 161.465L-40.8432 168.384C-21.9584 172.15 8.75401 172.15 27.6061 168.384C46.4583 164.619 78.0853 164.54 97.3295 168.384C116.574 172.229 146.894 172.15 165.746 168.384C184.598 164.619 216.226 164.54 235.437 168.384C254.649 172.229 285.034 172.15 304.05 168.384C323.065 164.619 354.529 164.524 373.741 168.384C392.952 172.244 423.305 172.15 442.157 168.384C461.009 164.619 492.636 164.524 511.848 168.384C531.06 172.244 561.412 172.15 580.297 168.384C599.182 164.619 630.777 164.524 649.988 168.384C669.2 172.244 699.553 172.15 718.405 168.384C737.257 164.619 768.884 164.524 788.095 168.384C807.307 172.244 837.66 172.15 856.708 168.384C875.756 164.619 907.155 164.524 926.366 168.384L960.901 175.288L960.444 176.01Z" fill="white" fill-opacity="0.07"/>
<path d="M960.444 162.828L925.909 155.925C907.057 152.143 876.345 152.143 857.492 155.925C838.64 159.706 807.013 159.769 787.802 155.925C768.59 152.08 738.237 152.143 719.189 155.925C700.141 159.706 668.742 159.769 649.531 155.925C630.319 152.08 599.966 152.143 581.081 155.925C562.197 159.706 530.602 159.769 511.391 155.925C492.179 152.08 461.826 152.143 442.974 155.925C424.122 159.706 392.495 159.769 373.283 155.925C354.072 152.08 323.719 152.143 304.671 155.925C285.622 159.706 254.191 159.769 234.98 155.925C215.768 152.08 185.415 152.143 166.367 155.925C147.319 159.706 115.888 159.769 96.6761 155.925C77.4645 152.08 47.1116 152.143 28.2594 155.925C9.4073 159.706 -22.2524 159.769 -41.464 155.925L-75.999 149.005L-75.3782 148.283L-40.8432 155.203C-21.9584 158.969 8.75401 158.969 27.6061 155.203C46.4583 151.437 78.0853 151.359 97.3295 155.203C116.574 159.047 146.894 158.969 165.746 155.203C184.598 151.437 216.226 151.359 235.437 155.203C254.649 159.047 285.034 158.969 304.05 155.203C323.065 151.437 354.529 151.359 373.741 155.203C392.952 159.047 423.305 158.969 442.157 155.203C461.009 151.437 492.636 151.359 511.848 155.203C531.06 159.047 561.412 158.969 580.297 155.203C599.182 151.437 630.777 151.359 649.988 155.203C669.2 159.047 699.553 158.969 718.405 155.203C737.257 151.437 768.884 151.359 788.095 155.203C807.307 159.047 837.66 158.969 856.708 155.203C875.756 151.437 907.155 151.359 926.366 155.203L960.901 162.107L960.444 162.828Z" fill="white" fill-opacity="0.07"/>
<path d="M960.444 149.651L925.909 142.747C907.057 138.965 876.345 138.965 857.492 142.747C838.64 146.528 807.013 146.591 787.802 142.747C768.59 138.903 738.237 138.965 719.189 142.747C700.141 146.528 668.742 146.591 649.531 142.747C630.319 138.903 599.966 138.965 581.081 142.747C562.197 146.528 530.602 146.591 511.391 142.747C492.179 138.903 461.826 138.965 442.974 142.747C424.122 146.528 392.495 146.591 373.283 142.747C354.072 138.903 323.719 138.965 304.671 142.747C285.622 146.528 254.191 146.591 234.98 142.747C215.768 138.903 185.415 138.965 166.367 142.747C147.319 146.528 115.92 146.591 96.6761 142.747C77.4318 138.903 47.1116 138.965 28.2594 142.747C9.4073 146.528 -22.2524 146.591 -41.464 142.747L-75.999 135.843L-75.3782 135.105L-40.8432 142.025C-21.9584 145.791 8.75401 145.791 27.6061 142.025C46.4583 138.259 78.0853 138.181 97.3295 142.025C116.574 145.869 146.894 145.791 165.746 142.025C184.598 138.259 216.226 138.181 235.437 142.025C254.649 145.869 285.034 145.791 304.05 142.025C323.065 138.259 354.529 138.181 373.741 142.025C392.952 145.869 423.305 145.791 442.157 142.025C461.009 138.259 492.636 138.181 511.848 142.025C531.06 145.869 561.412 145.791 580.297 142.025C599.182 138.259 630.777 138.181 649.988 142.025C669.2 145.869 699.553 145.791 718.405 142.025C737.257 138.259 768.884 138.181 788.095 142.025C807.307 145.869 837.66 145.791 856.708 142.025C875.756 138.259 907.155 138.181 926.366 142.025L960.901 148.929L960.444 149.651Z" fill="white" fill-opacity="0.07"/>
<path d="M960.444 136.467L925.909 129.563C907.057 125.782 876.345 125.782 857.492 129.563C838.64 133.345 807.013 133.407 787.801 129.563C768.59 125.719 738.237 125.782 719.189 129.563C700.141 133.345 668.742 133.407 649.531 129.563C630.319 125.719 599.966 125.782 581.081 129.563C562.197 133.345 530.602 133.407 511.39 129.563C492.179 125.719 461.826 125.782 442.974 129.563C424.122 133.345 392.495 133.407 373.283 129.563C354.072 125.719 323.719 125.782 304.67 129.563C285.622 133.345 254.191 133.407 234.98 129.563C215.768 125.719 185.415 125.782 166.367 129.563C147.319 133.345 115.92 133.407 96.676 129.563C77.4318 125.719 47.1116 125.782 28.2594 129.563C9.4073 133.345 -22.2524 133.407 -41.464 129.563L-75.999 122.659L-75.3782 121.922L-40.3532 128.81C-21.4684 132.576 9.24397 132.576 28.0961 128.81C46.9482 125.044 78.5755 124.966 97.8197 128.81C117.064 132.654 147.384 132.576 166.236 128.81C185.088 125.044 216.715 124.966 235.927 128.81C255.139 132.654 285.524 132.576 304.54 128.81C323.555 125.044 355.019 124.966 374.231 128.81C393.442 132.654 423.795 132.592 442.647 128.81C461.499 125.029 493.127 124.966 512.338 128.81C531.55 132.654 561.903 132.576 580.787 128.81C599.672 125.044 631.267 124.966 650.478 128.81C669.69 132.654 700.043 132.576 718.895 128.81C737.747 125.044 769.374 124.966 788.586 128.81C807.797 132.654 838.15 132.576 857.198 128.81C876.246 125.044 907.645 124.966 926.856 128.81L961.391 135.714L960.444 136.467Z" fill="white" fill-opacity="0.07"/>
<path d="M960.444 123.289L925.909 116.386C907.057 112.604 876.345 112.604 857.492 116.386C838.64 120.167 807.013 120.23 787.802 116.386C768.59 112.541 738.237 112.604 719.189 116.386C700.141 120.167 668.742 120.23 649.531 116.386C630.319 112.541 599.966 112.604 581.081 116.386C562.197 120.167 530.602 120.23 511.391 116.386C492.179 112.541 461.826 112.604 442.974 116.386C424.122 120.167 392.495 120.23 373.283 116.386C354.072 112.541 323.719 112.604 304.671 116.386C285.622 120.167 254.191 120.23 234.98 116.386C215.768 112.541 185.415 112.604 166.367 116.386C147.319 120.167 115.92 120.23 96.6761 116.386C77.4318 112.541 47.1116 112.604 28.2594 116.386C9.4073 120.167 -22.2524 120.23 -41.464 116.386L-75.999 109.482L-75.3782 108.76L-40.8432 115.664C-21.9584 119.445 8.75401 119.445 27.6061 115.664C46.4583 111.882 78.0853 111.819 97.3295 115.664C116.574 119.508 146.894 119.445 165.746 115.664C184.598 111.882 216.226 111.819 235.437 115.664C254.649 119.508 285.034 119.445 304.05 115.664C323.065 111.882 354.529 111.819 373.741 115.664C392.952 119.508 423.305 119.445 442.157 115.664C461.009 111.882 492.636 111.819 511.848 115.664C531.06 119.508 561.412 119.445 580.297 115.664C599.182 111.882 630.777 111.819 649.988 115.664C669.2 119.508 699.553 119.445 718.405 115.664C737.257 111.882 768.884 111.819 788.095 115.664C807.307 119.508 837.66 119.445 856.708 115.664C875.756 111.882 907.155 111.819 926.366 115.664L960.901 122.568L960.444 123.289Z" fill="white" fill-opacity="0.07"/>
<path d="M960.444 110.125L925.909 103.206C907.057 99.44 876.345 99.44 857.492 103.206C838.64 106.971 807.013 107.05 787.802 103.206C768.59 99.3615 738.237 99.44 719.189 103.206C700.141 106.971 668.742 107.05 649.531 103.206C630.319 99.3615 599.966 99.44 581.081 103.206C562.197 106.971 530.602 107.05 511.391 103.206C492.179 99.3615 461.826 99.44 442.974 103.206C424.122 106.971 392.495 107.05 373.283 103.206C354.072 99.3615 323.719 99.44 304.671 103.206C285.622 106.971 254.191 107.05 234.98 103.206C215.768 99.3615 185.415 99.44 166.367 103.206C147.319 106.971 115.92 107.05 96.6761 103.206C77.4318 99.3615 47.1116 99.44 28.2594 103.206C9.4073 106.971 -22.2524 107.05 -41.464 103.206L-75.999 96.3019L-75.3782 95.5801L-40.8432 102.484C-21.9584 106.265 8.75401 106.265 27.6061 102.484C46.4583 98.7025 78.0853 98.6397 97.3295 102.484C116.574 106.328 146.894 106.265 165.746 102.484C184.598 98.7025 216.226 98.6397 235.437 102.484C254.649 106.328 285.034 106.265 304.05 102.484C323.065 98.7025 354.529 98.6397 373.741 102.484C392.952 106.328 423.305 106.265 442.157 102.484C461.009 98.7025 492.636 98.6397 511.848 102.484C531.06 106.328 561.412 106.265 580.297 102.484C599.182 98.7025 630.777 98.6397 649.988 102.484C669.2 106.328 699.553 106.265 718.405 102.484C737.257 98.7025 768.884 98.6397 788.095 102.484C807.307 106.328 837.66 106.265 856.708 102.484C875.756 98.7025 907.155 98.6397 926.366 102.484L960.901 109.388L960.444 110.125Z" fill="white" fill-opacity="0.07"/>
<path d="M960.444 96.9437L925.909 90.0242C907.057 86.2584 876.345 86.2584 857.492 90.0242C838.64 93.7899 807.013 93.8684 787.802 90.0242C768.59 86.18 738.237 86.2584 719.189 90.0242C700.141 93.7899 668.742 93.8684 649.531 90.0242C630.319 86.18 599.966 86.2584 581.081 90.0242C562.197 93.7899 530.602 93.8684 511.391 90.0242C492.179 86.18 461.826 86.2584 442.974 90.0242C424.122 93.7899 392.495 93.8684 373.283 90.0242C354.072 86.18 323.719 86.2584 304.671 90.0242C285.622 93.7899 254.191 93.8684 234.98 90.0242C215.768 86.18 185.415 86.2584 166.367 90.0242C147.319 93.7899 115.92 93.8684 96.6761 90.0242C77.4318 86.18 47.1116 86.2584 28.2594 90.0242C9.4073 93.7899 -22.2524 93.8684 -41.464 90.0242L-75.999 83.1202L-75.3782 82.3984L-40.8432 89.3024C-21.9584 93.0838 8.75401 93.0838 27.6061 89.3024C46.4583 85.5209 78.0853 85.4582 97.3295 89.3024C116.574 93.1466 146.894 93.0838 165.746 89.3024C184.598 85.5209 216.226 85.4582 235.437 89.3024C254.649 93.1466 285.034 93.0838 304.05 89.3024C323.065 85.5209 354.529 85.4582 373.741 89.3024C392.952 93.1466 423.305 93.0838 442.157 89.3024C461.009 85.5209 492.636 85.4582 511.848 89.3024C531.06 93.1466 561.412 93.0838 580.297 89.3024C599.182 85.5209 630.777 85.4582 649.988 89.3024C669.2 93.1466 699.553 93.0838 718.405 89.3024C737.257 85.5209 768.884 85.4582 788.095 89.3024C807.307 93.1466 837.66 93.0838 856.708 89.3024C875.756 85.5209 907.155 85.4582 926.366 89.3024L960.901 96.2062L960.444 96.9437Z" fill="white" fill-opacity="0.07"/>
<path d="M960.444 83.762L925.909 76.8424C907.057 73.0767 876.345 73.0767 857.492 76.8424C838.64 80.6082 807.013 80.6867 787.802 76.8424C768.59 72.9982 738.237 73.0767 719.189 76.8424C700.141 80.6082 668.742 80.6867 649.531 76.8424C630.319 72.9982 599.966 73.0767 581.081 76.8424C562.197 80.6082 530.602 80.6867 511.391 76.8424C492.179 72.9982 461.826 73.0767 442.974 76.8424C424.122 80.6082 392.495 80.6867 373.283 76.8424C354.072 72.9982 323.719 73.0767 304.671 76.8424C285.622 80.6082 254.191 80.6867 234.98 76.8424C215.768 72.9982 185.415 73.0767 166.367 76.8424C147.319 80.6082 115.888 80.6867 96.6761 76.8424C77.4645 72.9982 47.1116 73.0767 28.2594 76.8424C9.4073 80.6082 -22.2524 80.6867 -41.464 76.8424L-75.999 69.9385L-75.3782 69.2168L-40.8432 76.1206C-21.9584 79.9021 8.75401 79.9021 27.6061 76.1206C46.4583 72.3392 78.0853 72.2764 97.3295 76.1206C116.574 79.9649 146.894 79.9021 165.746 76.1206C184.598 72.3392 216.226 72.2764 235.437 76.1206C254.649 79.9649 285.034 79.9021 304.05 76.1206C323.065 72.3392 354.529 72.2764 373.741 76.1206C392.952 79.9649 423.305 79.9021 442.157 76.1206C461.009 72.3392 492.636 72.2764 511.848 76.1206C531.06 79.9649 561.412 79.9021 580.297 76.1206C599.182 72.3392 630.777 72.2764 649.988 76.1206C669.2 79.9649 699.553 79.9021 718.405 76.1206C737.257 72.3392 768.884 72.2764 788.095 76.1206C807.307 79.9649 837.66 79.9021 856.708 76.1206C875.756 72.3392 907.155 72.2764 926.366 76.1206L960.901 83.0403L960.444 83.762Z" fill="white" fill-opacity="0.07"/>
<path d="M960.444 70.5844L925.909 63.6804C907.057 59.899 876.345 59.899 857.492 63.6804C838.64 67.4619 807.013 67.5246 787.802 63.6804C768.59 59.8362 738.237 59.899 719.189 63.6804C700.141 67.4619 668.742 67.5246 649.531 63.6804C630.319 59.8362 599.966 59.899 581.081 63.6804C562.197 67.4619 530.602 67.5246 511.391 63.6804C492.179 59.8362 461.826 59.899 442.974 63.6804C424.122 67.4619 392.495 67.5246 373.283 63.6804C354.072 59.8362 323.719 59.899 304.671 63.6804C285.622 67.4619 254.191 67.5246 234.98 63.6804C215.768 59.8362 185.415 59.899 166.367 63.6804C147.319 67.4619 115.888 67.5246 96.6761 63.6804C77.4645 59.8362 47.1116 59.899 28.2594 63.6804C9.4073 67.4619 -22.2524 67.5246 -41.464 63.6804L-75.999 56.7609L-75.3782 56.0391L-40.8432 62.943C-21.9584 66.7245 8.75401 66.7245 27.6061 62.943C46.4583 59.1615 78.0853 59.0988 97.3295 62.943C116.574 66.7872 146.894 66.7245 165.746 62.943C184.598 59.1615 216.226 59.0988 235.437 62.943C254.649 66.7872 285.034 66.7245 304.05 62.943C323.065 59.1615 354.529 59.0988 373.741 62.943C392.952 66.7872 423.305 66.7245 442.157 62.943C461.009 59.1615 492.636 59.0988 511.848 62.943C531.06 66.7872 561.412 66.7245 580.297 62.943C599.182 59.1615 630.777 59.0988 649.988 62.943C669.2 66.7872 699.553 66.7245 718.405 62.943C737.257 59.1615 768.884 59.0988 788.095 62.943C807.307 66.7872 837.66 66.7245 856.708 62.943C875.756 59.1615 907.155 59.0988 926.366 62.943L960.901 69.8625L960.444 70.5844Z" fill="white" fill-opacity="0.07"/>
<path d="M960.444 57.4008L925.909 50.4969C907.057 46.7155 876.345 46.7155 857.492 50.4969C838.64 54.2784 807.013 54.3411 787.802 50.4969C768.59 46.6527 738.237 46.7155 719.189 50.4969C700.141 54.2784 668.742 54.3411 649.531 50.4969C630.319 46.6527 599.966 46.7155 581.081 50.4969C562.197 54.2784 530.602 54.3411 511.391 50.4969C492.179 46.6527 461.826 46.7155 442.974 50.4969C424.122 54.2784 392.495 54.3411 373.283 50.4969C354.072 46.6527 323.719 46.7155 304.671 50.4969C285.622 54.2784 254.191 54.3411 234.98 50.4969C215.768 46.6527 185.415 46.7155 166.367 50.4969C147.319 54.2784 115.888 54.3411 96.6761 50.4969C77.4645 46.6527 47.1116 46.7155 28.2594 50.4969C9.4073 54.2784 -22.2524 54.3411 -41.464 50.4969L-75.999 43.5773L-75.3782 42.8555L-40.8432 49.7594C-21.9584 53.5409 8.75401 53.5409 27.6061 49.7594C46.4583 45.978 78.0853 45.9152 97.3295 49.7594C116.574 53.6036 146.894 53.5409 165.746 49.7594C184.598 45.978 216.226 45.9152 235.437 49.7594C254.649 53.6036 285.034 53.5409 304.05 49.7594C323.065 45.978 354.529 45.9152 373.741 49.7594C392.952 53.6036 423.305 53.5409 442.157 49.7594C461.009 45.978 492.636 45.9152 511.848 49.7594C531.06 53.6036 561.412 53.5409 580.297 49.7594C599.182 45.978 630.777 45.9152 649.988 49.7594C669.2 53.6036 699.553 53.5409 718.405 49.7594C737.257 45.978 768.884 45.9152 788.095 49.7594C807.307 53.6036 837.66 53.5409 856.708 49.7594C875.756 45.978 907.155 45.9152 926.366 49.7594L961.065 56.6319L960.444 57.4008Z" fill="white" fill-opacity="0.07"/>
<path d="M960.444 44.223L925.909 37.3191C907.057 33.5376 876.345 33.5376 857.492 37.3191C838.64 41.1005 807.013 41.1633 787.802 37.3191C768.59 33.4749 738.237 33.5376 719.189 37.3191C700.141 41.1005 668.742 41.1633 649.531 37.3191C630.319 33.4749 599.966 33.5376 581.081 37.3191C562.197 41.1005 530.602 41.1633 511.391 37.3191C492.179 33.4749 461.826 33.5376 442.974 37.3191C424.122 41.1005 392.495 41.1633 373.283 37.3191C354.072 33.4749 323.719 33.5376 304.671 37.3191C285.622 41.1005 254.191 41.1633 234.98 37.3191C215.768 33.4749 185.415 33.5376 166.367 37.3191C147.319 41.1005 115.888 41.1633 96.6761 37.3191C77.4645 33.4749 47.1116 33.5376 28.2594 37.3191C9.4073 41.1005 -22.2524 41.1633 -41.464 37.3191L-75.999 30.3995L-75.3782 29.6777L-40.8432 36.5973C-21.9584 40.363 8.75401 40.363 27.6061 36.5973C46.4583 32.8315 78.0853 32.7531 97.3295 36.5973C116.574 40.4415 146.894 40.363 165.746 36.5973C184.598 32.8315 216.226 32.7531 235.437 36.5973C254.649 40.4415 285.034 40.363 304.05 36.5973C323.065 32.8315 354.529 32.7531 373.741 36.5973C392.952 40.4415 423.305 40.363 442.157 36.5973C461.009 32.8315 492.636 32.7531 511.848 36.5973C531.06 40.4415 561.412 40.363 580.297 36.5973C599.182 32.8315 630.777 32.7531 649.988 36.5973C669.2 40.4415 699.553 40.363 718.405 36.5973C737.257 32.8315 768.884 32.7531 788.095 36.5973C807.307 40.4415 837.66 40.363 856.708 36.5973C875.756 32.8315 907.155 32.7531 926.366 36.5973L960.901 43.5012L960.444 44.223Z" fill="white" fill-opacity="0.07"/>
<path d="M960.444 31.0414L925.909 24.1374C907.057 20.356 876.345 20.356 857.492 24.1374C838.64 27.9189 807.013 27.9817 787.802 24.1374C768.59 20.2932 738.237 20.356 719.189 24.1374C700.141 27.9189 668.742 27.9817 649.531 24.1374C630.319 20.2932 599.966 20.356 581.081 24.1374C562.197 27.9189 530.602 27.9817 511.391 24.1374C492.179 20.2932 461.826 20.356 442.974 24.1374C424.122 27.9189 392.495 27.9817 373.283 24.1374C354.072 20.2932 323.719 20.356 304.671 24.1374C285.622 27.9189 254.191 27.9817 234.98 24.1374C215.768 20.2932 185.415 20.356 166.367 24.1374C147.319 27.9189 115.888 27.9817 96.6761 24.1374C77.4645 20.2932 47.1116 20.356 28.2594 24.1374C9.4073 27.9189 -22.2524 27.9817 -41.464 24.1374L-75.999 17.2179L-75.3782 16.4961L-40.8432 23.4157C-21.9584 27.1815 8.75401 27.1815 27.6061 23.4157C46.4583 19.65 78.0853 19.5715 97.3295 23.4157C116.574 27.26 146.894 27.1815 165.746 23.4157C184.598 19.65 216.226 19.5715 235.437 23.4157C254.649 27.26 285.034 27.1815 304.05 23.4157C323.065 19.65 354.529 19.5715 373.741 23.4157C392.952 27.26 423.305 27.1815 442.157 23.4157C461.009 19.65 492.636 19.5715 511.848 23.4157C531.06 27.26 561.412 27.1815 580.297 23.4157C599.182 19.65 630.777 19.5715 649.988 23.4157C669.2 27.26 699.553 27.1815 718.405 23.4157C737.257 19.65 768.884 19.5715 788.095 23.4157C807.307 27.26 837.66 27.1815 856.708 23.4157C875.756 19.65 907.155 19.5715 926.366 23.4157L960.901 30.3196L960.444 31.0414Z" fill="white" fill-opacity="0.07"/>
<path d="M960.444 17.8616L925.909 10.9578C907.057 7.17631 876.345 7.17631 857.492 10.9578C838.64 14.7392 807.013 14.802 787.802 10.9578C768.59 7.11354 738.237 7.17631 719.189 10.9578C700.141 14.7392 668.742 14.802 649.531 10.9578C630.319 7.11354 599.966 7.17631 581.081 10.9578C562.197 14.7392 530.602 14.802 511.391 10.9578C492.179 7.11354 461.826 7.17631 442.974 10.9578C424.122 14.7392 392.495 14.802 373.283 10.9578C354.072 7.11354 323.719 7.17631 304.671 10.9578C285.622 14.7392 254.191 14.802 234.98 10.9578C215.768 7.11354 185.415 7.17631 166.367 10.9578C147.319 14.7392 115.888 14.802 96.6761 10.9578C77.4645 7.11354 47.1116 7.17631 28.2594 10.9578C9.4073 14.7392 -22.2524 14.802 -41.464 10.9578L-75.999 4.05382L-75.3782 3.31641L-40.8432 10.236C-21.9584 14.0017 8.75401 14.0017 27.6061 10.236C46.4583 6.47019 78.0853 6.39174 97.3295 10.236C116.574 14.0802 146.894 14.0017 165.746 10.236C184.598 6.47019 216.226 6.39174 235.437 10.236C254.649 14.0802 285.034 14.0017 304.05 10.236C323.065 6.47019 354.529 6.39174 373.741 10.236C392.952 14.0802 423.305 14.0017 442.157 10.236C461.009 6.47019 492.636 6.39174 511.848 10.236C531.06 14.0802 561.412 14.0017 580.297 10.236C599.182 6.47019 630.777 6.39174 649.988 10.236C669.2 14.0802 699.553 14.0017 718.405 10.236C737.257 6.47019 768.884 6.39174 788.095 10.236C807.307 14.0802 837.66 14.0017 856.708 10.236C875.756 6.47019 907.155 6.39174 926.366 10.236L960.901 17.1399L960.444 17.8616Z" fill="white" fill-opacity="0.07"/>
<path d="M960.444 4.68006L925.909 -2.22388C907.057 -6.00534 876.345 -6.00534 857.492 -2.22388C838.64 1.55757 807.013 1.62034 787.801 -2.22388C768.59 -6.0681 738.237 -6.00534 719.189 -2.22388C700.141 1.55757 668.742 1.62034 649.531 -2.22388C630.319 -6.0681 599.966 -6.00534 581.081 -2.22388C562.197 1.55757 530.602 1.62034 511.39 -2.22388C492.179 -6.0681 461.826 -6.00534 442.974 -2.22388C424.122 1.55757 392.495 1.62034 373.283 -2.22388C354.072 -6.0681 323.719 -6.00534 304.67 -2.22388C285.622 1.55757 254.191 1.62034 234.98 -2.22388C215.768 -6.0681 185.415 -6.00534 166.367 -2.22388C147.319 1.55757 115.92 1.62034 96.676 -2.22388C77.4318 -6.0681 47.1116 -6.00534 28.2594 -2.22388C9.4073 1.55757 -22.2524 1.62034 -41.464 -2.22388L-75.999 -9.12772L-75.3782 -9.86523L-40.3532 -2.99271C-21.4684 0.788745 9.24397 0.788745 28.0961 -2.99271C46.9482 -6.77416 78.5755 -6.83693 97.8197 -2.99271C117.064 0.851507 147.384 0.788745 166.236 -2.99271C185.088 -6.77416 216.715 -6.83693 235.927 -2.99271C255.139 0.851507 285.524 0.773054 304.54 -2.99271C323.555 -6.75847 355.019 -6.83693 374.231 -2.99271C393.442 0.851507 423.795 0.788745 442.647 -2.99271C461.499 -6.77416 493.127 -6.83693 512.338 -2.99271C531.55 0.851507 561.903 0.773054 580.787 -2.99271C599.672 -6.75847 631.267 -6.83693 650.478 -2.99271C669.69 0.851507 700.043 0.788745 718.895 -2.99271C737.747 -6.77416 769.374 -6.83693 788.586 -2.99271C807.797 0.851507 838.15 0.788745 857.198 -2.99271C876.246 -6.77416 907.645 -6.83693 926.856 -2.99271L961.391 3.91123L960.444 4.68006Z" fill="white" fill-opacity="0.07"/>
<path d="M1996.05 189.614L1961.52 182.71C1942.66 178.928 1911.95 178.928 1893.1 182.71C1874.25 186.491 1842.62 186.554 1823.41 182.71C1804.2 178.865 1773.84 178.928 1754.8 182.71C1735.75 186.491 1704.35 186.554 1685.14 182.71C1665.93 178.865 1635.57 178.928 1616.69 182.71C1597.8 186.491 1566.21 186.554 1547 182.71C1527.79 178.865 1497.43 178.928 1478.58 182.71C1459.73 186.491 1428.1 186.554 1408.89 182.71C1389.68 178.865 1359.33 178.928 1340.28 182.71C1321.23 186.491 1289.8 186.554 1270.59 182.71C1251.38 178.865 1221.02 178.928 1201.97 182.71C1182.93 186.491 1151.5 186.554 1132.28 182.71C1113.07 178.865 1082.72 178.928 1063.87 182.71C1045.01 186.491 1013.35 186.554 994.143 182.71L959.608 175.79L960.229 175.068L994.764 181.972C1013.65 185.754 1044.36 185.754 1063.21 181.972C1082.07 178.191 1113.69 178.128 1132.94 181.972C1152.18 185.816 1182.5 185.754 1201.35 181.972C1220.21 178.191 1251.83 178.128 1271.04 181.972C1290.26 185.816 1320.64 185.754 1339.66 181.972C1358.67 178.191 1390.14 178.128 1409.35 181.972C1428.56 185.816 1458.91 185.754 1477.76 181.972C1496.62 178.191 1528.24 178.128 1547.46 181.972C1566.67 185.816 1597.02 185.754 1615.9 181.972C1634.79 178.191 1666.38 178.128 1685.6 181.972C1704.81 185.816 1735.16 185.754 1754.01 181.972C1772.86 178.191 1804.49 178.128 1823.7 181.972C1842.91 185.816 1873.27 185.754 1892.32 181.972C1911.36 178.191 1942.76 178.128 1961.97 181.972L1996.67 188.86L1996.05 189.614Z" fill="white" fill-opacity="0.07"/>
<path d="M1996.05 176.434L1961.52 169.53C1942.66 165.749 1911.95 165.749 1893.1 169.53C1874.25 173.311 1842.62 173.374 1823.41 169.53C1804.2 165.686 1773.84 165.749 1754.8 169.53C1735.75 173.311 1704.35 173.374 1685.14 169.53C1665.93 165.686 1635.57 165.749 1616.69 169.53C1597.8 173.311 1566.21 173.374 1547 169.53C1527.79 165.686 1497.43 165.749 1478.58 169.53C1459.73 173.311 1428.1 173.374 1408.89 169.53C1389.68 165.686 1359.33 165.749 1340.28 169.53C1321.23 173.311 1289.8 173.374 1270.59 169.53C1251.38 165.686 1221.02 165.749 1201.97 169.53C1182.93 173.311 1151.5 173.374 1132.28 169.53C1113.07 165.686 1082.72 165.749 1063.87 169.53C1045.01 173.311 1013.35 173.374 994.143 169.53L959.608 162.61L960.229 161.889L994.764 168.808C1013.65 172.574 1044.36 172.574 1063.21 168.808C1082.07 165.042 1113.69 164.964 1132.94 168.808C1152.18 172.652 1182.5 172.574 1201.35 168.808C1220.21 165.042 1251.83 164.964 1271.04 168.808C1290.26 172.652 1320.64 172.574 1339.66 168.808C1358.67 165.042 1390.14 164.948 1409.35 168.808C1428.56 172.668 1458.91 172.574 1477.76 168.808C1496.62 165.042 1528.24 164.948 1547.46 168.808C1566.67 172.668 1597.02 172.574 1615.9 168.808C1634.79 165.042 1666.38 164.948 1685.6 168.808C1704.81 172.668 1735.16 172.574 1754.01 168.808C1772.86 165.042 1804.49 164.948 1823.7 168.808C1842.91 172.668 1873.27 172.574 1892.32 168.808C1911.36 165.042 1942.76 164.948 1961.97 168.808L1996.51 175.712L1996.05 176.434Z" fill="white" fill-opacity="0.07"/>
<path d="M1996.05 163.254L1961.52 156.35C1942.66 152.569 1911.95 152.569 1893.1 156.35C1874.25 160.132 1842.62 160.195 1823.41 156.35C1804.2 152.506 1773.84 152.569 1754.8 156.35C1735.75 160.132 1704.35 160.195 1685.14 156.35C1665.93 152.506 1635.57 152.569 1616.69 156.35C1597.8 160.132 1566.21 160.195 1547 156.35C1527.79 152.506 1497.43 152.569 1478.58 156.35C1459.73 160.132 1428.1 160.195 1408.89 156.35C1389.68 152.506 1359.33 152.569 1340.28 156.35C1321.23 160.132 1289.8 160.195 1270.59 156.35C1251.38 152.506 1221.02 152.569 1201.97 156.35C1182.93 160.132 1151.5 160.195 1132.28 156.35C1113.07 152.506 1082.72 152.569 1063.87 156.35C1045.01 160.132 1013.35 160.195 994.143 156.35L959.608 149.431L960.229 148.709L994.764 155.629C1013.65 159.394 1044.36 159.394 1063.21 155.629C1082.07 151.863 1113.69 151.784 1132.94 155.629C1152.18 159.473 1182.5 159.394 1201.35 155.629C1220.21 151.863 1251.83 151.784 1271.04 155.629C1290.26 159.473 1320.64 159.394 1339.66 155.629C1358.67 151.863 1390.14 151.784 1409.35 155.629C1428.56 159.473 1458.91 159.394 1477.76 155.629C1496.62 151.863 1528.24 151.784 1547.46 155.629C1566.67 159.473 1597.02 159.394 1615.9 155.629C1634.79 151.863 1666.38 151.784 1685.6 155.629C1704.81 159.473 1735.16 159.394 1754.01 155.629C1772.86 151.863 1804.49 151.784 1823.7 155.629C1842.91 159.473 1873.27 159.394 1892.32 155.629C1911.36 151.863 1942.76 151.784 1961.97 155.629L1996.51 162.532L1996.05 163.254Z" fill="white" fill-opacity="0.07"/>
<path d="M1996.05 150.073L1961.52 143.169C1942.66 139.387 1911.95 139.387 1893.1 143.169C1874.25 146.95 1842.62 147.013 1823.41 143.169C1804.2 139.324 1773.84 139.387 1754.8 143.169C1735.75 146.95 1704.35 147.013 1685.14 143.169C1665.93 139.324 1635.57 139.387 1616.69 143.169C1597.8 146.95 1566.21 147.013 1547 143.169C1527.79 139.324 1497.43 139.387 1478.58 143.169C1459.73 146.95 1428.1 147.013 1408.89 143.169C1389.68 139.324 1359.33 139.387 1340.28 143.169C1321.23 146.95 1289.8 147.013 1270.59 143.169C1251.38 139.324 1221.02 139.387 1201.97 143.169C1182.93 146.95 1151.53 147.013 1132.28 143.169C1113.04 139.324 1082.72 139.387 1063.87 143.169C1045.01 146.95 1013.35 147.013 994.143 143.169L959.608 136.265L960.229 135.527L994.764 142.447C1013.65 146.213 1044.36 146.213 1063.21 142.447C1082.07 138.681 1113.69 138.603 1132.94 142.447C1152.18 146.291 1182.5 146.213 1201.35 142.447C1220.21 138.681 1251.83 138.603 1271.04 142.447C1290.26 146.291 1320.64 146.213 1339.66 142.447C1358.67 138.681 1390.14 138.603 1409.35 142.447C1428.56 146.291 1458.91 146.213 1477.76 142.447C1496.62 138.681 1528.24 138.603 1547.46 142.447C1566.67 146.291 1597.02 146.213 1615.9 142.447C1634.79 138.681 1666.38 138.603 1685.6 142.447C1704.81 146.291 1735.16 146.213 1754.01 142.447C1772.86 138.681 1804.49 138.603 1823.7 142.447C1842.91 146.291 1873.27 146.213 1892.32 142.447C1911.36 138.681 1942.76 138.603 1961.97 142.447L1996.51 149.351L1996.05 150.073Z" fill="white" fill-opacity="0.07"/>
<path d="M1996.05 136.895L1961.52 129.991C1942.66 126.21 1911.95 126.21 1893.1 129.991C1874.25 133.772 1842.62 133.835 1823.41 129.991C1804.2 126.147 1773.84 126.21 1754.8 129.991C1735.75 133.772 1704.35 133.835 1685.14 129.991C1665.93 126.147 1635.57 126.21 1616.69 129.991C1597.8 133.772 1566.21 133.835 1547 129.991C1527.79 126.147 1497.43 126.21 1478.58 129.991C1459.73 133.772 1428.1 133.835 1408.89 129.991C1389.68 126.147 1359.33 126.21 1340.28 129.991C1321.23 133.772 1289.8 133.835 1270.59 129.991C1251.38 126.147 1221.02 126.21 1201.97 129.991C1182.93 133.772 1151.53 133.835 1132.28 129.991C1113.04 126.147 1082.72 126.21 1063.87 129.991C1045.01 133.772 1013.35 133.835 994.143 129.991L959.608 123.087L960.229 122.35L995.254 129.238C1014.14 133.004 1044.85 133.004 1063.7 129.238C1082.56 125.472 1114.18 125.394 1133.43 129.238C1152.67 133.082 1182.99 133.004 1201.84 129.238C1220.7 125.472 1252.32 125.394 1271.53 129.238C1290.75 133.082 1321.13 133.004 1340.15 129.238C1359.16 125.472 1390.63 125.394 1409.84 129.238C1429.05 133.082 1459.4 133.019 1478.25 129.238C1497.11 125.456 1528.73 125.394 1547.95 129.238C1567.16 133.082 1597.51 133.004 1616.39 129.238C1635.28 125.472 1666.87 125.394 1686.09 129.238C1705.3 133.082 1735.65 133.004 1754.5 129.238C1773.35 125.472 1804.98 125.394 1824.19 129.238C1843.4 133.082 1873.76 133.004 1892.81 129.238C1911.85 125.472 1943.25 125.394 1962.46 129.238L1997 136.142L1996.05 136.895Z" fill="white" fill-opacity="0.07"/>
<path d="M1996.05 123.713L1961.52 116.809C1942.66 113.028 1911.95 113.028 1893.1 116.809C1874.25 120.591 1842.62 120.654 1823.41 116.809C1804.2 112.965 1773.84 113.028 1754.8 116.809C1735.75 120.591 1704.35 120.654 1685.14 116.809C1665.93 112.965 1635.57 113.028 1616.69 116.809C1597.8 120.591 1566.21 120.654 1547 116.809C1527.79 112.965 1497.43 113.028 1478.58 116.809C1459.73 120.591 1428.1 120.654 1408.89 116.809C1389.68 112.965 1359.33 113.028 1340.28 116.809C1321.23 120.591 1289.8 120.654 1270.59 116.809C1251.38 112.965 1221.02 113.028 1201.97 116.809C1182.93 120.591 1151.53 120.654 1132.28 116.809C1113.04 112.965 1082.72 113.028 1063.87 116.809C1045.01 120.591 1013.35 120.654 994.143 116.809L959.608 109.905L960.229 109.184L994.764 116.088C1013.65 119.869 1044.36 119.869 1063.21 116.088C1082.07 112.306 1113.69 112.243 1132.94 116.088C1152.18 119.932 1182.5 119.869 1201.35 116.088C1220.21 112.306 1251.83 112.243 1271.04 116.088C1290.26 119.932 1320.64 119.869 1339.66 116.088C1358.67 112.306 1390.14 112.243 1409.35 116.088C1428.56 119.932 1458.91 119.869 1477.76 116.088C1496.62 112.306 1528.24 112.243 1547.46 116.088C1566.67 119.932 1597.02 119.869 1615.9 116.088C1634.79 112.306 1666.38 112.243 1685.6 116.088C1704.81 119.932 1735.16 119.869 1754.01 116.088C1772.86 112.306 1804.49 112.243 1823.7 116.088C1842.91 119.932 1873.27 119.869 1892.32 116.088C1911.36 112.306 1942.76 112.243 1961.97 116.088L1996.51 122.991L1996.05 123.713Z" fill="white" fill-opacity="0.07"/>
<path d="M1996.05 110.549L1961.52 103.63C1942.66 99.8638 1911.95 99.8638 1893.1 103.63C1874.25 107.395 1842.62 107.474 1823.41 103.63C1804.2 99.7853 1773.84 99.8638 1754.8 103.63C1735.75 107.395 1704.35 107.474 1685.14 103.63C1665.93 99.7853 1635.57 99.8638 1616.69 103.63C1597.8 107.395 1566.21 107.474 1547 103.63C1527.79 99.7853 1497.43 99.8638 1478.58 103.63C1459.73 107.395 1428.1 107.474 1408.89 103.63C1389.68 99.7853 1359.33 99.8638 1340.28 103.63C1321.23 107.395 1289.8 107.474 1270.59 103.63C1251.38 99.7853 1221.02 99.8638 1201.97 103.63C1182.93 107.395 1151.53 107.474 1132.28 103.63C1113.04 99.7853 1082.72 99.8638 1063.87 103.63C1045.01 107.395 1013.35 107.474 994.143 103.63L959.608 96.7257L960.229 96.0039L994.764 102.908C1013.65 106.689 1044.36 106.689 1063.21 102.908C1082.07 99.1263 1113.69 99.0635 1132.94 102.908C1152.18 106.752 1182.5 106.689 1201.35 102.908C1220.21 99.1263 1251.83 99.0635 1271.04 102.908C1290.26 106.752 1320.64 106.689 1339.66 102.908C1358.67 99.1263 1390.14 99.0635 1409.35 102.908C1428.56 106.752 1458.91 106.689 1477.76 102.908C1496.62 99.1263 1528.24 99.0635 1547.46 102.908C1566.67 106.752 1597.02 106.689 1615.9 102.908C1634.79 99.1263 1666.38 99.0635 1685.6 102.908C1704.81 106.752 1735.16 106.689 1754.01 102.908C1772.86 99.1263 1804.49 99.0635 1823.7 102.908C1842.91 106.752 1873.27 106.689 1892.32 102.908C1911.36 99.1263 1942.76 99.0635 1961.97 102.908L1996.51 109.812L1996.05 110.549Z" fill="white" fill-opacity="0.07"/>
<path d="M1996.05 97.3695L1961.52 90.45C1942.66 86.6842 1911.95 86.6842 1893.1 90.45C1874.25 94.2157 1842.62 94.2942 1823.41 90.45C1804.2 86.6057 1773.84 86.6842 1754.8 90.45C1735.75 94.2157 1704.35 94.2942 1685.14 90.45C1665.93 86.6057 1635.57 86.6842 1616.69 90.45C1597.8 94.2157 1566.21 94.2942 1547 90.45C1527.79 86.6057 1497.43 86.6842 1478.58 90.45C1459.73 94.2157 1428.1 94.2942 1408.89 90.45C1389.68 86.6057 1359.33 86.6842 1340.28 90.45C1321.23 94.2157 1289.8 94.2942 1270.59 90.45C1251.38 86.6057 1221.02 86.6842 1201.97 90.45C1182.93 94.2157 1151.53 94.2942 1132.28 90.45C1113.04 86.6057 1082.72 86.6842 1063.87 90.45C1045.01 94.2157 1013.35 94.2942 994.143 90.45L959.608 83.546L960.229 82.8242L994.764 89.7282C1013.65 93.5096 1044.36 93.5096 1063.21 89.7282C1082.07 85.9467 1113.69 85.8839 1132.94 89.7282C1152.18 93.5724 1182.5 93.5096 1201.35 89.7282C1220.21 85.9467 1251.83 85.8839 1271.04 89.7282C1290.26 93.5724 1320.64 93.5096 1339.66 89.7282C1358.67 85.9467 1390.14 85.8839 1409.35 89.7282C1428.56 93.5724 1458.91 93.5096 1477.76 89.7282C1496.62 85.9467 1528.24 85.8839 1547.46 89.7282C1566.67 93.5724 1597.02 93.5096 1615.9 89.7282C1634.79 85.9467 1666.38 85.8839 1685.6 89.7282C1704.81 93.5724 1735.16 93.5096 1754.01 89.7282C1772.86 85.9467 1804.49 85.8839 1823.7 89.7282C1842.91 93.5724 1873.27 93.5096 1892.32 89.7282C1911.36 85.9467 1942.76 85.8839 1961.97 89.7282L1996.51 96.632L1996.05 97.3695Z" fill="white" fill-opacity="0.07"/>
<path d="M1996.05 84.1878L1961.52 77.2682C1942.66 73.5025 1911.95 73.5025 1893.1 77.2682C1874.25 81.034 1842.62 81.1124 1823.41 77.2682C1804.2 73.424 1773.84 73.5025 1754.8 77.2682C1735.75 81.034 1704.35 81.1124 1685.14 77.2682C1665.93 73.424 1635.57 73.5025 1616.69 77.2682C1597.8 81.034 1566.21 81.1124 1547 77.2682C1527.79 73.424 1497.43 73.5025 1478.58 77.2682C1459.73 81.034 1428.1 81.1124 1408.89 77.2682C1389.68 73.424 1359.33 73.5025 1340.28 77.2682C1321.23 81.034 1289.8 81.1124 1270.59 77.2682C1251.38 73.424 1221.02 73.5025 1201.97 77.2682C1182.93 81.034 1151.5 81.1124 1132.28 77.2682C1113.07 73.424 1082.72 73.5025 1063.87 77.2682C1045.01 81.034 1013.35 81.1124 994.143 77.2682L959.608 70.3643L960.229 69.6426L994.764 76.5464C1013.65 80.3279 1044.36 80.3279 1063.21 76.5464C1082.07 72.765 1113.69 72.7022 1132.94 76.5464C1152.18 80.3906 1182.5 80.3279 1201.35 76.5464C1220.21 72.765 1251.83 72.7022 1271.04 76.5464C1290.26 80.3906 1320.64 80.3279 1339.66 76.5464C1358.67 72.765 1390.14 72.7022 1409.35 76.5464C1428.56 80.3906 1458.91 80.3279 1477.76 76.5464C1496.62 72.765 1528.24 72.7022 1547.46 76.5464C1566.67 80.3906 1597.02 80.3279 1615.9 76.5464C1634.79 72.765 1666.38 72.7022 1685.6 76.5464C1704.81 80.3906 1735.16 80.3279 1754.01 76.5464C1772.86 72.765 1804.49 72.7022 1823.7 76.5464C1842.91 80.3906 1873.27 80.3279 1892.32 76.5464C1911.36 72.765 1942.76 72.7022 1961.97 76.5464L1996.51 83.4661L1996.05 84.1878Z" fill="white" fill-opacity="0.07"/>
<path d="M1996.05 71.0082L1961.52 64.1042C1942.66 60.3228 1911.95 60.3228 1893.1 64.1042C1874.25 67.8857 1842.62 67.9485 1823.41 64.1042C1804.2 60.26 1773.84 60.3228 1754.8 64.1042C1735.75 67.8857 1704.35 67.9485 1685.14 64.1042C1665.93 60.26 1635.57 60.3228 1616.69 64.1042C1597.8 67.8857 1566.21 67.9485 1547 64.1042C1527.79 60.26 1497.43 60.3228 1478.58 64.1042C1459.73 67.8857 1428.1 67.9485 1408.89 64.1042C1389.68 60.26 1359.33 60.3228 1340.28 64.1042C1321.23 67.8857 1289.8 67.9485 1270.59 64.1042C1251.38 60.26 1221.02 60.3228 1201.97 64.1042C1182.93 67.8857 1151.5 67.9485 1132.28 64.1042C1113.07 60.26 1082.72 60.3228 1063.87 64.1042C1045.01 67.8857 1013.35 67.9485 994.143 64.1042L959.608 57.1847L960.229 56.4629L994.764 63.3668C1013.65 67.1483 1044.36 67.1483 1063.21 63.3668C1082.07 59.5854 1113.69 59.5226 1132.94 63.3668C1152.18 67.211 1182.5 67.1483 1201.35 63.3668C1220.21 59.5854 1251.83 59.5226 1271.04 63.3668C1290.26 67.211 1320.64 67.1483 1339.66 63.3668C1358.67 59.5854 1390.14 59.5226 1409.35 63.3668C1428.56 67.211 1458.91 67.1483 1477.76 63.3668C1496.62 59.5854 1528.24 59.5226 1547.46 63.3668C1566.67 67.211 1597.02 67.1483 1615.9 63.3668C1634.79 59.5854 1666.38 59.5226 1685.6 63.3668C1704.81 67.211 1735.16 67.1483 1754.01 63.3668C1772.86 59.5854 1804.49 59.5226 1823.7 63.3668C1842.91 67.211 1873.27 67.1483 1892.32 63.3668C1911.36 59.5854 1942.76 59.5226 1961.97 63.3668L1996.51 70.2864L1996.05 71.0082Z" fill="white" fill-opacity="0.07"/>
<path d="M1996.05 57.8285L1961.52 50.9247C1942.66 47.1432 1911.95 47.1432 1893.1 50.9247C1874.25 54.7061 1842.62 54.7689 1823.41 50.9247C1804.2 47.0804 1773.84 47.1432 1754.8 50.9247C1735.75 54.7061 1704.35 54.7689 1685.14 50.9247C1665.93 47.0804 1635.57 47.1432 1616.69 50.9247C1597.8 54.7061 1566.21 54.7689 1547 50.9247C1527.79 47.0804 1497.43 47.1432 1478.58 50.9247C1459.73 54.7061 1428.1 54.7689 1408.89 50.9247C1389.68 47.0804 1359.33 47.1432 1340.28 50.9247C1321.23 54.7061 1289.8 54.7689 1270.59 50.9247C1251.38 47.0804 1221.02 47.1432 1201.97 50.9247C1182.93 54.7061 1151.5 54.7689 1132.28 50.9247C1113.07 47.0804 1082.72 47.1432 1063.87 50.9247C1045.01 54.7061 1013.35 54.7689 994.143 50.9247L959.608 44.005L960.229 43.2832L994.764 50.1871C1013.65 53.9686 1044.36 53.9686 1063.21 50.1871C1082.07 46.4057 1113.69 46.3429 1132.94 50.1871C1152.18 54.0314 1182.5 53.9686 1201.35 50.1871C1220.21 46.4057 1251.83 46.3429 1271.04 50.1871C1290.26 54.0314 1320.64 53.9686 1339.66 50.1871C1358.67 46.4057 1390.14 46.3429 1409.35 50.1871C1428.56 54.0314 1458.91 53.9686 1477.76 50.1871C1496.62 46.4057 1528.24 46.3429 1547.46 50.1871C1566.67 54.0314 1597.02 53.9686 1615.9 50.1871C1634.79 46.4057 1666.38 46.3429 1685.6 50.1871C1704.81 54.0314 1735.16 53.9686 1754.01 50.1871C1772.86 46.4057 1804.49 46.3429 1823.7 50.1871C1842.91 54.0314 1873.27 53.9686 1892.32 50.1871C1911.36 46.4057 1942.76 46.3429 1961.97 50.1871L1996.67 57.0597L1996.05 57.8285Z" fill="white" fill-opacity="0.07"/>
<path d="M1996.05 44.6469L1961.52 37.7429C1942.66 33.9615 1911.95 33.9615 1893.1 37.7429C1874.25 41.5244 1842.62 41.5871 1823.41 37.7429C1804.2 33.8987 1773.84 33.9615 1754.8 37.7429C1735.75 41.5244 1704.35 41.5871 1685.14 37.7429C1665.93 33.8987 1635.57 33.9615 1616.69 37.7429C1597.8 41.5244 1566.21 41.5871 1547 37.7429C1527.79 33.8987 1497.43 33.9615 1478.58 37.7429C1459.73 41.5244 1428.1 41.5871 1408.89 37.7429C1389.68 33.8987 1359.33 33.9615 1340.28 37.7429C1321.23 41.5244 1289.8 41.5871 1270.59 37.7429C1251.38 33.8987 1221.02 33.9615 1201.97 37.7429C1182.93 41.5244 1151.5 41.5871 1132.28 37.7429C1113.07 33.8987 1082.72 33.9615 1063.87 37.7429C1045.01 41.5244 1013.35 41.5871 994.143 37.7429L959.608 30.8234L960.229 30.1016L994.764 37.0211C1013.65 40.7869 1044.36 40.7869 1063.21 37.0211C1082.07 33.2553 1113.69 33.1769 1132.94 37.0211C1152.18 40.8653 1182.5 40.7869 1201.35 37.0211C1220.21 33.2553 1251.83 33.1769 1271.04 37.0211C1290.26 40.8653 1320.64 40.7869 1339.66 37.0211C1358.67 33.2553 1390.14 33.1769 1409.35 37.0211C1428.56 40.8653 1458.91 40.7869 1477.76 37.0211C1496.62 33.2553 1528.24 33.1769 1547.46 37.0211C1566.67 40.8653 1597.02 40.7869 1615.9 37.0211C1634.79 33.2553 1666.38 33.1769 1685.6 37.0211C1704.81 40.8653 1735.16 40.7869 1754.01 37.0211C1772.86 33.2553 1804.49 33.1769 1823.7 37.0211C1842.91 40.8653 1873.27 40.7869 1892.32 37.0211C1911.36 33.2553 1942.76 33.1769 1961.97 37.0211L1996.51 43.925L1996.05 44.6469Z" fill="white" fill-opacity="0.07"/>
<path d="M1996.05 31.4672L1961.52 24.5632C1942.66 20.7818 1911.95 20.7818 1893.1 24.5632C1874.25 28.3447 1842.62 28.4074 1823.41 24.5632C1804.2 20.719 1773.84 20.7818 1754.8 24.5632C1735.75 28.3447 1704.35 28.4074 1685.14 24.5632C1665.93 20.719 1635.57 20.7818 1616.69 24.5632C1597.8 28.3447 1566.21 28.4074 1547 24.5632C1527.79 20.719 1497.43 20.7818 1478.58 24.5632C1459.73 28.3447 1428.1 28.4074 1408.89 24.5632C1389.68 20.719 1359.33 20.7818 1340.28 24.5632C1321.23 28.3447 1289.8 28.4074 1270.59 24.5632C1251.38 20.719 1221.02 20.7818 1201.97 24.5632C1182.93 28.3447 1151.5 28.4074 1132.28 24.5632C1113.07 20.719 1082.72 20.7818 1063.87 24.5632C1045.01 28.3447 1013.35 28.4074 994.143 24.5632L959.608 17.6437L960.229 16.9219L994.764 23.8415C1013.65 27.6073 1044.36 27.6073 1063.21 23.8415C1082.07 20.0758 1113.69 19.9973 1132.94 23.8415C1152.18 27.6857 1182.5 27.6073 1201.35 23.8415C1220.21 20.0758 1251.83 19.9973 1271.04 23.8415C1290.26 27.6857 1320.64 27.6073 1339.66 23.8415C1358.67 20.0758 1390.14 19.9973 1409.35 23.8415C1428.56 27.6857 1458.91 27.6073 1477.76 23.8415C1496.62 20.0758 1528.24 19.9973 1547.46 23.8415C1566.67 27.6857 1597.02 27.6073 1615.9 23.8415C1634.79 20.0758 1666.38 19.9973 1685.6 23.8415C1704.81 27.6857 1735.16 27.6073 1754.01 23.8415C1772.86 20.0758 1804.49 19.9973 1823.7 23.8415C1842.91 27.6857 1873.27 27.6073 1892.32 23.8415C1911.36 20.0758 1942.76 19.9973 1961.97 23.8415L1996.51 30.7454L1996.05 31.4672Z" fill="white" fill-opacity="0.07"/>
<path d="M1996.05 18.2874L1961.52 11.3835C1942.66 7.60209 1911.95 7.60209 1893.1 11.3835C1874.25 15.165 1842.62 15.2278 1823.41 11.3835C1804.2 7.53932 1773.84 7.60209 1754.8 11.3835C1735.75 15.165 1704.35 15.2278 1685.14 11.3835C1665.93 7.53932 1635.57 7.60209 1616.69 11.3835C1597.8 15.165 1566.21 15.2278 1547 11.3835C1527.79 7.53932 1497.43 7.60209 1478.58 11.3835C1459.73 15.165 1428.1 15.2278 1408.89 11.3835C1389.68 7.53932 1359.33 7.60209 1340.28 11.3835C1321.23 15.165 1289.8 15.2278 1270.59 11.3835C1251.38 7.53932 1221.02 7.60209 1201.97 11.3835C1182.93 15.165 1151.5 15.2278 1132.28 11.3835C1113.07 7.53932 1082.72 7.60209 1063.87 11.3835C1045.01 15.165 1013.35 15.2278 994.143 11.3835L959.608 4.4796L960.229 3.74219L994.764 10.6617C1013.65 14.4275 1044.36 14.4275 1063.21 10.6617C1082.07 6.89597 1113.69 6.81752 1132.94 10.6617C1152.18 14.506 1182.5 14.4275 1201.35 10.6617C1220.21 6.89597 1251.83 6.81752 1271.04 10.6617C1290.26 14.506 1320.64 14.4275 1339.66 10.6617C1358.67 6.89597 1390.14 6.81752 1409.35 10.6617C1428.56 14.506 1458.91 14.4275 1477.76 10.6617C1496.62 6.89597 1528.24 6.81752 1547.46 10.6617C1566.67 14.506 1597.02 14.4275 1615.9 10.6617C1634.79 6.89597 1666.38 6.81752 1685.6 10.6617C1704.81 14.506 1735.16 14.4275 1754.01 10.6617C1772.86 6.89597 1804.49 6.81752 1823.7 10.6617C1842.91 14.506 1873.27 14.4275 1892.32 10.6617C1911.36 6.89597 1942.76 6.81752 1961.97 10.6617L1996.51 17.5657L1996.05 18.2874Z" fill="white" fill-opacity="0.07"/>
<path d="M1996.05 5.10584L1961.52 -1.7981C1942.66 -5.57955 1911.95 -5.57955 1893.1 -1.7981C1874.25 1.98335 1842.62 2.04612 1823.41 -1.7981C1804.2 -5.64232 1773.84 -5.57955 1754.8 -1.7981C1735.75 1.98335 1704.35 2.04612 1685.14 -1.7981C1665.93 -5.64232 1635.57 -5.57955 1616.69 -1.7981C1597.8 1.98335 1566.21 2.04612 1547 -1.7981C1527.79 -5.64232 1497.43 -5.57955 1478.58 -1.7981C1459.73 1.98335 1428.1 2.04612 1408.89 -1.7981C1389.68 -5.64232 1359.33 -5.57955 1340.28 -1.7981C1321.23 1.98335 1289.8 2.04612 1270.59 -1.7981C1251.38 -5.64232 1221.02 -5.57955 1201.97 -1.7981C1182.93 1.98335 1151.53 2.04612 1132.28 -1.7981C1113.04 -5.64232 1082.72 -5.57955 1063.87 -1.7981C1045.01 1.98335 1013.35 2.04612 994.143 -1.7981L959.608 -8.70194L960.229 -9.43945L995.254 -2.56693C1014.14 1.21453 1044.85 1.21453 1063.7 -2.56693C1082.56 -6.34838 1114.18 -6.41114 1133.43 -2.56693C1152.67 1.27729 1182.99 1.21453 1201.84 -2.56693C1220.7 -6.34838 1252.32 -6.41114 1271.53 -2.56693C1290.75 1.27729 1321.13 1.19884 1340.15 -2.56693C1359.16 -6.33269 1390.63 -6.41114 1409.84 -2.56693C1429.05 1.27729 1459.4 1.21453 1478.25 -2.56693C1497.11 -6.34838 1528.73 -6.41114 1547.95 -2.56693C1567.16 1.27729 1597.51 1.19884 1616.39 -2.56693C1635.28 -6.33269 1666.87 -6.41114 1686.09 -2.56693C1705.3 1.27729 1735.65 1.21453 1754.5 -2.56693C1773.35 -6.34838 1804.98 -6.41114 1824.19 -2.56693C1843.4 1.27729 1873.76 1.21453 1892.81 -2.56693C1911.85 -6.34838 1943.25 -6.41114 1962.46 -2.56693L1997 4.33701L1996.05 5.10584Z" fill="white" fill-opacity="0.07"/>
</g>
<mask id="mask1_497_4577" style="mask-type:alpha" maskUnits="userSpaceOnUse" x="0" y="171" width="1920" height="180">
<rect y="171.801" width="1920" height="179.199" fill="#0393FB"/>
</mask>
<g mask="url(#mask1_497_4577)">
<path d="M960.444 360.991L925.909 354.087C907.057 350.305 876.345 350.305 857.492 354.087C838.64 357.868 807.013 357.931 787.802 354.087C768.59 350.242 738.237 350.305 719.189 354.087C700.141 357.868 668.742 357.931 649.531 354.087C630.319 350.242 599.966 350.305 581.081 354.087C562.197 357.868 530.602 357.931 511.391 354.087C492.179 350.242 461.826 350.305 442.974 354.087C424.122 357.868 392.495 357.931 373.283 354.087C354.072 350.242 323.719 350.305 304.671 354.087C285.622 357.868 254.191 357.931 234.98 354.087C215.768 350.242 185.415 350.305 166.367 354.087C147.319 357.868 115.888 357.931 96.6761 354.087C77.4645 350.242 47.1116 350.305 28.2594 354.087C9.4073 357.868 -22.2524 357.931 -41.464 354.087L-75.999 347.167L-75.3782 346.445L-40.8432 353.349C-21.9584 357.131 8.75401 357.131 27.6061 353.349C46.4583 349.568 78.0853 349.505 97.3295 353.349C116.574 357.193 146.894 357.131 165.746 353.349C184.598 349.568 216.226 349.505 235.437 353.349C254.649 357.193 285.034 357.131 304.05 353.349C323.065 349.568 354.529 349.505 373.741 353.349C392.952 357.193 423.305 357.131 442.157 353.349C461.009 349.568 492.636 349.505 511.848 353.349C531.06 357.193 561.412 357.131 580.297 353.349C599.182 349.568 630.777 349.505 649.988 353.349C669.2 357.193 699.553 357.131 718.405 353.349C737.257 349.568 768.884 349.505 788.095 353.349C807.307 357.193 837.66 357.131 856.708 353.349C875.756 349.568 907.155 349.505 926.366 353.349L961.065 360.237L960.444 360.991Z" fill="white" fill-opacity="0.07"/>
<path d="M960.444 347.811L925.909 340.907C907.057 337.126 876.345 337.126 857.492 340.907C838.64 344.688 807.013 344.751 787.802 340.907C768.59 337.063 738.237 337.126 719.189 340.907C700.141 344.688 668.742 344.751 649.531 340.907C630.319 337.063 599.966 337.126 581.081 340.907C562.197 344.688 530.602 344.751 511.391 340.907C492.179 337.063 461.826 337.126 442.974 340.907C424.122 344.688 392.495 344.751 373.283 340.907C354.072 337.063 323.719 337.126 304.671 340.907C285.622 344.688 254.191 344.751 234.98 340.907C215.768 337.063 185.415 337.126 166.367 340.907C147.319 344.688 115.888 344.751 96.6761 340.907C77.4645 337.063 47.1116 337.126 28.2594 340.907C9.4073 344.688 -22.2524 344.751 -41.464 340.907L-75.999 333.987L-75.3782 333.266L-40.8432 340.185C-21.9584 343.951 8.75401 343.951 27.6061 340.185C46.4583 336.419 78.0853 336.341 97.3295 340.185C116.574 344.029 146.894 343.951 165.746 340.185C184.598 336.419 216.226 336.341 235.437 340.185C254.649 344.029 285.034 343.951 304.05 340.185C323.065 336.419 354.529 336.325 373.741 340.185C392.952 344.045 423.305 343.951 442.157 340.185C461.009 336.419 492.636 336.325 511.848 340.185C531.06 344.045 561.412 343.951 580.297 340.185C599.182 336.419 630.777 336.325 649.988 340.185C669.2 344.045 699.553 343.951 718.405 340.185C737.257 336.419 768.884 336.325 788.095 340.185C807.307 344.045 837.66 343.951 856.708 340.185C875.756 336.419 907.155 336.325 926.366 340.185L960.901 347.089L960.444 347.811Z" fill="white" fill-opacity="0.07"/>
<path d="M960.444 334.629L925.909 327.725C907.057 323.944 876.345 323.944 857.492 327.725C838.64 331.507 807.013 331.57 787.802 327.725C768.59 323.881 738.237 323.944 719.189 327.725C700.141 331.507 668.742 331.57 649.531 327.725C630.319 323.881 599.966 323.944 581.081 327.725C562.197 331.507 530.602 331.57 511.391 327.725C492.179 323.881 461.826 323.944 442.974 327.725C424.122 331.507 392.495 331.57 373.283 327.725C354.072 323.881 323.719 323.944 304.671 327.725C285.622 331.507 254.191 331.57 234.98 327.725C215.768 323.881 185.415 323.944 166.367 327.725C147.319 331.507 115.888 331.57 96.6761 327.725C77.4645 323.881 47.1116 323.944 28.2594 327.725C9.4073 331.507 -22.2524 331.57 -41.464 327.725L-75.999 320.806L-75.3782 320.084L-40.8432 327.004C-21.9584 330.769 8.75401 330.769 27.6061 327.004C46.4583 323.238 78.0853 323.159 97.3295 327.004C116.574 330.848 146.894 330.769 165.746 327.004C184.598 323.238 216.226 323.159 235.437 327.004C254.649 330.848 285.034 330.769 304.05 327.004C323.065 323.238 354.529 323.159 373.741 327.004C392.952 330.848 423.305 330.769 442.157 327.004C461.009 323.238 492.636 323.159 511.848 327.004C531.06 330.848 561.412 330.769 580.297 327.004C599.182 323.238 630.777 323.159 649.988 327.004C669.2 330.848 699.553 330.769 718.405 327.004C737.257 323.238 768.884 323.159 788.095 327.004C807.307 330.848 837.66 330.769 856.708 327.004C875.756 323.238 907.155 323.159 926.366 327.004L960.901 333.907L960.444 334.629Z" fill="white" fill-opacity="0.07"/>
<path d="M960.444 321.452L925.909 314.548C907.057 310.766 876.345 310.766 857.492 314.548C838.64 318.329 807.013 318.392 787.802 314.548C768.59 310.703 738.237 310.766 719.189 314.548C700.141 318.329 668.742 318.392 649.531 314.548C630.319 310.703 599.966 310.766 581.081 314.548C562.197 318.329 530.602 318.392 511.391 314.548C492.179 310.703 461.826 310.766 442.974 314.548C424.122 318.329 392.495 318.392 373.283 314.548C354.072 310.703 323.719 310.766 304.671 314.548C285.622 318.329 254.191 318.392 234.98 314.548C215.768 310.703 185.415 310.766 166.367 314.548C147.319 318.329 115.92 318.392 96.6761 314.548C77.4318 310.703 47.1116 310.766 28.2594 314.548C9.4073 318.329 -22.2524 318.392 -41.464 314.548L-75.999 307.644L-75.3782 306.906L-40.8432 313.826C-21.9584 317.592 8.75401 317.592 27.6061 313.826C46.4583 310.06 78.0853 309.982 97.3295 313.826C116.574 317.67 146.894 317.592 165.746 313.826C184.598 310.06 216.226 309.982 235.437 313.826C254.649 317.67 285.034 317.592 304.05 313.826C323.065 310.06 354.529 309.982 373.741 313.826C392.952 317.67 423.305 317.592 442.157 313.826C461.009 310.06 492.636 309.982 511.848 313.826C531.06 317.67 561.412 317.592 580.297 313.826C599.182 310.06 630.777 309.982 649.988 313.826C669.2 317.67 699.553 317.592 718.405 313.826C737.257 310.06 768.884 309.982 788.095 313.826C807.307 317.67 837.66 317.592 856.708 313.826C875.756 310.06 907.155 309.982 926.366 313.826L960.901 320.73L960.444 321.452Z" fill="white" fill-opacity="0.07"/>
<path d="M960.444 308.268L925.909 301.364C907.057 297.583 876.345 297.583 857.492 301.364C838.64 305.145 807.013 305.208 787.801 301.364C768.59 297.52 738.237 297.583 719.189 301.364C700.141 305.145 668.742 305.208 649.531 301.364C630.319 297.52 599.966 297.583 581.081 301.364C562.197 305.145 530.602 305.208 511.39 301.364C492.179 297.52 461.826 297.583 442.974 301.364C424.122 305.145 392.495 305.208 373.283 301.364C354.072 297.52 323.719 297.583 304.67 301.364C285.622 305.145 254.191 305.208 234.98 301.364C215.768 297.52 185.415 297.583 166.367 301.364C147.319 305.145 115.92 305.208 96.676 301.364C77.4318 297.52 47.1116 297.583 28.2594 301.364C9.4073 305.145 -22.2524 305.208 -41.464 301.364L-75.999 294.46L-75.3782 293.723L-40.3532 300.611C-21.4684 304.377 9.24397 304.377 28.0961 300.611C46.9482 296.845 78.5755 296.767 97.8197 300.611C117.064 304.455 147.384 304.377 166.236 300.611C185.088 296.845 216.715 296.767 235.927 300.611C255.139 304.455 285.524 304.377 304.54 300.611C323.555 296.845 355.019 296.767 374.231 300.611C393.442 304.455 423.795 304.392 442.647 300.611C461.499 296.829 493.127 296.767 512.338 300.611C531.55 304.455 561.903 304.377 580.787 300.611C599.672 296.845 631.267 296.767 650.478 300.611C669.69 304.455 700.043 304.377 718.895 300.611C737.747 296.845 769.374 296.767 788.586 300.611C807.797 304.455 838.15 304.377 857.198 300.611C876.246 296.845 907.645 296.767 926.856 300.611L961.391 307.515L960.444 308.268Z" fill="white" fill-opacity="0.07"/>
<path d="M960.444 295.09L925.909 288.186C907.057 284.405 876.345 284.405 857.492 288.186C838.64 291.968 807.013 292.031 787.802 288.186C768.59 284.342 738.237 284.405 719.189 288.186C700.141 291.968 668.742 292.031 649.531 288.186C630.319 284.342 599.966 284.405 581.081 288.186C562.197 291.968 530.602 292.031 511.391 288.186C492.179 284.342 461.826 284.405 442.974 288.186C424.122 291.968 392.495 292.031 373.283 288.186C354.072 284.342 323.719 284.405 304.671 288.186C285.622 291.968 254.191 292.031 234.98 288.186C215.768 284.342 185.415 284.405 166.367 288.186C147.319 291.968 115.92 292.031 96.6761 288.186C77.4318 284.342 47.1116 284.405 28.2594 288.186C9.4073 291.968 -22.2524 292.031 -41.464 288.186L-75.999 281.282L-75.3782 280.561L-40.8432 287.464C-21.9584 291.246 8.75401 291.246 27.6061 287.464C46.4583 283.683 78.0853 283.62 97.3295 287.464C116.574 291.309 146.894 291.246 165.746 287.464C184.598 283.683 216.226 283.62 235.437 287.464C254.649 291.309 285.034 291.246 304.05 287.464C323.065 283.683 354.529 283.62 373.741 287.464C392.952 291.309 423.305 291.246 442.157 287.464C461.009 283.683 492.636 283.62 511.848 287.464C531.06 291.309 561.412 291.246 580.297 287.464C599.182 283.683 630.777 283.62 649.988 287.464C669.2 291.309 699.553 291.246 718.405 287.464C737.257 283.683 768.884 283.62 788.095 287.464C807.307 291.309 837.66 291.246 856.708 287.464C875.756 283.683 907.155 283.62 926.366 287.464L960.901 294.368L960.444 295.09Z" fill="white" fill-opacity="0.07"/>
<path d="M960.444 281.926L925.909 275.007C907.057 271.241 876.345 271.241 857.492 275.007C838.64 278.772 807.013 278.851 787.802 275.007C768.59 271.162 738.237 271.241 719.189 275.007C700.141 278.772 668.742 278.851 649.531 275.007C630.319 271.162 599.966 271.241 581.081 275.007C562.197 278.772 530.602 278.851 511.391 275.007C492.179 271.162 461.826 271.241 442.974 275.007C424.122 278.772 392.495 278.851 373.283 275.007C354.072 271.162 323.719 271.241 304.671 275.007C285.622 278.772 254.191 278.851 234.98 275.007C215.768 271.162 185.415 271.241 166.367 275.007C147.319 278.772 115.92 278.851 96.6761 275.007C77.4318 271.162 47.1116 271.241 28.2594 275.007C9.4073 278.772 -22.2524 278.851 -41.464 275.007L-75.999 268.103L-75.3782 267.381L-40.8432 274.285C-21.9584 278.066 8.75401 278.066 27.6061 274.285C46.4583 270.503 78.0853 270.44 97.3295 274.285C116.574 278.129 146.894 278.066 165.746 274.285C184.598 270.503 216.226 270.44 235.437 274.285C254.649 278.129 285.034 278.066 304.05 274.285C323.065 270.503 354.529 270.44 373.741 274.285C392.952 278.129 423.305 278.066 442.157 274.285C461.009 270.503 492.636 270.44 511.848 274.285C531.06 278.129 561.412 278.066 580.297 274.285C599.182 270.503 630.777 270.44 649.988 274.285C669.2 278.129 699.553 278.066 718.405 274.285C737.257 270.503 768.884 270.44 788.095 274.285C807.307 278.129 837.66 278.066 856.708 274.285C875.756 270.503 907.155 270.44 926.366 274.285L960.901 281.189L960.444 281.926Z" fill="white" fill-opacity="0.07"/>
<path d="M960.444 268.745L925.909 261.825C907.057 258.059 876.345 258.059 857.492 261.825C838.64 265.591 807.013 265.669 787.802 261.825C768.59 257.981 738.237 258.059 719.189 261.825C700.141 265.591 668.742 265.669 649.531 261.825C630.319 257.981 599.966 258.059 581.081 261.825C562.197 265.591 530.602 265.669 511.391 261.825C492.179 257.981 461.826 258.059 442.974 261.825C424.122 265.591 392.495 265.669 373.283 261.825C354.072 257.981 323.719 258.059 304.671 261.825C285.622 265.591 254.191 265.669 234.98 261.825C215.768 257.981 185.415 258.059 166.367 261.825C147.319 265.591 115.92 265.669 96.6761 261.825C77.4318 257.981 47.1116 258.059 28.2594 261.825C9.4073 265.591 -22.2524 265.669 -41.464 261.825L-75.999 254.921L-75.3782 254.199L-40.8432 261.103C-21.9584 264.885 8.75401 264.885 27.6061 261.103C46.4583 257.322 78.0853 257.259 97.3295 261.103C116.574 264.947 146.894 264.885 165.746 261.103C184.598 257.322 216.226 257.259 235.437 261.103C254.649 264.947 285.034 264.885 304.05 261.103C323.065 257.322 354.529 257.259 373.741 261.103C392.952 264.947 423.305 264.885 442.157 261.103C461.009 257.322 492.636 257.259 511.848 261.103C531.06 264.947 561.412 264.885 580.297 261.103C599.182 257.322 630.777 257.259 649.988 261.103C669.2 264.947 699.553 264.885 718.405 261.103C737.257 257.322 768.884 257.259 788.095 261.103C807.307 264.947 837.66 264.885 856.708 261.103C875.756 257.322 907.155 257.259 926.366 261.103L960.901 268.007L960.444 268.745Z" fill="white" fill-opacity="0.07"/>
<path d="M960.444 255.563L925.909 248.643C907.057 244.877 876.345 244.877 857.492 248.643C838.64 252.409 807.013 252.487 787.802 248.643C768.59 244.799 738.237 244.877 719.189 248.643C700.141 252.409 668.742 252.487 649.531 248.643C630.319 244.799 599.966 244.877 581.081 248.643C562.197 252.409 530.602 252.487 511.391 248.643C492.179 244.799 461.826 244.877 442.974 248.643C424.122 252.409 392.495 252.487 373.283 248.643C354.072 244.799 323.719 244.877 304.671 248.643C285.622 252.409 254.191 252.487 234.98 248.643C215.768 244.799 185.415 244.877 166.367 248.643C147.319 252.409 115.888 252.487 96.6761 248.643C77.4645 244.799 47.1116 244.877 28.2594 248.643C9.4073 252.409 -22.2524 252.487 -41.464 248.643L-75.999 241.739L-75.3782 241.018L-40.8432 247.921C-21.9584 251.703 8.75401 251.703 27.6061 247.921C46.4583 244.14 78.0853 244.077 97.3295 247.921C116.574 251.766 146.894 251.703 165.746 247.921C184.598 244.14 216.226 244.077 235.437 247.921C254.649 251.766 285.034 251.703 304.05 247.921C323.065 244.14 354.529 244.077 373.741 247.921C392.952 251.766 423.305 251.703 442.157 247.921C461.009 244.14 492.636 244.077 511.848 247.921C531.06 251.766 561.412 251.703 580.297 247.921C599.182 244.14 630.777 244.077 649.988 247.921C669.2 251.766 699.553 251.703 718.405 247.921C737.257 244.14 768.884 244.077 788.095 247.921C807.307 251.766 837.66 251.703 856.708 247.921C875.756 244.14 907.155 244.077 926.366 247.921L960.901 254.841L960.444 255.563Z" fill="white" fill-opacity="0.07"/>
<path d="M960.444 242.385L925.909 235.481C907.057 231.7 876.345 231.7 857.492 235.481C838.64 239.263 807.013 239.325 787.802 235.481C768.59 231.637 738.237 231.7 719.189 235.481C700.141 239.263 668.742 239.325 649.531 235.481C630.319 231.637 599.966 231.7 581.081 235.481C562.197 239.263 530.602 239.325 511.391 235.481C492.179 231.637 461.826 231.7 442.974 235.481C424.122 239.263 392.495 239.325 373.283 235.481C354.072 231.637 323.719 231.7 304.671 235.481C285.622 239.263 254.191 239.325 234.98 235.481C215.768 231.637 185.415 231.7 166.367 235.481C147.319 239.263 115.888 239.325 96.6761 235.481C77.4645 231.637 47.1116 231.7 28.2594 235.481C9.4073 239.263 -22.2524 239.325 -41.464 235.481L-75.999 228.562L-75.3782 227.84L-40.8432 234.744C-21.9584 238.525 8.75401 238.525 27.6061 234.744C46.4583 230.962 78.0853 230.9 97.3295 234.744C116.574 238.588 146.894 238.525 165.746 234.744C184.598 230.962 216.226 230.9 235.437 234.744C254.649 238.588 285.034 238.525 304.05 234.744C323.065 230.962 354.529 230.9 373.741 234.744C392.952 238.588 423.305 238.525 442.157 234.744C461.009 230.962 492.636 230.9 511.848 234.744C531.06 238.588 561.412 238.525 580.297 234.744C599.182 230.962 630.777 230.9 649.988 234.744C669.2 238.588 699.553 238.525 718.405 234.744C737.257 230.962 768.884 230.9 788.095 234.744C807.307 238.588 837.66 238.525 856.708 234.744C875.756 230.962 907.155 230.9 926.366 234.744L960.901 241.663L960.444 242.385Z" fill="white" fill-opacity="0.07"/>
<path d="M960.444 229.202L925.909 222.298C907.057 218.516 876.345 218.516 857.492 222.298C838.64 226.079 807.013 226.142 787.802 222.298C768.59 218.453 738.237 218.516 719.189 222.298C700.141 226.079 668.742 226.142 649.531 222.298C630.319 218.453 599.966 218.516 581.081 222.298C562.197 226.079 530.602 226.142 511.391 222.298C492.179 218.453 461.826 218.516 442.974 222.298C424.122 226.079 392.495 226.142 373.283 222.298C354.072 218.453 323.719 218.516 304.671 222.298C285.622 226.079 254.191 226.142 234.98 222.298C215.768 218.453 185.415 218.516 166.367 222.298C147.319 226.079 115.888 226.142 96.6761 222.298C77.4645 218.453 47.1116 218.516 28.2594 222.298C9.4073 226.079 -22.2524 226.142 -41.464 222.298L-75.999 215.378L-75.3782 214.656L-40.8432 221.56C-21.9584 225.342 8.75401 225.342 27.6061 221.56C46.4583 217.779 78.0853 217.716 97.3295 221.56C116.574 225.404 146.894 225.342 165.746 221.56C184.598 217.779 216.226 217.716 235.437 221.56C254.649 225.404 285.034 225.342 304.05 221.56C323.065 217.779 354.529 217.716 373.741 221.56C392.952 225.404 423.305 225.342 442.157 221.56C461.009 217.779 492.636 217.716 511.848 221.56C531.06 225.404 561.412 225.342 580.297 221.56C599.182 217.779 630.777 217.716 649.988 221.56C669.2 225.404 699.553 225.342 718.405 221.56C737.257 217.779 768.884 217.716 788.095 221.56C807.307 225.404 837.66 225.342 856.708 221.56C875.756 217.779 907.155 217.716 926.366 221.56L961.065 228.433L960.444 229.202Z" fill="white" fill-opacity="0.07"/>
<path d="M960.444 216.024L925.909 209.12C907.057 205.338 876.345 205.338 857.492 209.12C838.64 212.901 807.013 212.964 787.802 209.12C768.59 205.276 738.237 205.338 719.189 209.12C700.141 212.901 668.742 212.964 649.531 209.12C630.319 205.276 599.966 205.338 581.081 209.12C562.197 212.901 530.602 212.964 511.391 209.12C492.179 205.276 461.826 205.338 442.974 209.12C424.122 212.901 392.495 212.964 373.283 209.12C354.072 205.276 323.719 205.338 304.671 209.12C285.622 212.901 254.191 212.964 234.98 209.12C215.768 205.276 185.415 205.338 166.367 209.12C147.319 212.901 115.888 212.964 96.6761 209.12C77.4645 205.276 47.1116 205.338 28.2594 209.12C9.4073 212.901 -22.2524 212.964 -41.464 209.12L-75.999 202.2L-75.3782 201.479L-40.8432 208.398C-21.9584 212.164 8.75401 212.164 27.6061 208.398C46.4583 204.632 78.0853 204.554 97.3295 208.398C116.574 212.242 146.894 212.164 165.746 208.398C184.598 204.632 216.226 204.554 235.437 208.398C254.649 212.242 285.034 212.164 304.05 208.398C323.065 204.632 354.529 204.554 373.741 208.398C392.952 212.242 423.305 212.164 442.157 208.398C461.009 204.632 492.636 204.554 511.848 208.398C531.06 212.242 561.412 212.164 580.297 208.398C599.182 204.632 630.777 204.554 649.988 208.398C669.2 212.242 699.553 212.164 718.405 208.398C737.257 204.632 768.884 204.554 788.095 208.398C807.307 212.242 837.66 212.164 856.708 208.398C875.756 204.632 907.155 204.554 926.366 208.398L960.901 215.302L960.444 216.024Z" fill="white" fill-opacity="0.07"/>
<path d="M960.444 202.842L925.909 195.938C907.057 192.157 876.345 192.157 857.492 195.938C838.64 199.72 807.013 199.782 787.802 195.938C768.59 192.094 738.237 192.157 719.189 195.938C700.141 199.72 668.742 199.782 649.531 195.938C630.319 192.094 599.966 192.157 581.081 195.938C562.197 199.72 530.602 199.782 511.391 195.938C492.179 192.094 461.826 192.157 442.974 195.938C424.122 199.72 392.495 199.782 373.283 195.938C354.072 192.094 323.719 192.157 304.671 195.938C285.622 199.72 254.191 199.782 234.98 195.938C215.768 192.094 185.415 192.157 166.367 195.938C147.319 199.72 115.888 199.782 96.6761 195.938C77.4645 192.094 47.1116 192.157 28.2594 195.938C9.4073 199.72 -22.2524 199.782 -41.464 195.938L-75.999 189.019L-75.3782 188.297L-40.8432 195.217C-21.9584 198.982 8.75401 198.982 27.6061 195.217C46.4583 191.451 78.0853 191.372 97.3295 195.217C116.574 199.061 146.894 198.982 165.746 195.217C184.598 191.451 216.226 191.372 235.437 195.217C254.649 199.061 285.034 198.982 304.05 195.217C323.065 191.451 354.529 191.372 373.741 195.217C392.952 199.061 423.305 198.982 442.157 195.217C461.009 191.451 492.636 191.372 511.848 195.217C531.06 199.061 561.412 198.982 580.297 195.217C599.182 191.451 630.777 191.372 649.988 195.217C669.2 199.061 699.553 198.982 718.405 195.217C737.257 191.451 768.884 191.372 788.095 195.217C807.307 199.061 837.66 198.982 856.708 195.217C875.756 191.451 907.155 191.372 926.366 195.217L960.901 202.12L960.444 202.842Z" fill="white" fill-opacity="0.07"/>
<path d="M960.444 189.662L925.909 182.759C907.057 178.977 876.345 178.977 857.492 182.759C838.64 186.54 807.013 186.603 787.802 182.759C768.59 178.914 738.237 178.977 719.189 182.759C700.141 186.54 668.742 186.603 649.531 182.759C630.319 178.914 599.966 178.977 581.081 182.759C562.197 186.54 530.602 186.603 511.391 182.759C492.179 178.914 461.826 178.977 442.974 182.759C424.122 186.54 392.495 186.603 373.283 182.759C354.072 178.914 323.719 178.977 304.671 182.759C285.622 186.54 254.191 186.603 234.98 182.759C215.768 178.914 185.415 178.977 166.367 182.759C147.319 186.54 115.888 186.603 96.6761 182.759C77.4645 178.914 47.1116 178.977 28.2594 182.759C9.4073 186.54 -22.2524 186.603 -41.464 182.759L-75.999 175.855L-75.3782 175.117L-40.8432 182.037C-21.9584 185.802 8.75401 185.802 27.6061 182.037C46.4583 178.271 78.0853 178.193 97.3295 182.037C116.574 185.881 146.894 185.802 165.746 182.037C184.598 178.271 216.226 178.193 235.437 182.037C254.649 185.881 285.034 185.802 304.05 182.037C323.065 178.271 354.529 178.193 373.741 182.037C392.952 185.881 423.305 185.802 442.157 182.037C461.009 178.271 492.636 178.193 511.848 182.037C531.06 185.881 561.412 185.802 580.297 182.037C599.182 178.271 630.777 178.193 649.988 182.037C669.2 185.881 699.553 185.802 718.405 182.037C737.257 178.271 768.884 178.193 788.095 182.037C807.307 185.881 837.66 185.802 856.708 182.037C875.756 178.271 907.155 178.193 926.366 182.037L960.901 188.941L960.444 189.662Z" fill="white" fill-opacity="0.07"/>
<path d="M960.444 176.481L925.909 169.577C907.057 165.795 876.345 165.795 857.492 169.577C838.64 173.358 807.013 173.421 787.801 169.577C768.59 165.733 738.237 165.795 719.189 169.577C700.141 173.358 668.742 173.421 649.531 169.577C630.319 165.733 599.966 165.795 581.081 169.577C562.197 173.358 530.602 173.421 511.39 169.577C492.179 165.733 461.826 165.795 442.974 169.577C424.122 173.358 392.495 173.421 373.283 169.577C354.072 165.733 323.719 165.795 304.67 169.577C285.622 173.358 254.191 173.421 234.98 169.577C215.768 165.733 185.415 165.795 166.367 169.577C147.319 173.358 115.92 173.421 96.676 169.577C77.4318 165.733 47.1116 165.795 28.2594 169.577C9.4073 173.358 -22.2524 173.421 -41.464 169.577L-75.999 162.673L-75.3782 161.936L-40.3532 168.808C-21.4684 172.59 9.24397 172.59 28.0961 168.808C46.9482 165.027 78.5755 164.964 97.8197 168.808C117.064 172.652 147.384 172.59 166.236 168.808C185.088 165.027 216.715 164.964 235.927 168.808C255.139 172.652 285.524 172.574 304.54 168.808C323.555 165.042 355.019 164.964 374.231 168.808C393.442 172.652 423.795 172.59 442.647 168.808C461.499 165.027 493.127 164.964 512.338 168.808C531.55 172.652 561.903 172.574 580.787 168.808C599.672 165.042 631.267 164.964 650.478 168.808C669.69 172.652 700.043 172.59 718.895 168.808C737.747 165.027 769.374 164.964 788.586 168.808C807.797 172.652 838.15 172.59 857.198 168.808C876.246 165.027 907.645 164.964 926.856 168.808L961.391 175.712L960.444 176.481Z" fill="white" fill-opacity="0.07"/>
<path d="M1996.05 361.414L1961.52 354.51C1942.66 350.729 1911.95 350.729 1893.1 354.51C1874.25 358.292 1842.62 358.355 1823.41 354.51C1804.2 350.666 1773.84 350.729 1754.8 354.51C1735.75 358.292 1704.35 358.355 1685.14 354.51C1665.93 350.666 1635.57 350.729 1616.69 354.51C1597.8 358.292 1566.21 358.355 1547 354.51C1527.79 350.666 1497.43 350.729 1478.58 354.51C1459.73 358.292 1428.1 358.355 1408.89 354.51C1389.68 350.666 1359.33 350.729 1340.28 354.51C1321.23 358.292 1289.8 358.355 1270.59 354.51C1251.38 350.666 1221.02 350.729 1201.97 354.51C1182.93 358.292 1151.5 358.355 1132.28 354.51C1113.07 350.666 1082.72 350.729 1063.87 354.51C1045.01 358.292 1013.35 358.355 994.143 354.51L959.608 347.591L960.229 346.869L994.764 353.773C1013.65 357.554 1044.36 357.554 1063.21 353.773C1082.07 349.992 1113.69 349.929 1132.94 353.773C1152.18 357.617 1182.5 357.554 1201.35 353.773C1220.21 349.992 1251.83 349.929 1271.04 353.773C1290.26 357.617 1320.64 357.554 1339.66 353.773C1358.67 349.992 1390.14 349.929 1409.35 353.773C1428.56 357.617 1458.91 357.554 1477.76 353.773C1496.62 349.992 1528.24 349.929 1547.46 353.773C1566.67 357.617 1597.02 357.554 1615.9 353.773C1634.79 349.992 1666.38 349.929 1685.6 353.773C1704.81 357.617 1735.16 357.554 1754.01 353.773C1772.86 349.992 1804.49 349.929 1823.7 353.773C1842.91 357.617 1873.27 357.554 1892.32 353.773C1911.36 349.992 1942.76 349.929 1961.97 353.773L1996.67 360.661L1996.05 361.414Z" fill="white" fill-opacity="0.07"/>
<path d="M1996.05 348.235L1961.52 341.331C1942.66 337.549 1911.95 337.549 1893.1 341.331C1874.25 345.112 1842.62 345.175 1823.41 341.331C1804.2 337.487 1773.84 337.549 1754.8 341.331C1735.75 345.112 1704.35 345.175 1685.14 341.331C1665.93 337.487 1635.57 337.549 1616.69 341.331C1597.8 345.112 1566.21 345.175 1547 341.331C1527.79 337.487 1497.43 337.549 1478.58 341.331C1459.73 345.112 1428.1 345.175 1408.89 341.331C1389.68 337.487 1359.33 337.549 1340.28 341.331C1321.23 345.112 1289.8 345.175 1270.59 341.331C1251.38 337.487 1221.02 337.549 1201.97 341.331C1182.93 345.112 1151.5 345.175 1132.28 341.331C1113.07 337.487 1082.72 337.549 1063.87 341.331C1045.01 345.112 1013.35 345.175 994.143 341.331L959.608 334.411L960.229 333.689L994.764 340.609C1013.65 344.375 1044.36 344.375 1063.21 340.609C1082.07 336.843 1113.69 336.765 1132.94 340.609C1152.18 344.453 1182.5 344.375 1201.35 340.609C1220.21 336.843 1251.83 336.765 1271.04 340.609C1290.26 344.453 1320.64 344.375 1339.66 340.609C1358.67 336.843 1390.14 336.749 1409.35 340.609C1428.56 344.469 1458.91 344.375 1477.76 340.609C1496.62 336.843 1528.24 336.749 1547.46 340.609C1566.67 344.469 1597.02 344.375 1615.9 340.609C1634.79 336.843 1666.38 336.749 1685.6 340.609C1704.81 344.469 1735.16 344.375 1754.01 340.609C1772.86 336.843 1804.49 336.749 1823.7 340.609C1842.91 344.469 1873.27 344.375 1892.32 340.609C1911.36 336.843 1942.76 336.749 1961.97 340.609L1996.51 347.513L1996.05 348.235Z" fill="white" fill-opacity="0.07"/>
<path d="M1996.05 335.055L1961.52 328.151C1942.66 324.37 1911.95 324.37 1893.1 328.151C1874.25 331.933 1842.62 331.995 1823.41 328.151C1804.2 324.307 1773.84 324.37 1754.8 328.151C1735.75 331.933 1704.35 331.995 1685.14 328.151C1665.93 324.307 1635.57 324.37 1616.69 328.151C1597.8 331.933 1566.21 331.995 1547 328.151C1527.79 324.307 1497.43 324.37 1478.58 328.151C1459.73 331.933 1428.1 331.995 1408.89 328.151C1389.68 324.307 1359.33 324.37 1340.28 328.151C1321.23 331.933 1289.8 331.995 1270.59 328.151C1251.38 324.307 1221.02 324.37 1201.97 328.151C1182.93 331.933 1151.5 331.995 1132.28 328.151C1113.07 324.307 1082.72 324.37 1063.87 328.151C1045.01 331.933 1013.35 331.995 994.143 328.151L959.608 321.232L960.229 320.51L994.764 327.429C1013.65 331.195 1044.36 331.195 1063.21 327.429C1082.07 323.664 1113.69 323.585 1132.94 327.429C1152.18 331.274 1182.5 331.195 1201.35 327.429C1220.21 323.664 1251.83 323.585 1271.04 327.429C1290.26 331.274 1320.64 331.195 1339.66 327.429C1358.67 323.664 1390.14 323.585 1409.35 327.429C1428.56 331.274 1458.91 331.195 1477.76 327.429C1496.62 323.664 1528.24 323.585 1547.46 327.429C1566.67 331.274 1597.02 331.195 1615.9 327.429C1634.79 323.664 1666.38 323.585 1685.6 327.429C1704.81 331.274 1735.16 331.195 1754.01 327.429C1772.86 323.664 1804.49 323.585 1823.7 327.429C1842.91 331.274 1873.27 331.195 1892.32 327.429C1911.36 323.664 1942.76 323.585 1961.97 327.429L1996.51 334.333L1996.05 335.055Z" fill="white" fill-opacity="0.07"/>
<path d="M1996.05 321.873L1961.52 314.969C1942.66 311.188 1911.95 311.188 1893.1 314.969C1874.25 318.751 1842.62 318.814 1823.41 314.969C1804.2 311.125 1773.84 311.188 1754.8 314.969C1735.75 318.751 1704.35 318.814 1685.14 314.969C1665.93 311.125 1635.57 311.188 1616.69 314.969C1597.8 318.751 1566.21 318.814 1547 314.969C1527.79 311.125 1497.43 311.188 1478.58 314.969C1459.73 318.751 1428.1 318.814 1408.89 314.969C1389.68 311.125 1359.33 311.188 1340.28 314.969C1321.23 318.751 1289.8 318.814 1270.59 314.969C1251.38 311.125 1221.02 311.188 1201.97 314.969C1182.93 318.751 1151.53 318.814 1132.28 314.969C1113.04 311.125 1082.72 311.188 1063.87 314.969C1045.01 318.751 1013.35 318.814 994.143 314.969L959.608 308.066L960.229 307.328L994.764 314.248C1013.65 318.013 1044.36 318.013 1063.21 314.248C1082.07 310.482 1113.69 310.403 1132.94 314.248C1152.18 318.092 1182.5 318.013 1201.35 314.248C1220.21 310.482 1251.83 310.403 1271.04 314.248C1290.26 318.092 1320.64 318.013 1339.66 314.248C1358.67 310.482 1390.14 310.403 1409.35 314.248C1428.56 318.092 1458.91 318.013 1477.76 314.248C1496.62 310.482 1528.24 310.403 1547.46 314.248C1566.67 318.092 1597.02 318.013 1615.9 314.248C1634.79 310.482 1666.38 310.403 1685.6 314.248C1704.81 318.092 1735.16 318.013 1754.01 314.248C1772.86 310.482 1804.49 310.403 1823.7 314.248C1842.91 318.092 1873.27 318.013 1892.32 314.248C1911.36 310.482 1942.76 310.403 1961.97 314.248L1996.51 321.152L1996.05 321.873Z" fill="white" fill-opacity="0.07"/>
<path d="M1996.05 308.696L1961.52 301.792C1942.66 298.01 1911.95 298.01 1893.1 301.792C1874.25 305.573 1842.62 305.636 1823.41 301.792C1804.2 297.948 1773.84 298.01 1754.8 301.792C1735.75 305.573 1704.35 305.636 1685.14 301.792C1665.93 297.948 1635.57 298.01 1616.69 301.792C1597.8 305.573 1566.21 305.636 1547 301.792C1527.79 297.948 1497.43 298.01 1478.58 301.792C1459.73 305.573 1428.1 305.636 1408.89 301.792C1389.68 297.948 1359.33 298.01 1340.28 301.792C1321.23 305.573 1289.8 305.636 1270.59 301.792C1251.38 297.948 1221.02 298.01 1201.97 301.792C1182.93 305.573 1151.53 305.636 1132.28 301.792C1113.04 297.948 1082.72 298.01 1063.87 301.792C1045.01 305.573 1013.35 305.636 994.143 301.792L959.608 294.888L960.229 294.15L995.254 301.039C1014.14 304.804 1044.85 304.804 1063.7 301.039C1082.56 297.273 1114.18 297.194 1133.43 301.039C1152.67 304.883 1182.99 304.804 1201.84 301.039C1220.7 297.273 1252.32 297.194 1271.53 301.039C1290.75 304.883 1321.13 304.804 1340.15 301.039C1359.16 297.273 1390.63 297.194 1409.84 301.039C1429.05 304.883 1459.4 304.82 1478.25 301.039C1497.11 297.257 1528.73 297.194 1547.95 301.039C1567.16 304.883 1597.51 304.804 1616.39 301.039C1635.28 297.273 1666.87 297.194 1686.09 301.039C1705.3 304.883 1735.65 304.804 1754.5 301.039C1773.35 297.273 1804.98 297.194 1824.19 301.039C1843.4 304.883 1873.76 304.804 1892.81 301.039C1911.85 297.273 1943.25 297.194 1962.46 301.039L1997 307.943L1996.05 308.696Z" fill="white" fill-opacity="0.07"/>
<path d="M1996.05 295.514L1961.52 288.61C1942.66 284.829 1911.95 284.829 1893.1 288.61C1874.25 292.392 1842.62 292.454 1823.41 288.61C1804.2 284.766 1773.84 284.829 1754.8 288.61C1735.75 292.392 1704.35 292.454 1685.14 288.61C1665.93 284.766 1635.57 284.829 1616.69 288.61C1597.8 292.392 1566.21 292.454 1547 288.61C1527.79 284.766 1497.43 284.829 1478.58 288.61C1459.73 292.392 1428.1 292.454 1408.89 288.61C1389.68 284.766 1359.33 284.829 1340.28 288.61C1321.23 292.392 1289.8 292.454 1270.59 288.61C1251.38 284.766 1221.02 284.829 1201.97 288.61C1182.93 292.392 1151.53 292.454 1132.28 288.61C1113.04 284.766 1082.72 284.829 1063.87 288.61C1045.01 292.392 1013.35 292.454 994.143 288.61L959.608 281.706L960.229 280.984L994.764 287.888C1013.65 291.67 1044.36 291.67 1063.21 287.888C1082.07 284.107 1113.69 284.044 1132.94 287.888C1152.18 291.733 1182.5 291.67 1201.35 287.888C1220.21 284.107 1251.83 284.044 1271.04 287.888C1290.26 291.733 1320.64 291.67 1339.66 287.888C1358.67 284.107 1390.14 284.044 1409.35 287.888C1428.56 291.733 1458.91 291.67 1477.76 287.888C1496.62 284.107 1528.24 284.044 1547.46 287.888C1566.67 291.733 1597.02 291.67 1615.9 287.888C1634.79 284.107 1666.38 284.044 1685.6 287.888C1704.81 291.733 1735.16 291.67 1754.01 287.888C1772.86 284.107 1804.49 284.044 1823.7 287.888C1842.91 291.733 1873.27 291.67 1892.32 287.888C1911.36 284.107 1942.76 284.044 1961.97 287.888L1996.51 294.792L1996.05 295.514Z" fill="white" fill-opacity="0.07"/>
<path d="M1996.05 282.35L1961.52 275.43C1942.66 271.665 1911.95 271.665 1893.1 275.43C1874.25 279.196 1842.62 279.275 1823.41 275.43C1804.2 271.586 1773.84 271.665 1754.8 275.43C1735.75 279.196 1704.35 279.275 1685.14 275.43C1665.93 271.586 1635.57 271.665 1616.69 275.43C1597.8 279.196 1566.21 279.275 1547 275.43C1527.79 271.586 1497.43 271.665 1478.58 275.43C1459.73 279.196 1428.1 279.275 1408.89 275.43C1389.68 271.586 1359.33 271.665 1340.28 275.43C1321.23 279.196 1289.8 279.275 1270.59 275.43C1251.38 271.586 1221.02 271.665 1201.97 275.43C1182.93 279.196 1151.53 279.275 1132.28 275.43C1113.04 271.586 1082.72 271.665 1063.87 275.43C1045.01 279.196 1013.35 279.275 994.143 275.43L959.608 268.526L960.229 267.805L994.764 274.709C1013.65 278.49 1044.36 278.49 1063.21 274.709C1082.07 270.927 1113.69 270.864 1132.94 274.709C1152.18 278.553 1182.5 278.49 1201.35 274.709C1220.21 270.927 1251.83 270.864 1271.04 274.709C1290.26 278.553 1320.64 278.49 1339.66 274.709C1358.67 270.927 1390.14 270.864 1409.35 274.709C1428.56 278.553 1458.91 278.49 1477.76 274.709C1496.62 270.927 1528.24 270.864 1547.46 274.709C1566.67 278.553 1597.02 278.49 1615.9 274.709C1634.79 270.927 1666.38 270.864 1685.6 274.709C1704.81 278.553 1735.16 278.49 1754.01 274.709C1772.86 270.927 1804.49 270.864 1823.7 274.709C1842.91 278.553 1873.27 278.49 1892.32 274.709C1911.36 270.927 1942.76 270.864 1961.97 274.709L1996.51 281.612L1996.05 282.35Z" fill="white" fill-opacity="0.07"/>
<path d="M1996.05 269.17L1961.52 262.251C1942.66 258.485 1911.95 258.485 1893.1 262.251C1874.25 266.017 1842.62 266.095 1823.41 262.251C1804.2 258.407 1773.84 258.485 1754.8 262.251C1735.75 266.017 1704.35 266.095 1685.14 262.251C1665.93 258.407 1635.57 258.485 1616.69 262.251C1597.8 266.017 1566.21 266.095 1547 262.251C1527.79 258.407 1497.43 258.485 1478.58 262.251C1459.73 266.017 1428.1 266.095 1408.89 262.251C1389.68 258.407 1359.33 258.485 1340.28 262.251C1321.23 266.017 1289.8 266.095 1270.59 262.251C1251.38 258.407 1221.02 258.485 1201.97 262.251C1182.93 266.017 1151.53 266.095 1132.28 262.251C1113.04 258.407 1082.72 258.485 1063.87 262.251C1045.01 266.017 1013.35 266.095 994.143 262.251L959.608 255.347L960.229 254.625L994.764 261.529C1013.65 265.31 1044.36 265.31 1063.21 261.529C1082.07 257.747 1113.69 257.685 1132.94 261.529C1152.18 265.373 1182.5 265.31 1201.35 261.529C1220.21 257.747 1251.83 257.685 1271.04 261.529C1290.26 265.373 1320.64 265.31 1339.66 261.529C1358.67 257.747 1390.14 257.685 1409.35 261.529C1428.56 265.373 1458.91 265.31 1477.76 261.529C1496.62 257.747 1528.24 257.685 1547.46 261.529C1566.67 265.373 1597.02 265.31 1615.9 261.529C1634.79 257.747 1666.38 257.685 1685.6 261.529C1704.81 265.373 1735.16 265.31 1754.01 261.529C1772.86 257.747 1804.49 257.685 1823.7 261.529C1842.91 265.373 1873.27 265.31 1892.32 261.529C1911.36 257.747 1942.76 257.685 1961.97 261.529L1996.51 268.433L1996.05 269.17Z" fill="white" fill-opacity="0.07"/>
<path d="M1996.05 255.989L1961.52 249.069C1942.66 245.303 1911.95 245.303 1893.1 249.069C1874.25 252.835 1842.62 252.913 1823.41 249.069C1804.2 245.225 1773.84 245.303 1754.8 249.069C1735.75 252.835 1704.35 252.913 1685.14 249.069C1665.93 245.225 1635.57 245.303 1616.69 249.069C1597.8 252.835 1566.21 252.913 1547 249.069C1527.79 245.225 1497.43 245.303 1478.58 249.069C1459.73 252.835 1428.1 252.913 1408.89 249.069C1389.68 245.225 1359.33 245.303 1340.28 249.069C1321.23 252.835 1289.8 252.913 1270.59 249.069C1251.38 245.225 1221.02 245.303 1201.97 249.069C1182.93 252.835 1151.5 252.913 1132.28 249.069C1113.07 245.225 1082.72 245.303 1063.87 249.069C1045.01 252.835 1013.35 252.913 994.143 249.069L959.608 242.165L960.229 241.443L994.764 248.347C1013.65 252.129 1044.36 252.129 1063.21 248.347C1082.07 244.566 1113.69 244.503 1132.94 248.347C1152.18 252.191 1182.5 252.129 1201.35 248.347C1220.21 244.566 1251.83 244.503 1271.04 248.347C1290.26 252.191 1320.64 252.129 1339.66 248.347C1358.67 244.566 1390.14 244.503 1409.35 248.347C1428.56 252.191 1458.91 252.129 1477.76 248.347C1496.62 244.566 1528.24 244.503 1547.46 248.347C1566.67 252.191 1597.02 252.129 1615.9 248.347C1634.79 244.566 1666.38 244.503 1685.6 248.347C1704.81 252.191 1735.16 252.129 1754.01 248.347C1772.86 244.566 1804.49 244.503 1823.7 248.347C1842.91 252.191 1873.27 252.129 1892.32 248.347C1911.36 244.566 1942.76 244.503 1961.97 248.347L1996.51 255.267L1996.05 255.989Z" fill="white" fill-opacity="0.07"/>
<path d="M1996.05 242.809L1961.52 235.905C1942.66 232.124 1911.95 232.124 1893.1 235.905C1874.25 239.686 1842.62 239.749 1823.41 235.905C1804.2 232.061 1773.84 232.124 1754.8 235.905C1735.75 239.686 1704.35 239.749 1685.14 235.905C1665.93 232.061 1635.57 232.124 1616.69 235.905C1597.8 239.686 1566.21 239.749 1547 235.905C1527.79 232.061 1497.43 232.124 1478.58 235.905C1459.73 239.686 1428.1 239.749 1408.89 235.905C1389.68 232.061 1359.33 232.124 1340.28 235.905C1321.23 239.686 1289.8 239.749 1270.59 235.905C1251.38 232.061 1221.02 232.124 1201.97 235.905C1182.93 239.686 1151.5 239.749 1132.28 235.905C1113.07 232.061 1082.72 232.124 1063.87 235.905C1045.01 239.686 1013.35 239.749 994.143 235.905L959.608 228.985L960.229 228.264L994.764 235.168C1013.65 238.949 1044.36 238.949 1063.21 235.168C1082.07 231.386 1113.69 231.323 1132.94 235.168C1152.18 239.012 1182.5 238.949 1201.35 235.168C1220.21 231.386 1251.83 231.323 1271.04 235.168C1290.26 239.012 1320.64 238.949 1339.66 235.168C1358.67 231.386 1390.14 231.323 1409.35 235.168C1428.56 239.012 1458.91 238.949 1477.76 235.168C1496.62 231.386 1528.24 231.323 1547.46 235.168C1566.67 239.012 1597.02 238.949 1615.9 235.168C1634.79 231.386 1666.38 231.323 1685.6 235.168C1704.81 239.012 1735.16 238.949 1754.01 235.168C1772.86 231.386 1804.49 231.323 1823.7 235.168C1842.91 239.012 1873.27 238.949 1892.32 235.168C1911.36 231.386 1942.76 231.323 1961.97 235.168L1996.51 242.087L1996.05 242.809Z" fill="white" fill-opacity="0.07"/>
<path d="M1996.05 229.629L1961.52 222.725C1942.66 218.944 1911.95 218.944 1893.1 222.725C1874.25 226.507 1842.62 226.57 1823.41 222.725C1804.2 218.881 1773.84 218.944 1754.8 222.725C1735.75 226.507 1704.35 226.57 1685.14 222.725C1665.93 218.881 1635.57 218.944 1616.69 222.725C1597.8 226.507 1566.21 226.57 1547 222.725C1527.79 218.881 1497.43 218.944 1478.58 222.725C1459.73 226.507 1428.1 226.57 1408.89 222.725C1389.68 218.881 1359.33 218.944 1340.28 222.725C1321.23 226.507 1289.8 226.57 1270.59 222.725C1251.38 218.881 1221.02 218.944 1201.97 222.725C1182.93 226.507 1151.5 226.57 1132.28 222.725C1113.07 218.881 1082.72 218.944 1063.87 222.725C1045.01 226.507 1013.35 226.57 994.143 222.725L959.608 215.806L960.229 215.084L994.764 221.988C1013.65 225.769 1044.36 225.769 1063.21 221.988C1082.07 218.206 1113.69 218.144 1132.94 221.988C1152.18 225.832 1182.5 225.769 1201.35 221.988C1220.21 218.206 1251.83 218.144 1271.04 221.988C1290.26 225.832 1320.64 225.769 1339.66 221.988C1358.67 218.206 1390.14 218.144 1409.35 221.988C1428.56 225.832 1458.91 225.769 1477.76 221.988C1496.62 218.206 1528.24 218.144 1547.46 221.988C1566.67 225.832 1597.02 225.769 1615.9 221.988C1634.79 218.206 1666.38 218.144 1685.6 221.988C1704.81 225.832 1735.16 225.769 1754.01 221.988C1772.86 218.206 1804.49 218.144 1823.7 221.988C1842.91 225.832 1873.27 225.769 1892.32 221.988C1911.36 218.206 1942.76 218.144 1961.97 221.988L1996.67 228.86L1996.05 229.629Z" fill="white" fill-opacity="0.07"/>
<path d="M1996.05 216.448L1961.52 209.544C1942.66 205.762 1911.95 205.762 1893.1 209.544C1874.25 213.325 1842.62 213.388 1823.41 209.544C1804.2 205.699 1773.84 205.762 1754.8 209.544C1735.75 213.325 1704.35 213.388 1685.14 209.544C1665.93 205.699 1635.57 205.762 1616.69 209.544C1597.8 213.325 1566.21 213.388 1547 209.544C1527.79 205.699 1497.43 205.762 1478.58 209.544C1459.73 213.325 1428.1 213.388 1408.89 209.544C1389.68 205.699 1359.33 205.762 1340.28 209.544C1321.23 213.325 1289.8 213.388 1270.59 209.544C1251.38 205.699 1221.02 205.762 1201.97 209.544C1182.93 213.325 1151.5 213.388 1132.28 209.544C1113.07 205.699 1082.72 205.762 1063.87 209.544C1045.01 213.325 1013.35 213.388 994.143 209.544L959.608 202.624L960.229 201.902L994.764 208.822C1013.65 212.588 1044.36 212.588 1063.21 208.822C1082.07 205.056 1113.69 204.978 1132.94 208.822C1152.18 212.666 1182.5 212.588 1201.35 208.822C1220.21 205.056 1251.83 204.978 1271.04 208.822C1290.26 212.666 1320.64 212.588 1339.66 208.822C1358.67 205.056 1390.14 204.978 1409.35 208.822C1428.56 212.666 1458.91 212.588 1477.76 208.822C1496.62 205.056 1528.24 204.978 1547.46 208.822C1566.67 212.666 1597.02 212.588 1615.9 208.822C1634.79 205.056 1666.38 204.978 1685.6 208.822C1704.81 212.666 1735.16 212.588 1754.01 208.822C1772.86 205.056 1804.49 204.978 1823.7 208.822C1842.91 212.666 1873.27 212.588 1892.32 208.822C1911.36 205.056 1942.76 204.978 1961.97 208.822L1996.51 215.726L1996.05 216.448Z" fill="white" fill-opacity="0.07"/>
<path d="M1996.05 203.268L1961.52 196.364C1942.66 192.583 1911.95 192.583 1893.1 196.364C1874.25 200.145 1842.62 200.208 1823.41 196.364C1804.2 192.52 1773.84 192.583 1754.8 196.364C1735.75 200.145 1704.35 200.208 1685.14 196.364C1665.93 192.52 1635.57 192.583 1616.69 196.364C1597.8 200.145 1566.21 200.208 1547 196.364C1527.79 192.52 1497.43 192.583 1478.58 196.364C1459.73 200.145 1428.1 200.208 1408.89 196.364C1389.68 192.52 1359.33 192.583 1340.28 196.364C1321.23 200.145 1289.8 200.208 1270.59 196.364C1251.38 192.52 1221.02 192.583 1201.97 196.364C1182.93 200.145 1151.5 200.208 1132.28 196.364C1113.07 192.52 1082.72 192.583 1063.87 196.364C1045.01 200.145 1013.35 200.208 994.143 196.364L959.608 189.444L960.229 188.723L994.764 195.642C1013.65 199.408 1044.36 199.408 1063.21 195.642C1082.07 191.877 1113.69 191.798 1132.94 195.642C1152.18 199.487 1182.5 199.408 1201.35 195.642C1220.21 191.877 1251.83 191.798 1271.04 195.642C1290.26 199.487 1320.64 199.408 1339.66 195.642C1358.67 191.877 1390.14 191.798 1409.35 195.642C1428.56 199.487 1458.91 199.408 1477.76 195.642C1496.62 191.877 1528.24 191.798 1547.46 195.642C1566.67 199.487 1597.02 199.408 1615.9 195.642C1634.79 191.877 1666.38 191.798 1685.6 195.642C1704.81 199.487 1735.16 199.408 1754.01 195.642C1772.86 191.877 1804.49 191.798 1823.7 195.642C1842.91 199.487 1873.27 199.408 1892.32 195.642C1911.36 191.877 1942.76 191.798 1961.97 195.642L1996.51 202.546L1996.05 203.268Z" fill="white" fill-opacity="0.07"/>
<path d="M1996.05 190.088L1961.52 183.184C1942.66 179.403 1911.95 179.403 1893.1 183.184C1874.25 186.966 1842.62 187.029 1823.41 183.184C1804.2 179.34 1773.84 179.403 1754.8 183.184C1735.75 186.966 1704.35 187.029 1685.14 183.184C1665.93 179.34 1635.57 179.403 1616.69 183.184C1597.8 186.966 1566.21 187.029 1547 183.184C1527.79 179.34 1497.43 179.403 1478.58 183.184C1459.73 186.966 1428.1 187.029 1408.89 183.184C1389.68 179.34 1359.33 179.403 1340.28 183.184C1321.23 186.966 1289.8 187.029 1270.59 183.184C1251.38 179.34 1221.02 179.403 1201.97 183.184C1182.93 186.966 1151.5 187.029 1132.28 183.184C1113.07 179.34 1082.72 179.403 1063.87 183.184C1045.01 186.966 1013.35 187.029 994.143 183.184L959.608 176.28L960.229 175.543L994.764 182.463C1013.65 186.228 1044.36 186.228 1063.21 182.463C1082.07 178.697 1113.69 178.618 1132.94 182.463C1152.18 186.307 1182.5 186.228 1201.35 182.463C1220.21 178.697 1251.83 178.618 1271.04 182.463C1290.26 186.307 1320.64 186.228 1339.66 182.463C1358.67 178.697 1390.14 178.618 1409.35 182.463C1428.56 186.307 1458.91 186.228 1477.76 182.463C1496.62 178.697 1528.24 178.618 1547.46 182.463C1566.67 186.307 1597.02 186.228 1615.9 182.463C1634.79 178.697 1666.38 178.618 1685.6 182.463C1704.81 186.307 1735.16 186.228 1754.01 182.463C1772.86 178.697 1804.49 178.618 1823.7 182.463C1842.91 186.307 1873.27 186.228 1892.32 182.463C1911.36 178.697 1942.76 178.618 1961.97 182.463L1996.51 189.366L1996.05 190.088Z" fill="white" fill-opacity="0.07"/>
<path d="M1996.05 176.907L1961.52 170.003C1942.66 166.221 1911.95 166.221 1893.1 170.003C1874.25 173.784 1842.62 173.847 1823.41 170.003C1804.2 166.158 1773.84 166.221 1754.8 170.003C1735.75 173.784 1704.35 173.847 1685.14 170.003C1665.93 166.158 1635.57 166.221 1616.69 170.003C1597.8 173.784 1566.21 173.847 1547 170.003C1527.79 166.158 1497.43 166.221 1478.58 170.003C1459.73 173.784 1428.1 173.847 1408.89 170.003C1389.68 166.158 1359.33 166.221 1340.28 170.003C1321.23 173.784 1289.8 173.847 1270.59 170.003C1251.38 166.158 1221.02 166.221 1201.97 170.003C1182.93 173.784 1151.53 173.847 1132.28 170.003C1113.04 166.158 1082.72 166.221 1063.87 170.003C1045.01 173.784 1013.35 173.847 994.143 170.003L959.608 163.099L960.229 162.361L995.254 169.234C1014.14 173.015 1044.85 173.015 1063.7 169.234C1082.56 165.452 1114.18 165.39 1133.43 169.234C1152.67 173.078 1182.99 173.015 1201.84 169.234C1220.7 165.452 1252.32 165.39 1271.53 169.234C1290.75 173.078 1321.13 173 1340.15 169.234C1359.16 165.468 1390.63 165.39 1409.84 169.234C1429.05 173.078 1459.4 173.015 1478.25 169.234C1497.11 165.452 1528.73 165.39 1547.95 169.234C1567.16 173.078 1597.51 173 1616.39 169.234C1635.28 165.468 1666.87 165.39 1686.09 169.234C1705.3 173.078 1735.65 173.015 1754.5 169.234C1773.35 165.452 1804.98 165.39 1824.19 169.234C1843.4 173.078 1873.76 173.015 1892.81 169.234C1911.85 165.452 1943.25 165.39 1962.46 169.234L1997 176.138L1996.05 176.907Z" fill="white" fill-opacity="0.07"/>
</g>
</svg>
