<svg width="25" height="24" viewBox="0 0 25 24" fill="none" xmlns="http://www.w3.org/2000/svg">
<path opacity="0.4" d="M12.9985 2C10.3785 2 8.24854 4.13 8.24854 6.75C8.24854 9.32 10.2585 11.4 12.8785 11.49C12.9585 11.48 13.0385 11.48 13.0985 11.49C13.1185 11.49 13.1285 11.49 13.1485 11.49C13.1585 11.49 13.1585 11.49 13.1685 11.49C15.7285 11.4 17.7385 9.32 17.7485 6.75C17.7485 4.13 15.6185 2 12.9985 2Z" fill="white"/>
<path d="M18.0785 14.1499C15.2885 12.2899 10.7385 12.2899 7.9285 14.1499C6.6585 14.9999 5.9585 16.1499 5.9585 17.3799C5.9585 18.6099 6.6585 19.7499 7.9185 20.5899C9.3185 21.5299 11.1585 21.9999 12.9985 21.9999C14.8385 21.9999 16.6785 21.5299 18.0785 20.5899C19.3385 19.7399 20.0385 18.5999 20.0385 17.3599C20.0285 16.1299 19.3385 14.9899 18.0785 14.1499Z" fill="white"/>
</svg>
