<svg width="95" height="95" viewBox="0 0 95 95" fill="none" xmlns="http://www.w3.org/2000/svg">
<circle cx="47.2611" cy="47.2611" r="47.2611" fill="white"/>
<path d="M60.3698 37.3648C64.5485 43.4667 66.6122 50.3496 65.8407 58.2733C65.8375 58.3068 65.8199 58.3376 65.7921 58.3578C62.6277 60.6656 59.5618 62.0661 56.5389 62.9949C56.5154 63.002 56.4902 63.0016 56.4669 62.9938C56.4436 62.9859 56.4233 62.9711 56.409 62.9513C55.7106 61.9862 55.076 60.9687 54.5201 59.9003C54.4882 59.8374 54.5173 59.7616 54.583 59.7368C55.5908 59.3596 56.5491 58.9076 57.4709 58.3725C57.5435 58.3302 57.5481 58.2269 57.481 58.1773C57.2854 58.033 57.0916 57.8815 56.9061 57.7299C56.8715 57.7019 56.8247 57.6963 56.7854 57.7152C50.8012 60.4598 44.2457 60.4598 38.1906 57.7152C38.1513 57.6977 38.1046 57.7037 38.0709 57.7313C37.8859 57.8828 37.6916 58.033 37.4978 58.1773C37.4308 58.2269 37.4363 58.3302 37.5094 58.3725C38.4311 58.8975 39.3894 59.3596 40.3958 59.7386C40.4611 59.7634 40.492 59.8374 40.4597 59.9003C39.9158 60.9701 39.2812 61.9875 38.5699 62.9526C38.5389 62.9917 38.488 63.0096 38.4399 62.9949C35.4314 62.0661 32.3655 60.6656 29.201 58.3578C29.1747 58.3376 29.1557 58.3054 29.1529 58.2719C28.5082 51.418 29.8222 44.4782 34.6188 37.3634C34.6303 37.3446 34.6479 37.3299 34.6683 37.3212C37.0284 36.2454 39.5569 35.4539 42.1996 35.0019C42.2477 34.9946 42.2958 35.0166 42.3208 35.0589C42.6473 35.6331 43.0205 36.3694 43.2731 36.9711C46.0587 36.5486 48.8878 36.5486 51.7317 36.9711C51.9842 36.3823 52.3445 35.6331 52.6696 35.0589C52.6812 35.0379 52.6992 35.0211 52.7209 35.0109C52.7427 35.0007 52.7672 34.9975 52.7908 35.0019C55.4349 35.4553 57.9634 36.2468 60.3217 37.3212C60.3425 37.3299 60.3596 37.3446 60.3698 37.3648ZM44.6892 50.3964C44.7184 48.3703 43.231 46.6936 41.3639 46.6936C39.512 46.6936 38.0389 48.3556 38.0389 50.3964C38.0389 52.4368 39.5411 54.0988 41.3639 54.0988C43.2162 54.0988 44.6892 52.4368 44.6892 50.3964ZM56.9834 50.3964C57.0125 48.3703 55.5251 46.6936 53.6585 46.6936C51.8062 46.6936 50.3331 48.3556 50.3331 50.3964C50.3331 52.4368 51.8353 54.0988 53.6585 54.0988C55.5251 54.0988 56.9834 52.4368 56.9834 50.3964Z" fill="#0393FB"/>
</svg>
