<svg width="626" height="422" viewBox="0 0 626 422" fill="none" xmlns="http://www.w3.org/2000/svg">
<path d="M588.76 487.772C576.096 515.234 560.182 541.89 541.016 567.728C438.165 706.411 309.964 853.177 207 991.78C157.75 925.038 100.038 853.517 42.2015 782.098C-15.6464 710.668 -73.6302 639.351 -123.436 573.03C-184.149 492.188 -216.658 401.754 -211.459 300.705C-203.904 153.621 -140.257 41.6737 -24.1871 -35.0355C-24.2437 -34.3203 -24.2664 -33.5596 -24.2664 -32.765C-24.0738 108.393 -24.0512 249.55 -24.3117 390.708C-24.323 398.155 -21.7517 401.788 -15.5784 405.353C105.871 475.523 227.208 545.92 348.533 616.317C351.184 617.85 353.563 619.871 356.066 621.653H359.51C377.656 610.8 395.677 599.731 413.971 589.116C472.215 555.309 530.471 521.512 588.76 487.772Z" fill="white" fill-opacity="0.05"/>
<path d="M332.132 201.473C331.894 313.556 331.962 425.64 331.962 537.713V546.295C328.281 544.354 325.777 543.162 323.387 541.777C227.084 485.945 130.791 430.079 34.4424 374.327C29.8888 371.693 27.3629 369.116 27.3742 363.122C27.6007 250.47 27.5441 137.808 27.5554 25.1562C27.5554 23.2036 27.714 21.2396 27.8499 18.2084C30.9762 19.7637 33.5022 20.8422 35.8469 22.2045C132.173 78.0023 228.465 133.857 324.837 189.575C329.708 192.391 332.154 195.251 332.132 201.473Z" fill="white" fill-opacity="0.05"/>
<path d="M531.286 48.4515C476.157 80.3862 421.05 112.344 366 144.415C359.985 147.923 355.749 147.934 349.723 144.415C254.269 88.8325 158.667 33.5229 63.1001 -21.8662C60.4042 -23.4329 57.7763 -25.1358 54.2875 -27.2701C57.1646 -29.1432 59.3394 -30.6985 61.6502 -32.0381C104.15 -56.6959 146.672 -81.3423 189.171 -106H193.329C224.977 -106 256.602 -103.4 287.741 -97.7694C292.532 -96.9066 297.301 -95.9643 302.047 -94.9199C392.381 -75.0529 473.144 -22.6042 531.275 48.4515H531.286Z" fill="white" fill-opacity="0.05"/>
<path d="M614.835 412.823C539.645 456.337 464.49 499.942 389.323 543.513C387.907 544.331 386.366 544.955 383.885 546.17C383.75 543.286 383.636 541.844 383.636 540.414C383.625 427.195 383.636 313.965 383.534 200.746C383.534 195.944 384.746 193.117 389.187 190.562C446.74 157.322 504.259 124.014 561.767 90.694C590.799 136.57 611.052 188.031 619.819 242.182C629.47 301.772 627.827 358.694 614.835 412.823Z" fill="white" fill-opacity="0.05"/>
</svg>
