<svg width="691" height="60" viewBox="0 0 691 60" fill="none" xmlns="http://www.w3.org/2000/svg">
<path d="M27.5227 7.45455V22H25.7614V7.45455H27.5227ZM35.1714 11.0909V12.5114H29.518V11.0909H35.1714ZM31.1657 8.47727H32.8418V18.875C32.8418 19.3485 32.9105 19.7036 33.0478 19.9403C33.1898 20.1723 33.3698 20.3286 33.5876 20.4091C33.8101 20.4848 34.0445 20.5227 34.2907 20.5227C34.4754 20.5227 34.6269 20.5133 34.7452 20.4943C34.8636 20.4706 34.9583 20.4517 35.0293 20.4375L35.3702 21.9432C35.2566 21.9858 35.098 22.0284 34.8944 22.071C34.6908 22.1184 34.4327 22.142 34.1202 22.142C33.6468 22.142 33.1827 22.0402 32.7282 21.8366C32.2784 21.633 31.9043 21.3229 31.606 20.9062C31.3125 20.4896 31.1657 19.964 31.1657 19.3295V8.47727ZM39.3364 7.45455V8.73295C39.3364 9.12121 39.2653 9.53551 39.1233 9.97585C38.986 10.4115 38.7824 10.8352 38.5125 11.2472C38.2473 11.6544 37.9254 12.0095 37.5466 12.3125L36.6375 11.5739C36.9358 11.1477 37.1938 10.705 37.4116 10.2457C37.6342 9.78172 37.7455 9.28693 37.7455 8.76136V7.45455H39.3364ZM47.3348 13.5341L45.8291 13.9602C45.7344 13.7093 45.5947 13.4654 45.4101 13.2287C45.2302 12.9872 44.9839 12.7884 44.6714 12.6321C44.3589 12.4759 43.9589 12.3977 43.4712 12.3977C42.8036 12.3977 42.2472 12.5516 41.8021 12.8594C41.3618 13.1624 41.1416 13.5483 41.1416 14.017C41.1416 14.4337 41.2931 14.7628 41.5962 15.0043C41.8992 15.2457 42.3727 15.447 43.0166 15.608L44.6359 16.0057C45.6113 16.2424 46.3381 16.6046 46.8163 17.0923C47.2946 17.5753 47.5337 18.1979 47.5337 18.9602C47.5337 19.5852 47.3537 20.1439 46.9939 20.6364C46.6388 21.1288 46.1416 21.517 45.5024 21.8011C44.8632 22.0852 44.1198 22.2273 43.2723 22.2273C42.1596 22.2273 41.2387 21.9858 40.5095 21.5028C39.7804 21.0199 39.3187 20.3144 39.1246 19.3864L40.7155 18.9886C40.867 19.5758 41.1535 20.0161 41.5749 20.3097C42.001 20.6032 42.5573 20.75 43.2439 20.75C44.0251 20.75 44.6454 20.5843 45.1047 20.2528C45.5687 19.9167 45.8007 19.5142 45.8007 19.0455C45.8007 18.6667 45.6681 18.3494 45.403 18.0938C45.1378 17.8333 44.7306 17.6392 44.1814 17.5114L42.3632 17.0852C41.3642 16.8485 40.6303 16.4815 40.1615 15.9844C39.6975 15.4825 39.4655 14.8551 39.4655 14.1023C39.4655 13.4867 39.6383 12.9422 39.9839 12.4688C40.3343 11.9953 40.8102 11.6236 41.4115 11.3537C42.0176 11.0838 42.7041 10.9489 43.4712 10.9489C44.5507 10.9489 45.3982 11.1856 46.0138 11.6591C46.634 12.1326 47.0744 12.7576 47.3348 13.5341ZM58.092 22.2557C57.4007 22.2557 56.7733 22.1255 56.2099 21.8651C55.6464 21.5999 55.199 21.2188 54.8675 20.7216C54.5361 20.2197 54.3704 19.6136 54.3704 18.9034C54.3704 18.2784 54.4935 17.7718 54.7397 17.3835C54.9859 16.9905 55.315 16.6828 55.7269 16.4602C56.1388 16.2377 56.5934 16.072 57.0906 15.9631C57.5924 15.8494 58.0967 15.7595 58.6033 15.6932C59.2662 15.608 59.8036 15.544 60.2156 15.5014C60.6322 15.4541 60.9353 15.3759 61.1246 15.267C61.3188 15.1581 61.4158 14.9687 61.4158 14.6989V14.642C61.4158 13.9413 61.2241 13.3968 60.8406 13.0085C60.4618 12.6203 59.8865 12.4261 59.1147 12.4261C58.3145 12.4261 57.6871 12.6013 57.2326 12.9517C56.7781 13.3021 56.4585 13.6761 56.2738 14.0739L54.6829 13.5057C54.967 12.8428 55.3458 12.3267 55.8192 11.9574C56.2975 11.5833 56.8183 11.3229 57.3817 11.1761C57.9499 11.0246 58.5086 10.9489 59.0579 10.9489C59.4083 10.9489 59.8107 10.9915 60.2653 11.0767C60.7246 11.1572 61.1673 11.3253 61.5934 11.581C62.0243 11.8366 62.3817 12.2225 62.6658 12.7386C62.9499 13.2547 63.092 13.946 63.092 14.8125V22H61.4158V20.5227H61.3306C61.217 20.7595 61.0276 21.0128 60.7624 21.2827C60.4973 21.5526 60.1445 21.7822 59.7042 21.9716C59.2638 22.161 58.7264 22.2557 58.092 22.2557ZM58.3477 20.75C59.0105 20.75 59.5692 20.6198 60.0238 20.3594C60.4831 20.099 60.8287 19.7628 61.0607 19.3509C61.2975 18.9389 61.4158 18.5057 61.4158 18.0511V16.517C61.3448 16.6023 61.1886 16.6804 60.9471 16.7514C60.7103 16.8177 60.4357 16.8769 60.1232 16.929C59.8155 16.9763 59.5148 17.0189 59.2212 17.0568C58.9324 17.09 58.698 17.1184 58.5181 17.142C58.0825 17.1989 57.6753 17.2912 57.2965 17.419C56.9225 17.5421 56.6194 17.7292 56.3874 17.9801C56.1602 18.2263 56.0465 18.5625 56.0465 18.9886C56.0465 19.571 56.262 20.0114 56.6928 20.3097C57.1284 20.6032 57.68 20.75 58.3477 20.75ZM65.9785 22V7.45455H67.6547V12.8239H67.7967C67.9198 12.6345 68.0903 12.393 68.3081 12.0994C68.5306 11.8011 68.8479 11.536 69.2598 11.304C69.6765 11.0672 70.2399 10.9489 70.9501 10.9489C71.8687 10.9489 72.6784 11.1785 73.3791 11.6378C74.0799 12.0971 74.6268 12.7481 75.0197 13.5909C75.4127 14.4337 75.6092 15.428 75.6092 16.5739C75.6092 17.7292 75.4127 18.7306 75.0197 19.5781C74.6268 20.4209 74.0822 21.0743 73.3862 21.5384C72.6902 21.9976 71.8876 22.2273 70.9785 22.2273C70.2778 22.2273 69.7167 22.1113 69.2953 21.8793C68.8739 21.6425 68.5496 21.375 68.3223 21.0767C68.095 20.7737 67.9198 20.5227 67.7967 20.3239H67.5979V22H65.9785ZM67.6263 16.5455C67.6263 17.3693 67.747 18.0961 67.9885 18.7259C68.23 19.3509 68.5827 19.8409 69.0467 20.196C69.5107 20.5464 70.0789 20.7216 70.7513 20.7216C71.452 20.7216 72.0368 20.5369 72.5055 20.1676C72.979 19.7936 73.3341 19.2917 73.5709 18.6619C73.8124 18.0275 73.9331 17.322 73.9331 16.5455C73.9331 15.7784 73.8147 15.0871 73.578 14.4716C73.346 13.8513 72.9932 13.3613 72.5197 13.0014C72.051 12.6368 71.4615 12.4545 70.7513 12.4545C70.0695 12.4545 69.4965 12.6274 69.0325 12.973C68.5685 13.3139 68.2181 13.7921 67.9814 14.4077C67.7446 15.0185 67.6263 15.7311 67.6263 16.5455ZM82.205 22.2273C81.2201 22.2273 80.356 21.9929 79.6126 21.5241C78.874 21.0554 78.2964 20.3996 77.8797 19.5568C77.4678 18.714 77.2618 17.7292 77.2618 16.6023C77.2618 15.4659 77.4678 14.474 77.8797 13.6264C78.2964 12.7789 78.874 12.1207 79.6126 11.652C80.356 11.1832 81.2201 10.9489 82.205 10.9489C83.1898 10.9489 84.0516 11.1832 84.7902 11.652C85.5336 12.1207 86.1112 12.7789 86.5232 13.6264C86.9398 14.474 87.1482 15.4659 87.1482 16.6023C87.1482 17.7292 86.9398 18.714 86.5232 19.5568C86.1112 20.3996 85.5336 21.0554 84.7902 21.5241C84.0516 21.9929 83.1898 22.2273 82.205 22.2273ZM82.205 20.7216C82.9531 20.7216 83.5686 20.5298 84.0516 20.1463C84.5345 19.7628 84.892 19.2585 85.124 18.6335C85.356 18.0085 85.472 17.3314 85.472 16.6023C85.472 15.8731 85.356 15.1937 85.124 14.5639C84.892 13.9342 84.5345 13.4252 84.0516 13.0369C83.5686 12.6487 82.9531 12.4545 82.205 12.4545C81.4569 12.4545 80.8413 12.6487 80.3584 13.0369C79.8754 13.4252 79.5179 13.9342 79.2859 14.5639C79.0539 15.1937 78.9379 15.8731 78.9379 16.6023C78.9379 17.3314 79.0539 18.0085 79.2859 18.6335C79.5179 19.2585 79.8754 19.7628 80.3584 20.1463C80.8413 20.5298 81.4569 20.7216 82.205 20.7216ZM96.1817 17.5398V11.0909H97.8579V22H96.1817V20.1534H96.0681C95.8124 20.7074 95.4147 21.1785 94.8749 21.5668C94.3352 21.9503 93.6533 22.142 92.8295 22.142C92.1477 22.142 91.5416 21.9929 91.0113 21.6946C90.481 21.3916 90.0643 20.937 89.7613 20.331C89.4583 19.7202 89.3067 18.9508 89.3067 18.0227V11.0909H90.9829V17.9091C90.9829 18.7045 91.2054 19.339 91.6505 19.8125C92.1003 20.286 92.6732 20.5227 93.3692 20.5227C93.7859 20.5227 94.2097 20.4162 94.6406 20.2031C95.0762 19.9901 95.4407 19.6634 95.7343 19.223C96.0326 18.7827 96.1817 18.2216 96.1817 17.5398ZM105.272 11.0909V12.5114H99.6188V11.0909H105.272ZM101.266 8.47727H102.943V18.875C102.943 19.3485 103.011 19.7036 103.149 19.9403C103.291 20.1723 103.471 20.3286 103.688 20.4091C103.911 20.4848 104.145 20.5227 104.391 20.5227C104.576 20.5227 104.728 20.5133 104.846 20.4943C104.964 20.4706 105.059 20.4517 105.13 20.4375L105.471 21.9432C105.357 21.9858 105.199 22.0284 104.995 22.071C104.792 22.1184 104.534 22.142 104.221 22.142C103.748 22.142 103.284 22.0402 102.829 21.8366C102.379 21.633 102.005 21.3229 101.707 20.9062C101.413 20.4896 101.266 19.964 101.266 19.3295V8.47727ZM117.363 11.0909V12.5114H111.709V11.0909H117.363ZM113.357 8.47727H115.033V18.875C115.033 19.3485 115.102 19.7036 115.239 19.9403C115.381 20.1723 115.561 20.3286 115.779 20.4091C116.002 20.4848 116.236 20.5227 116.482 20.5227C116.667 20.5227 116.818 20.5133 116.937 20.4943C117.055 20.4706 117.15 20.4517 117.221 20.4375L117.562 21.9432C117.448 21.9858 117.289 22.0284 117.086 22.071C116.882 22.1184 116.624 22.142 116.312 22.142C115.838 22.142 115.374 22.0402 114.92 21.8366C114.47 21.633 114.096 21.3229 113.797 20.9062C113.504 20.4896 113.357 19.964 113.357 19.3295V8.47727ZM119.484 22V11.0909H121.16V22H119.484ZM120.336 9.27273C120.01 9.27273 119.728 9.16146 119.491 8.93892C119.259 8.71638 119.143 8.44886 119.143 8.13636C119.143 7.82386 119.259 7.55634 119.491 7.33381C119.728 7.11127 120.01 7 120.336 7C120.663 7 120.942 7.11127 121.174 7.33381C121.411 7.55634 121.53 7.82386 121.53 8.13636C121.53 8.44886 121.411 8.71638 121.174 8.93892C120.942 9.16146 120.663 9.27273 120.336 9.27273ZM123.83 22V11.0909H125.45V12.7955H125.592C125.819 12.2131 126.186 11.7609 126.692 11.4389C127.199 11.1122 127.807 10.9489 128.518 10.9489C129.237 10.9489 129.836 11.1122 130.315 11.4389C130.798 11.7609 131.174 12.2131 131.444 12.7955H131.557C131.837 12.232 132.256 11.7846 132.815 11.4531C133.373 11.117 134.043 10.9489 134.825 10.9489C135.8 10.9489 136.598 11.2543 137.218 11.8651C137.838 12.4711 138.148 13.4157 138.148 14.6989V22H136.472V14.6989C136.472 13.8939 136.252 13.3187 135.812 12.973C135.371 12.6274 134.853 12.4545 134.256 12.4545C133.489 12.4545 132.895 12.6866 132.474 13.1506C132.052 13.6098 131.842 14.1922 131.842 14.8977V22H130.137V14.5284C130.137 13.9081 129.936 13.4086 129.533 13.0298C129.131 12.6463 128.612 12.4545 127.978 12.4545C127.542 12.4545 127.135 12.5705 126.756 12.8026C126.382 13.0346 126.079 13.3565 125.847 13.7685C125.62 14.1757 125.506 14.6468 125.506 15.1818V22H123.83ZM145.387 22.2273C144.336 22.2273 143.429 21.9953 142.667 21.5312C141.909 21.0625 141.324 20.4091 140.912 19.571C140.505 18.7282 140.302 17.7481 140.302 16.6307C140.302 15.5133 140.505 14.5284 140.912 13.6761C141.324 12.8191 141.897 12.1515 142.631 11.6733C143.37 11.1903 144.232 10.9489 145.216 10.9489C145.785 10.9489 146.346 11.0436 146.9 11.233C147.454 11.4223 147.958 11.7301 148.412 12.1562C148.867 12.5777 149.229 13.1364 149.499 13.8324C149.769 14.5284 149.904 15.3854 149.904 16.4034V17.1136H141.495V15.6648H148.199C148.199 15.0492 148.076 14.5 147.83 14.017C147.589 13.5341 147.243 13.1529 146.793 12.8736C146.348 12.5942 145.822 12.4545 145.216 12.4545C144.549 12.4545 143.971 12.6203 143.483 12.9517C143 13.2784 142.629 13.7045 142.368 14.2301C142.108 14.7557 141.978 15.3191 141.978 15.9205V16.8864C141.978 17.7102 142.12 18.4086 142.404 18.9815C142.693 19.5497 143.093 19.983 143.604 20.2812C144.116 20.5748 144.71 20.7216 145.387 20.7216C145.827 20.7216 146.225 20.66 146.58 20.5369C146.94 20.4091 147.25 20.2197 147.51 19.9688C147.771 19.7131 147.972 19.3958 148.114 19.017L149.733 19.4716C149.563 20.0208 149.277 20.5038 148.874 20.9205C148.472 21.3324 147.974 21.6544 147.383 21.8864C146.791 22.1136 146.125 22.2273 145.387 22.2273ZM158.358 26.0909C158.074 26.0909 157.821 26.0672 157.598 26.0199C157.376 25.9773 157.222 25.9347 157.137 25.892L157.563 24.4148C157.97 24.5189 158.33 24.5568 158.642 24.5284C158.955 24.5 159.232 24.3603 159.473 24.1094C159.719 23.8632 159.944 23.4631 160.148 22.9091L160.46 22.0568L156.426 11.0909H158.245L161.256 19.7841H161.37L164.381 11.0909H166.199L161.568 23.5909C161.36 24.1544 161.102 24.6207 160.794 24.9901C160.486 25.3641 160.129 25.6411 159.722 25.821C159.319 26.0009 158.865 26.0909 158.358 26.0909ZM172.053 22.2273C171.068 22.2273 170.204 21.9929 169.46 21.5241C168.722 21.0554 168.144 20.3996 167.727 19.5568C167.315 18.714 167.109 17.7292 167.109 16.6023C167.109 15.4659 167.315 14.474 167.727 13.6264C168.144 12.7789 168.722 12.1207 169.46 11.652C170.204 11.1832 171.068 10.9489 172.053 10.9489C173.037 10.9489 173.899 11.1832 174.638 11.652C175.381 12.1207 175.959 12.7789 176.371 13.6264C176.787 14.474 176.996 15.4659 176.996 16.6023C176.996 17.7292 176.787 18.714 176.371 19.5568C175.959 20.3996 175.381 21.0554 174.638 21.5241C173.899 21.9929 173.037 22.2273 172.053 22.2273ZM172.053 20.7216C172.801 20.7216 173.416 20.5298 173.899 20.1463C174.382 19.7628 174.74 19.2585 174.972 18.6335C175.204 18.0085 175.32 17.3314 175.32 16.6023C175.32 15.8731 175.204 15.1937 174.972 14.5639C174.74 13.9342 174.382 13.4252 173.899 13.0369C173.416 12.6487 172.801 12.4545 172.053 12.4545C171.305 12.4545 170.689 12.6487 170.206 13.0369C169.723 13.4252 169.366 13.9342 169.134 14.5639C168.902 15.1937 168.786 15.8731 168.786 16.6023C168.786 17.3314 168.902 18.0085 169.134 18.6335C169.366 19.2585 169.723 19.7628 170.206 20.1463C170.689 20.5298 171.305 20.7216 172.053 20.7216ZM186.029 17.5398V11.0909H187.706V22H186.029V20.1534H185.916C185.66 20.7074 185.262 21.1785 184.723 21.5668C184.183 21.9503 183.501 22.142 182.677 22.142C181.995 22.142 181.389 21.9929 180.859 21.6946C180.329 21.3916 179.912 20.937 179.609 20.331C179.306 19.7202 179.154 18.9508 179.154 18.0227V11.0909H180.831V17.9091C180.831 18.7045 181.053 19.339 181.498 19.8125C181.948 20.286 182.521 20.5227 183.217 20.5227C183.634 20.5227 184.057 20.4162 184.488 20.2031C184.924 19.9901 185.288 19.6634 185.582 19.223C185.88 18.7827 186.029 18.2216 186.029 17.5398ZM203.328 13.5341L201.822 13.9602C201.727 13.7093 201.588 13.4654 201.403 13.2287C201.223 12.9872 200.977 12.7884 200.664 12.6321C200.352 12.4759 199.952 12.3977 199.464 12.3977C198.797 12.3977 198.24 12.5516 197.795 12.8594C197.355 13.1624 197.135 13.5483 197.135 14.017C197.135 14.4337 197.286 14.7628 197.589 15.0043C197.892 15.2457 198.366 15.447 199.01 15.608L200.629 16.0057C201.604 16.2424 202.331 16.6046 202.809 17.0923C203.288 17.5753 203.527 18.1979 203.527 18.9602C203.527 19.5852 203.347 20.1439 202.987 20.6364C202.632 21.1288 202.135 21.517 201.495 21.8011C200.856 22.0852 200.113 22.2273 199.265 22.2273C198.153 22.2273 197.232 21.9858 196.502 21.5028C195.773 21.0199 195.312 20.3144 195.118 19.3864L196.708 18.9886C196.86 19.5758 197.146 20.0161 197.568 20.3097C197.994 20.6032 198.55 20.75 199.237 20.75C200.018 20.75 200.638 20.5843 201.098 20.2528C201.562 19.9167 201.794 19.5142 201.794 19.0455C201.794 18.6667 201.661 18.3494 201.396 18.0938C201.131 17.8333 200.724 17.6392 200.174 17.5114L198.356 17.0852C197.357 16.8485 196.623 16.4815 196.154 15.9844C195.69 15.4825 195.458 14.8551 195.458 14.1023C195.458 13.4867 195.631 12.9422 195.977 12.4688C196.327 11.9953 196.803 11.6236 197.404 11.3537C198.011 11.0838 198.697 10.9489 199.464 10.9489C200.544 10.9489 201.391 11.1856 202.007 11.6591C202.627 12.1326 203.067 12.7576 203.328 13.5341ZM210.394 11.0909V12.5114H204.741V11.0909H210.394ZM206.388 8.47727H208.064V18.875C208.064 19.3485 208.133 19.7036 208.27 19.9403C208.413 20.1723 208.592 20.3286 208.81 20.4091C209.033 20.4848 209.267 20.5227 209.513 20.5227C209.698 20.5227 209.85 20.5133 209.968 20.4943C210.086 20.4706 210.181 20.4517 210.252 20.4375L210.593 21.9432C210.479 21.9858 210.321 22.0284 210.117 22.071C209.913 22.1184 209.655 22.142 209.343 22.142C208.869 22.142 208.405 22.0402 207.951 21.8366C207.501 21.633 207.127 21.3229 206.829 20.9062C206.535 20.4896 206.388 19.964 206.388 19.3295V8.47727ZM216.83 22.2273C215.845 22.2273 214.981 21.9929 214.238 21.5241C213.499 21.0554 212.921 20.3996 212.505 19.5568C212.093 18.714 211.887 17.7292 211.887 16.6023C211.887 15.4659 212.093 14.474 212.505 13.6264C212.921 12.7789 213.499 12.1207 214.238 11.652C214.981 11.1832 215.845 10.9489 216.83 10.9489C217.815 10.9489 218.677 11.1832 219.415 11.652C220.159 12.1207 220.736 12.7789 221.148 13.6264C221.565 14.474 221.773 15.4659 221.773 16.6023C221.773 17.7292 221.565 18.714 221.148 19.5568C220.736 20.3996 220.159 21.0554 219.415 21.5241C218.677 21.9929 217.815 22.2273 216.83 22.2273ZM216.83 20.7216C217.578 20.7216 218.194 20.5298 218.677 20.1463C219.16 19.7628 219.517 19.2585 219.749 18.6335C219.981 18.0085 220.097 17.3314 220.097 16.6023C220.097 15.8731 219.981 15.1937 219.749 14.5639C219.517 13.9342 219.16 13.4252 218.677 13.0369C218.194 12.6487 217.578 12.4545 216.83 12.4545C216.082 12.4545 215.466 12.6487 214.983 13.0369C214.5 13.4252 214.143 13.9342 213.911 14.5639C213.679 15.1937 213.563 15.8731 213.563 16.6023C213.563 17.3314 213.679 18.0085 213.911 18.6335C214.143 19.2585 214.5 19.7628 214.983 20.1463C215.466 20.5298 216.082 20.7216 216.83 20.7216ZM223.932 26.0909V11.0909H225.551V12.8239H225.75C225.873 12.6345 226.043 12.393 226.261 12.0994C226.484 11.8011 226.801 11.536 227.213 11.304C227.63 11.0672 228.193 10.9489 228.903 10.9489C229.822 10.9489 230.632 11.1785 231.332 11.6378C232.033 12.0971 232.58 12.7481 232.973 13.5909C233.366 14.4337 233.562 15.428 233.562 16.5739C233.562 17.7292 233.366 18.7306 232.973 19.5781C232.58 20.4209 232.035 21.0743 231.339 21.5384C230.643 21.9976 229.841 22.2273 228.932 22.2273C228.231 22.2273 227.67 22.1113 227.249 21.8793C226.827 21.6425 226.503 21.375 226.276 21.0767C226.048 20.7737 225.873 20.5227 225.75 20.3239H225.608V26.0909H223.932ZM225.579 16.5455C225.579 17.3693 225.7 18.0961 225.942 18.7259C226.183 19.3509 226.536 19.8409 227 20.196C227.464 20.5464 228.032 20.7216 228.704 20.7216C229.405 20.7216 229.99 20.5369 230.459 20.1676C230.932 19.7936 231.287 19.2917 231.524 18.6619C231.766 18.0275 231.886 17.322 231.886 16.5455C231.886 15.7784 231.768 15.0871 231.531 14.4716C231.299 13.8513 230.946 13.3613 230.473 13.0014C230.004 12.6368 229.415 12.4545 228.704 12.4545C228.023 12.4545 227.45 12.6274 226.986 12.973C226.522 13.3139 226.171 13.7921 225.935 14.4077C225.698 15.0185 225.579 15.7311 225.579 16.5455ZM240.944 26.0909V11.0909H242.564V12.8239H242.762C242.886 12.6345 243.056 12.393 243.274 12.0994C243.496 11.8011 243.814 11.536 244.225 11.304C244.642 11.0672 245.206 10.9489 245.916 10.9489C246.834 10.9489 247.644 11.1785 248.345 11.6378C249.046 12.0971 249.592 12.7481 249.985 13.5909C250.378 14.4337 250.575 15.428 250.575 16.5739C250.575 17.7292 250.378 18.7306 249.985 19.5781C249.592 20.4209 249.048 21.0743 248.352 21.5384C247.656 21.9976 246.853 22.2273 245.944 22.2273C245.243 22.2273 244.682 22.1113 244.261 21.8793C243.84 21.6425 243.515 21.375 243.288 21.0767C243.061 20.7737 242.886 20.5227 242.762 20.3239H242.62V26.0909H240.944ZM242.592 16.5455C242.592 17.3693 242.713 18.0961 242.954 18.7259C243.196 19.3509 243.548 19.8409 244.012 20.196C244.476 20.5464 245.045 20.7216 245.717 20.7216C246.418 20.7216 247.002 20.5369 247.471 20.1676C247.945 19.7936 248.3 19.2917 248.537 18.6619C248.778 18.0275 248.899 17.322 248.899 16.5455C248.899 15.7784 248.78 15.0871 248.544 14.4716C248.312 13.8513 247.959 13.3613 247.485 13.0014C247.017 12.6368 246.427 12.4545 245.717 12.4545C245.035 12.4545 244.462 12.6274 243.998 12.973C243.534 13.3139 243.184 13.7921 242.947 14.4077C242.71 15.0185 242.592 15.7311 242.592 16.5455ZM255.942 22.2557C255.251 22.2557 254.623 22.1255 254.06 21.8651C253.496 21.5999 253.049 21.2188 252.718 20.7216C252.386 20.2197 252.22 19.6136 252.22 18.9034C252.22 18.2784 252.343 17.7718 252.59 17.3835C252.836 16.9905 253.165 16.6828 253.577 16.4602C253.989 16.2377 254.443 16.072 254.941 15.9631C255.442 15.8494 255.947 15.7595 256.453 15.6932C257.116 15.608 257.654 15.544 258.066 15.5014C258.482 15.4541 258.785 15.3759 258.975 15.267C259.169 15.1581 259.266 14.9687 259.266 14.6989V14.642C259.266 13.9413 259.074 13.3968 258.691 13.0085C258.312 12.6203 257.736 12.4261 256.965 12.4261C256.165 12.4261 255.537 12.6013 255.083 12.9517C254.628 13.3021 254.308 13.6761 254.124 14.0739L252.533 13.5057C252.817 12.8428 253.196 12.3267 253.669 11.9574C254.147 11.5833 254.668 11.3229 255.232 11.1761C255.8 11.0246 256.359 10.9489 256.908 10.9489C257.258 10.9489 257.661 10.9915 258.115 11.0767C258.575 11.1572 259.017 11.3253 259.443 11.581C259.874 11.8366 260.232 12.2225 260.516 12.7386C260.8 13.2547 260.942 13.946 260.942 14.8125V22H259.266V20.5227H259.181C259.067 20.7595 258.878 21.0128 258.612 21.2827C258.347 21.5526 257.995 21.7822 257.554 21.9716C257.114 22.161 256.576 22.2557 255.942 22.2557ZM256.198 20.75C256.861 20.75 257.419 20.6198 257.874 20.3594C258.333 20.099 258.679 19.7628 258.911 19.3509C259.147 18.9389 259.266 18.5057 259.266 18.0511V16.517C259.195 16.6023 259.039 16.6804 258.797 16.7514C258.56 16.8177 258.286 16.8769 257.973 16.929C257.665 16.9763 257.365 17.0189 257.071 17.0568C256.782 17.09 256.548 17.1184 256.368 17.142C255.933 17.1989 255.525 17.2912 255.147 17.419C254.772 17.5421 254.469 17.7292 254.237 17.9801C254.01 18.2263 253.897 18.5625 253.897 18.9886C253.897 19.571 254.112 20.0114 254.543 20.3097C254.978 20.6032 255.53 20.75 256.198 20.75ZM264.29 26.0909C264.006 26.0909 263.753 26.0672 263.53 26.0199C263.308 25.9773 263.154 25.9347 263.069 25.892L263.495 24.4148C263.902 24.5189 264.262 24.5568 264.574 24.5284C264.887 24.5 265.164 24.3603 265.405 24.1094C265.651 23.8632 265.876 23.4631 266.08 22.9091L266.392 22.0568L262.358 11.0909H264.177L267.188 19.7841H267.302L270.313 11.0909H272.131L267.5 23.5909C267.292 24.1544 267.034 24.6207 266.726 24.9901C266.419 25.3641 266.061 25.6411 265.654 25.821C265.251 26.0009 264.797 26.0909 264.29 26.0909ZM273.943 22V11.0909H275.62V22H273.943ZM274.796 9.27273C274.469 9.27273 274.187 9.16146 273.951 8.93892C273.719 8.71638 273.603 8.44886 273.603 8.13636C273.603 7.82386 273.719 7.55634 273.951 7.33381C274.187 7.11127 274.469 7 274.796 7C275.122 7 275.402 7.11127 275.634 7.33381C275.871 7.55634 275.989 7.82386 275.989 8.13636C275.989 8.44886 275.871 8.71638 275.634 8.93892C275.402 9.16146 275.122 9.27273 274.796 9.27273ZM279.966 15.4375V22H278.29V11.0909H279.909V12.7955H280.051C280.307 12.2415 280.695 11.7964 281.216 11.4602C281.737 11.1193 282.409 10.9489 283.233 10.9489C283.971 10.9489 284.618 11.1004 285.172 11.4034C285.726 11.7017 286.157 12.1562 286.464 12.767C286.772 13.3731 286.926 14.1402 286.926 15.0682V22H285.25V15.1818C285.25 14.3248 285.027 13.6572 284.582 13.179C284.137 12.696 283.526 12.4545 282.75 12.4545C282.215 12.4545 281.737 12.5705 281.315 12.8026C280.898 13.0346 280.569 13.3731 280.328 13.8182C280.086 14.2633 279.966 14.803 279.966 15.4375ZM293.992 26.3182C293.183 26.3182 292.487 26.214 291.904 26.0057C291.322 25.8021 290.836 25.5322 290.448 25.196C290.065 24.8646 289.759 24.5095 289.532 24.1307L290.867 23.1932C291.019 23.392 291.21 23.6193 291.442 23.875C291.674 24.1354 291.992 24.3603 292.394 24.5497C292.801 24.7438 293.334 24.8409 293.992 24.8409C294.873 24.8409 295.6 24.6278 296.173 24.2017C296.746 23.7756 297.032 23.108 297.032 22.1989V19.983H296.89C296.767 20.1818 296.592 20.428 296.364 20.7216C296.142 21.0104 295.82 21.2685 295.398 21.4957C294.982 21.7183 294.418 21.8295 293.708 21.8295C292.827 21.8295 292.037 21.6212 291.336 21.2045C290.64 20.7879 290.088 20.1818 289.681 19.3864C289.279 18.5909 289.077 17.625 289.077 16.4886C289.077 15.3712 289.274 14.3982 289.667 13.5696C290.06 12.7363 290.607 12.0923 291.308 11.6378C292.008 11.1785 292.818 10.9489 293.737 10.9489C294.447 10.9489 295.01 11.0672 295.427 11.304C295.848 11.536 296.17 11.8011 296.393 12.0994C296.62 12.393 296.795 12.6345 296.918 12.8239H297.089V11.0909H298.708V22.3125C298.708 23.25 298.495 24.0123 298.069 24.5994C297.647 25.1913 297.079 25.6245 296.364 25.8991C295.654 26.1785 294.863 26.3182 293.992 26.3182ZM293.935 20.3239C294.608 20.3239 295.176 20.17 295.64 19.8622C296.104 19.5545 296.457 19.1117 296.698 18.5341C296.94 17.9564 297.06 17.2652 297.06 16.4602C297.06 15.6742 296.942 14.9806 296.705 14.3793C296.469 13.7779 296.118 13.3068 295.654 12.9659C295.19 12.625 294.617 12.4545 293.935 12.4545C293.225 12.4545 292.633 12.6345 292.16 12.9943C291.691 13.3542 291.338 13.8371 291.102 14.4432C290.87 15.0492 290.754 15.7216 290.754 16.4602C290.754 17.2178 290.872 17.8878 291.109 18.4702C291.35 19.0478 291.705 19.5024 292.174 19.8338C292.647 20.1605 293.235 20.3239 293.935 20.3239ZM311.459 11.0909V12.5114H305.579V11.0909H311.459ZM307.34 22V9.58523C307.34 8.96023 307.487 8.43939 307.78 8.02273C308.074 7.60606 308.455 7.29356 308.924 7.08523C309.392 6.87689 309.887 6.77273 310.408 6.77273C310.82 6.77273 311.156 6.80587 311.417 6.87216C311.677 6.93845 311.871 7 311.999 7.05682L311.516 8.50568C311.431 8.47727 311.312 8.44176 311.161 8.39915C311.014 8.35653 310.82 8.33523 310.579 8.33523C310.025 8.33523 309.624 8.4749 309.378 8.75426C309.137 9.03362 309.016 9.44318 309.016 9.98295V22H307.34ZM317.391 22.2273C316.406 22.2273 315.542 21.9929 314.799 21.5241C314.06 21.0554 313.482 20.3996 313.066 19.5568C312.654 18.714 312.448 17.7292 312.448 16.6023C312.448 15.4659 312.654 14.474 313.066 13.6264C313.482 12.7789 314.06 12.1207 314.799 11.652C315.542 11.1832 316.406 10.9489 317.391 10.9489C318.376 10.9489 319.237 11.1832 319.976 11.652C320.719 12.1207 321.297 12.7789 321.709 13.6264C322.126 14.474 322.334 15.4659 322.334 16.6023C322.334 17.7292 322.126 18.714 321.709 19.5568C321.297 20.3996 320.719 21.0554 319.976 21.5241C319.237 21.9929 318.376 22.2273 317.391 22.2273ZM317.391 20.7216C318.139 20.7216 318.755 20.5298 319.237 20.1463C319.72 19.7628 320.078 19.2585 320.31 18.6335C320.542 18.0085 320.658 17.3314 320.658 16.6023C320.658 15.8731 320.542 15.1937 320.31 14.5639C320.078 13.9342 319.72 13.4252 319.237 13.0369C318.755 12.6487 318.139 12.4545 317.391 12.4545C316.643 12.4545 316.027 12.6487 315.544 13.0369C315.061 13.4252 314.704 13.9342 314.472 14.5639C314.24 15.1937 314.124 15.8731 314.124 16.6023C314.124 17.3314 314.24 18.0085 314.472 18.6335C314.704 19.2585 315.061 19.7628 315.544 20.1463C316.027 20.5298 316.643 20.7216 317.391 20.7216ZM324.493 22V11.0909H326.112V12.7386H326.226C326.424 12.1989 326.784 11.7609 327.305 11.4247C327.826 11.0885 328.413 10.9205 329.067 10.9205C329.19 10.9205 329.344 10.9228 329.528 10.9276C329.713 10.9323 329.853 10.9394 329.947 10.9489V12.6534C329.89 12.6392 329.76 12.6179 329.557 12.5895C329.358 12.5563 329.147 12.5398 328.924 12.5398C328.394 12.5398 327.921 12.651 327.504 12.8736C327.092 13.0914 326.765 13.3944 326.524 13.7827C326.287 14.1662 326.169 14.6042 326.169 15.0966V22H324.493ZM341.191 22.2273C340.206 22.2273 339.342 21.9929 338.599 21.5241C337.86 21.0554 337.282 20.3996 336.866 19.5568C336.454 18.714 336.248 17.7292 336.248 16.6023C336.248 15.4659 336.454 14.474 336.866 13.6264C337.282 12.7789 337.86 12.1207 338.599 11.652C339.342 11.1832 340.206 10.9489 341.191 10.9489C342.176 10.9489 343.038 11.1832 343.776 11.652C344.52 12.1207 345.097 12.7789 345.509 13.6264C345.926 14.474 346.134 15.4659 346.134 16.6023C346.134 17.7292 345.926 18.714 345.509 19.5568C345.097 20.3996 344.52 21.0554 343.776 21.5241C343.038 21.9929 342.176 22.2273 341.191 22.2273ZM341.191 20.7216C341.939 20.7216 342.555 20.5298 343.038 20.1463C343.52 19.7628 343.878 19.2585 344.11 18.6335C344.342 18.0085 344.458 17.3314 344.458 16.6023C344.458 15.8731 344.342 15.1937 344.11 14.5639C343.878 13.9342 343.52 13.4252 343.038 13.0369C342.555 12.6487 341.939 12.4545 341.191 12.4545C340.443 12.4545 339.827 12.6487 339.344 13.0369C338.861 13.4252 338.504 13.9342 338.272 14.5639C338.04 15.1937 337.924 15.8731 337.924 16.6023C337.924 17.3314 338.04 18.0085 338.272 18.6335C338.504 19.2585 338.861 19.7628 339.344 20.1463C339.827 20.5298 340.443 20.7216 341.191 20.7216ZM356.823 11.0909L352.788 22H351.084L347.05 11.0909H348.868L351.879 19.7841H351.993L355.004 11.0909H356.823ZM362.818 22.2273C361.767 22.2273 360.86 21.9953 360.098 21.5312C359.34 21.0625 358.756 20.4091 358.344 19.571C357.936 18.7282 357.733 17.7481 357.733 16.6307C357.733 15.5133 357.936 14.5284 358.344 13.6761C358.756 12.8191 359.329 12.1515 360.062 11.6733C360.801 11.1903 361.663 10.9489 362.648 10.9489C363.216 10.9489 363.777 11.0436 364.331 11.233C364.885 11.4223 365.389 11.7301 365.844 12.1562C366.298 12.5777 366.66 13.1364 366.93 13.8324C367.2 14.5284 367.335 15.3854 367.335 16.4034V17.1136H358.926V15.6648H365.631C365.631 15.0492 365.507 14.5 365.261 14.017C365.02 13.5341 364.674 13.1529 364.224 12.8736C363.779 12.5942 363.254 12.4545 362.648 12.4545C361.98 12.4545 361.402 12.6203 360.915 12.9517C360.432 13.2784 360.06 13.7045 359.8 14.2301C359.539 14.7557 359.409 15.3191 359.409 15.9205V16.8864C359.409 17.7102 359.551 18.4086 359.835 18.9815C360.124 19.5497 360.524 19.983 361.035 20.2812C361.547 20.5748 362.141 20.7216 362.818 20.7216C363.258 20.7216 363.656 20.66 364.011 20.5369C364.371 20.4091 364.681 20.2197 364.942 19.9688C365.202 19.7131 365.403 19.3958 365.545 19.017L367.165 19.4716C366.994 20.0208 366.708 20.5038 366.305 20.9205C365.903 21.3324 365.406 21.6544 364.814 21.8864C364.222 22.1136 363.557 22.2273 362.818 22.2273ZM369.485 22V11.0909H371.104V12.7386H371.218C371.417 12.1989 371.777 11.7609 372.297 11.4247C372.818 11.0885 373.405 10.9205 374.059 10.9205C374.182 10.9205 374.336 10.9228 374.52 10.9276C374.705 10.9323 374.845 10.9394 374.939 10.9489V12.6534C374.883 12.6392 374.752 12.6179 374.549 12.5895C374.35 12.5563 374.139 12.5398 373.917 12.5398C373.386 12.5398 372.913 12.651 372.496 12.8736C372.084 13.0914 371.758 13.3944 371.516 13.7827C371.279 14.1662 371.161 14.6042 371.161 15.0966V22H369.485ZM376.526 26.0909V11.0909H378.146V12.8239H378.344C378.468 12.6345 378.638 12.393 378.856 12.0994C379.078 11.8011 379.396 11.536 379.808 11.304C380.224 11.0672 380.788 10.9489 381.498 10.9489C382.416 10.9489 383.226 11.1785 383.927 11.6378C384.628 12.0971 385.174 12.7481 385.567 13.5909C385.96 14.4337 386.157 15.428 386.157 16.5739C386.157 17.7292 385.96 18.7306 385.567 19.5781C385.174 20.4209 384.63 21.0743 383.934 21.5384C383.238 21.9976 382.435 22.2273 381.526 22.2273C380.826 22.2273 380.264 22.1113 379.843 21.8793C379.422 21.6425 379.097 21.375 378.87 21.0767C378.643 20.7737 378.468 20.5227 378.344 20.3239H378.202V26.0909H376.526ZM378.174 16.5455C378.174 17.3693 378.295 18.0961 378.536 18.7259C378.778 19.3509 379.13 19.8409 379.594 20.196C380.058 20.5464 380.627 20.7216 381.299 20.7216C382 20.7216 382.585 20.5369 383.053 20.1676C383.527 19.7936 383.882 19.2917 384.119 18.6619C384.36 18.0275 384.481 17.322 384.481 16.5455C384.481 15.7784 384.362 15.0871 384.126 14.4716C383.894 13.8513 383.541 13.3613 383.067 13.0014C382.599 12.6368 382.009 12.4545 381.299 12.4545C380.617 12.4545 380.044 12.6274 379.58 12.973C379.116 13.3139 378.766 13.7921 378.529 14.4077C378.292 15.0185 378.174 15.7311 378.174 16.5455ZM388.314 22V11.0909H389.933V12.7386H390.047C390.246 12.1989 390.605 11.7609 391.126 11.4247C391.647 11.0885 392.234 10.9205 392.888 10.9205C393.011 10.9205 393.165 10.9228 393.349 10.9276C393.534 10.9323 393.674 10.9394 393.768 10.9489V12.6534C393.712 12.6392 393.581 12.6179 393.378 12.5895C393.179 12.5563 392.968 12.5398 392.746 12.5398C392.215 12.5398 391.742 12.651 391.325 12.8736C390.913 13.0914 390.587 13.3944 390.345 13.7827C390.108 14.1662 389.99 14.6042 389.99 15.0966V22H388.314ZM395.355 22V11.0909H397.031V22H395.355ZM396.207 9.27273C395.881 9.27273 395.599 9.16146 395.362 8.93892C395.13 8.71638 395.014 8.44886 395.014 8.13636C395.014 7.82386 395.13 7.55634 395.362 7.33381C395.599 7.11127 395.881 7 396.207 7C396.534 7 396.814 7.11127 397.046 7.33381C397.282 7.55634 397.401 7.82386 397.401 8.13636C397.401 8.44886 397.282 8.71638 397.046 8.93892C396.814 9.16146 396.534 9.27273 396.207 9.27273ZM404.133 22.2273C403.11 22.2273 402.23 21.9858 401.491 21.5028C400.752 21.0199 400.184 20.3546 399.786 19.5071C399.389 18.6596 399.19 17.6913 399.19 16.6023C399.19 15.4943 399.394 14.5166 399.801 13.669C400.213 12.8168 400.786 12.1515 401.519 11.6733C402.258 11.1903 403.12 10.9489 404.105 10.9489C404.872 10.9489 405.563 11.0909 406.179 11.375C406.794 11.6591 407.298 12.0568 407.691 12.5682C408.084 13.0795 408.328 13.6761 408.423 14.358H406.747C406.619 13.8608 406.335 13.4205 405.894 13.0369C405.459 12.6487 404.872 12.4545 404.133 12.4545C403.48 12.4545 402.907 12.625 402.414 12.9659C401.927 13.3021 401.545 13.7779 401.271 14.3935C401.001 15.0043 400.866 15.7216 400.866 16.5455C400.866 17.3883 400.999 18.1222 401.264 18.7472C401.534 19.3722 401.912 19.8575 402.4 20.2031C402.893 20.5488 403.47 20.7216 404.133 20.7216C404.569 20.7216 404.964 20.6458 405.319 20.4943C405.674 20.3428 405.975 20.125 406.221 19.8409C406.467 19.5568 406.643 19.2159 406.747 18.8182H408.423C408.328 19.4621 408.094 20.0421 407.72 20.5582C407.35 21.0696 406.86 21.4768 406.25 21.7798C405.644 22.0781 404.938 22.2273 404.133 22.2273ZM415.047 22.2273C413.996 22.2273 413.089 21.9953 412.327 21.5312C411.569 21.0625 410.985 20.4091 410.573 19.571C410.165 18.7282 409.962 17.7481 409.962 16.6307C409.962 15.5133 410.165 14.5284 410.573 13.6761C410.985 12.8191 411.557 12.1515 412.291 11.6733C413.03 11.1903 413.892 10.9489 414.877 10.9489C415.445 10.9489 416.006 11.0436 416.56 11.233C417.114 11.4223 417.618 11.7301 418.073 12.1562C418.527 12.5777 418.889 13.1364 419.159 13.8324C419.429 14.5284 419.564 15.3854 419.564 16.4034V17.1136H411.155V15.6648H417.86C417.86 15.0492 417.736 14.5 417.49 14.017C417.249 13.5341 416.903 13.1529 416.453 12.8736C416.008 12.5942 415.483 12.4545 414.877 12.4545C414.209 12.4545 413.631 12.6203 413.144 12.9517C412.661 13.2784 412.289 13.7045 412.029 14.2301C411.768 14.7557 411.638 15.3191 411.638 15.9205V16.8864C411.638 17.7102 411.78 18.4086 412.064 18.9815C412.353 19.5497 412.753 19.983 413.264 20.2812C413.776 20.5748 414.37 20.7216 415.047 20.7216C415.487 20.7216 415.885 20.66 416.24 20.5369C416.6 20.4091 416.91 20.2197 417.171 19.9688C417.431 19.7131 417.632 19.3958 417.774 19.017L419.394 19.4716C419.223 20.0208 418.937 20.5038 418.534 20.9205C418.132 21.3324 417.635 21.6544 417.043 21.8864C416.451 22.1136 415.786 22.2273 415.047 22.2273ZM425.833 22.2273C424.924 22.2273 424.121 21.9976 423.425 21.5384C422.729 21.0743 422.185 20.4209 421.792 19.5781C421.399 18.7306 421.202 17.7292 421.202 16.5739C421.202 15.428 421.399 14.4337 421.792 13.5909C422.185 12.7481 422.732 12.0971 423.433 11.6378C424.133 11.1785 424.943 10.9489 425.862 10.9489C426.572 10.9489 427.133 11.0672 427.545 11.304C427.961 11.536 428.279 11.8011 428.496 12.0994C428.719 12.393 428.892 12.6345 429.015 12.8239H429.157V7.45455H430.833V22H429.214V20.3239H429.015C428.892 20.5227 428.717 20.7737 428.489 21.0767C428.262 21.375 427.938 21.6425 427.516 21.8793C427.095 22.1113 426.534 22.2273 425.833 22.2273ZM426.06 20.7216C426.733 20.7216 427.301 20.5464 427.765 20.196C428.229 19.8409 428.582 19.3509 428.823 18.7259C429.065 18.0961 429.185 17.3693 429.185 16.5455C429.185 15.7311 429.067 15.0185 428.83 14.4077C428.594 13.7921 428.243 13.3139 427.779 12.973C427.315 12.6274 426.742 12.4545 426.06 12.4545C425.35 12.4545 424.758 12.6368 424.285 13.0014C423.816 13.3613 423.463 13.8513 423.227 14.4716C422.995 15.0871 422.879 15.7784 422.879 16.5455C422.879 17.322 422.997 18.0275 423.234 18.6619C423.475 19.2917 423.83 19.7936 424.299 20.1676C424.772 20.5369 425.36 20.7216 426.06 20.7216ZM446.688 13.5341L445.182 13.9602C445.088 13.7093 444.948 13.4654 444.763 13.2287C444.583 12.9872 444.337 12.7884 444.025 12.6321C443.712 12.4759 443.312 12.3977 442.824 12.3977C442.157 12.3977 441.6 12.5516 441.155 12.8594C440.715 13.1624 440.495 13.5483 440.495 14.017C440.495 14.4337 440.646 14.7628 440.949 15.0043C441.252 15.2457 441.726 15.447 442.37 15.608L443.989 16.0057C444.964 16.2424 445.691 16.6046 446.169 17.0923C446.648 17.5753 446.887 18.1979 446.887 18.9602C446.887 19.5852 446.707 20.1439 446.347 20.6364C445.992 21.1288 445.495 21.517 444.856 21.8011C444.216 22.0852 443.473 22.2273 442.625 22.2273C441.513 22.2273 440.592 21.9858 439.863 21.5028C439.133 21.0199 438.672 20.3144 438.478 19.3864L440.069 18.9886C440.22 19.5758 440.507 20.0161 440.928 20.3097C441.354 20.6032 441.91 20.75 442.597 20.75C443.378 20.75 443.999 20.5843 444.458 20.2528C444.922 19.9167 445.154 19.5142 445.154 19.0455C445.154 18.6667 445.021 18.3494 444.756 18.0938C444.491 17.8333 444.084 17.6392 443.535 17.5114L441.716 17.0852C440.717 16.8485 439.983 16.4815 439.515 15.9844C439.051 15.4825 438.819 14.8551 438.819 14.1023C438.819 13.4867 438.991 12.9422 439.337 12.4688C439.687 11.9953 440.163 11.6236 440.765 11.3537C441.371 11.0838 442.057 10.9489 442.824 10.9489C443.904 10.9489 444.751 11.1856 445.367 11.6591C445.987 12.1326 446.428 12.7576 446.688 13.5341ZM450.686 15.4375V22H449.01V7.45455H450.686V12.7955H450.828C451.084 12.232 451.467 11.7846 451.979 11.4531C452.495 11.117 453.181 10.9489 454.038 10.9489C454.782 10.9489 455.433 11.098 455.991 11.3963C456.55 11.6899 456.983 12.142 457.291 12.7528C457.604 13.3589 457.76 14.1307 457.76 15.0682V22H456.084V15.1818C456.084 14.3153 455.859 13.6454 455.409 13.1719C454.964 12.6937 454.346 12.4545 453.555 12.4545C453.006 12.4545 452.514 12.5705 452.078 12.8026C451.647 13.0346 451.306 13.3731 451.055 13.8182C450.809 14.2633 450.686 14.803 450.686 15.4375ZM460.426 22V11.0909H462.102V22H460.426ZM461.279 9.27273C460.952 9.27273 460.67 9.16146 460.433 8.93892C460.201 8.71638 460.085 8.44886 460.085 8.13636C460.085 7.82386 460.201 7.55634 460.433 7.33381C460.67 7.11127 460.952 7 461.279 7C461.605 7 461.885 7.11127 462.117 7.33381C462.353 7.55634 462.472 7.82386 462.472 8.13636C462.472 8.44886 462.353 8.71638 462.117 8.93892C461.885 9.16146 461.605 9.27273 461.279 9.27273ZM464.772 26.0909V11.0909H466.392V12.8239H466.591C466.714 12.6345 466.884 12.393 467.102 12.0994C467.324 11.8011 467.642 11.536 468.054 11.304C468.47 11.0672 469.034 10.9489 469.744 10.9489C470.663 10.9489 471.472 11.1785 472.173 11.6378C472.874 12.0971 473.421 12.7481 473.814 13.5909C474.207 14.4337 474.403 15.428 474.403 16.5739C474.403 17.7292 474.207 18.7306 473.814 19.5781C473.421 20.4209 472.876 21.0743 472.18 21.5384C471.484 21.9976 470.681 22.2273 469.772 22.2273C469.072 22.2273 468.511 22.1113 468.089 21.8793C467.668 21.6425 467.343 21.375 467.116 21.0767C466.889 20.7737 466.714 20.5227 466.591 20.3239H466.449V26.0909H464.772ZM466.42 16.5455C466.42 17.3693 466.541 18.0961 466.782 18.7259C467.024 19.3509 467.377 19.8409 467.841 20.196C468.305 20.5464 468.873 20.7216 469.545 20.7216C470.246 20.7216 470.831 20.5369 471.299 20.1676C471.773 19.7936 472.128 19.2917 472.365 18.6619C472.606 18.0275 472.727 17.322 472.727 16.5455C472.727 15.7784 472.609 15.0871 472.372 14.4716C472.14 13.8513 471.787 13.3613 471.314 13.0014C470.845 12.6368 470.255 12.4545 469.545 12.4545C468.863 12.4545 468.29 12.6274 467.826 12.973C467.362 13.3139 467.012 13.7921 466.775 14.4077C466.538 15.0185 466.42 15.7311 466.42 16.5455ZM476.56 26.0909V11.0909H478.179V12.8239H478.378C478.501 12.6345 478.672 12.393 478.889 12.0994C479.112 11.8011 479.429 11.536 479.841 11.304C480.258 11.0672 480.821 10.9489 481.531 10.9489C482.45 10.9489 483.26 11.1785 483.96 11.6378C484.661 12.0971 485.208 12.7481 485.601 13.5909C485.994 14.4337 486.191 15.428 486.191 16.5739C486.191 17.7292 485.994 18.7306 485.601 19.5781C485.208 20.4209 484.664 21.0743 483.968 21.5384C483.272 21.9976 482.469 22.2273 481.56 22.2273C480.859 22.2273 480.298 22.1113 479.877 21.8793C479.455 21.6425 479.131 21.375 478.904 21.0767C478.676 20.7737 478.501 20.5227 478.378 20.3239H478.236V26.0909H476.56ZM478.208 16.5455C478.208 17.3693 478.328 18.0961 478.57 18.7259C478.811 19.3509 479.164 19.8409 479.628 20.196C480.092 20.5464 480.66 20.7216 481.333 20.7216C482.033 20.7216 482.618 20.5369 483.087 20.1676C483.56 19.7936 483.915 19.2917 484.152 18.6619C484.394 18.0275 484.514 17.322 484.514 16.5455C484.514 15.7784 484.396 15.0871 484.159 14.4716C483.927 13.8513 483.575 13.3613 483.101 13.0014C482.632 12.6368 482.043 12.4545 481.333 12.4545C480.651 12.4545 480.078 12.6274 479.614 12.973C479.15 13.3139 478.799 13.7921 478.563 14.4077C478.326 15.0185 478.208 15.7311 478.208 16.5455ZM488.347 22V11.0909H490.024V22H488.347ZM489.2 9.27273C488.873 9.27273 488.591 9.16146 488.354 8.93892C488.122 8.71638 488.006 8.44886 488.006 8.13636C488.006 7.82386 488.122 7.55634 488.354 7.33381C488.591 7.11127 488.873 7 489.2 7C489.526 7 489.806 7.11127 490.038 7.33381C490.274 7.55634 490.393 7.82386 490.393 8.13636C490.393 8.44886 490.274 8.71638 490.038 8.93892C489.806 9.16146 489.526 9.27273 489.2 9.27273ZM494.37 15.4375V22H492.693V11.0909H494.313V12.7955H494.455C494.71 12.2415 495.099 11.7964 495.62 11.4602C496.14 11.1193 496.813 10.9489 497.637 10.9489C498.375 10.9489 499.022 11.1004 499.576 11.4034C500.13 11.7017 500.56 12.1562 500.868 12.767C501.176 13.3731 501.33 14.1402 501.33 15.0682V22H499.654V15.1818C499.654 14.3248 499.431 13.6572 498.986 13.179C498.541 12.696 497.93 12.4545 497.154 12.4545C496.619 12.4545 496.14 12.5705 495.719 12.8026C495.302 13.0346 494.973 13.3731 494.732 13.8182C494.49 14.2633 494.37 14.803 494.37 15.4375ZM508.396 26.3182C507.586 26.3182 506.89 26.214 506.308 26.0057C505.726 25.8021 505.24 25.5322 504.852 25.196C504.469 24.8646 504.163 24.5095 503.936 24.1307L505.271 23.1932C505.423 23.392 505.614 23.6193 505.846 23.875C506.078 24.1354 506.396 24.3603 506.798 24.5497C507.205 24.7438 507.738 24.8409 508.396 24.8409C509.277 24.8409 510.004 24.6278 510.576 24.2017C511.149 23.7756 511.436 23.108 511.436 22.1989V19.983H511.294C511.171 20.1818 510.996 20.428 510.768 20.7216C510.546 21.0104 510.224 21.2685 509.802 21.4957C509.386 21.7183 508.822 21.8295 508.112 21.8295C507.231 21.8295 506.441 21.6212 505.74 21.2045C505.044 20.7879 504.492 20.1818 504.085 19.3864C503.683 18.5909 503.481 17.625 503.481 16.4886C503.481 15.3712 503.678 14.3982 504.071 13.5696C504.464 12.7363 505.011 12.0923 505.711 11.6378C506.412 11.1785 507.222 10.9489 508.14 10.9489C508.851 10.9489 509.414 11.0672 509.831 11.304C510.252 11.536 510.574 11.8011 510.797 12.0994C511.024 12.393 511.199 12.6345 511.322 12.8239H511.493V11.0909H513.112V22.3125C513.112 23.25 512.899 24.0123 512.473 24.5994C512.051 25.1913 511.483 25.6245 510.768 25.8991C510.058 26.1785 509.267 26.3182 508.396 26.3182ZM508.339 20.3239C509.012 20.3239 509.58 20.17 510.044 19.8622C510.508 19.5545 510.861 19.1117 511.102 18.5341C511.344 17.9564 511.464 17.2652 511.464 16.4602C511.464 15.6742 511.346 14.9806 511.109 14.3793C510.872 13.7779 510.522 13.3068 510.058 12.9659C509.594 12.625 509.021 12.4545 508.339 12.4545C507.629 12.4545 507.037 12.6345 506.564 12.9943C506.095 13.3542 505.742 13.8371 505.505 14.4432C505.273 15.0492 505.157 15.7216 505.157 16.4602C505.157 17.2178 505.276 17.8878 505.513 18.4702C505.754 19.0478 506.109 19.5024 506.578 19.8338C507.051 20.1605 507.639 20.3239 508.339 20.3239ZM517.002 22.1136C516.651 22.1136 516.351 21.9882 516.1 21.7372C515.849 21.4863 515.723 21.1856 515.723 20.8352C515.723 20.4848 515.849 20.1842 516.1 19.9332C516.351 19.6823 516.651 19.5568 517.002 19.5568C517.352 19.5568 517.653 19.6823 517.904 19.9332C518.155 20.1842 518.28 20.4848 518.28 20.8352C518.28 21.0672 518.221 21.2803 518.103 21.4744C517.989 21.6686 517.835 21.8248 517.641 21.9432C517.452 22.0568 517.239 22.1136 517.002 22.1136ZM528.982 22L525.005 7.45455H526.795L529.835 19.3011H529.977L533.073 7.45455H535.062L538.158 19.3011H538.301L541.34 7.45455H543.13L539.153 22H537.335L534.124 10.4091H534.011L530.801 22H528.982ZM548.256 22.2273C547.204 22.2273 546.298 21.9953 545.535 21.5312C544.778 21.0625 544.193 20.4091 543.781 19.571C543.374 18.7282 543.17 17.7481 543.17 16.6307C543.17 15.5133 543.374 14.5284 543.781 13.6761C544.193 12.8191 544.766 12.1515 545.5 11.6733C546.239 11.1903 547.1 10.9489 548.085 10.9489C548.653 10.9489 549.214 11.0436 549.768 11.233C550.322 11.4223 550.827 11.7301 551.281 12.1562C551.736 12.5777 552.098 13.1364 552.368 13.8324C552.638 14.5284 552.773 15.3854 552.773 16.4034V17.1136H544.364V15.6648H551.068C551.068 15.0492 550.945 14.5 550.699 14.017C550.457 13.5341 550.112 13.1529 549.662 12.8736C549.217 12.5942 548.691 12.4545 548.085 12.4545C547.418 12.4545 546.84 12.6203 546.352 12.9517C545.869 13.2784 545.498 13.7045 545.237 14.2301C544.977 14.7557 544.847 15.3191 544.847 15.9205V16.8864C544.847 17.7102 544.989 18.4086 545.273 18.9815C545.561 19.5497 545.962 19.983 546.473 20.2812C546.984 20.5748 547.579 20.7216 548.256 20.7216C548.696 20.7216 549.094 20.66 549.449 20.5369C549.809 20.4091 550.119 20.2197 550.379 19.9688C550.64 19.7131 550.841 19.3958 550.983 19.017L552.602 19.4716C552.432 20.0208 552.145 20.5038 551.743 20.9205C551.34 21.3324 550.843 21.6544 550.251 21.8864C549.659 22.1136 548.994 22.2273 548.256 22.2273ZM561.824 15.4375V22H560.147V7.45455H561.824V12.7955H561.966C562.221 12.232 562.605 11.7846 563.116 11.4531C563.632 11.117 564.319 10.9489 565.176 10.9489C565.919 10.9489 566.57 11.098 567.129 11.3963C567.688 11.6899 568.121 12.142 568.429 12.7528C568.741 13.3589 568.897 14.1307 568.897 15.0682V22H567.221V15.1818C567.221 14.3153 566.996 13.6454 566.547 13.1719C566.101 12.6937 565.484 12.4545 564.693 12.4545C564.144 12.4545 563.651 12.5705 563.216 12.8026C562.785 13.0346 562.444 13.3731 562.193 13.8182C561.947 14.2633 561.824 14.803 561.824 15.4375ZM574.774 22.2557C574.083 22.2557 573.455 22.1255 572.892 21.8651C572.328 21.5999 571.881 21.2188 571.55 20.7216C571.218 20.2197 571.052 19.6136 571.052 18.9034C571.052 18.2784 571.175 17.7718 571.422 17.3835C571.668 16.9905 571.997 16.6828 572.409 16.4602C572.821 16.2377 573.275 16.072 573.773 15.9631C574.274 15.8494 574.779 15.7595 575.285 15.6932C575.948 15.608 576.486 15.544 576.898 15.5014C577.314 15.4541 577.617 15.3759 577.807 15.267C578.001 15.1581 578.098 14.9687 578.098 14.6989V14.642C578.098 13.9413 577.906 13.3968 577.523 13.0085C577.144 12.6203 576.568 12.4261 575.797 12.4261C574.997 12.4261 574.369 12.6013 573.915 12.9517C573.46 13.3021 573.14 13.6761 572.956 14.0739L571.365 13.5057C571.649 12.8428 572.028 12.3267 572.501 11.9574C572.979 11.5833 573.5 11.3229 574.064 11.1761C574.632 11.0246 575.191 10.9489 575.74 10.9489C576.09 10.9489 576.493 10.9915 576.947 11.0767C577.407 11.1572 577.849 11.3253 578.275 11.581C578.706 11.8366 579.064 12.2225 579.348 12.7386C579.632 13.2547 579.774 13.946 579.774 14.8125V22H578.098V20.5227H578.013C577.899 20.7595 577.71 21.0128 577.444 21.2827C577.179 21.5526 576.827 21.7822 576.386 21.9716C575.946 22.161 575.408 22.2557 574.774 22.2557ZM575.03 20.75C575.693 20.75 576.251 20.6198 576.706 20.3594C577.165 20.099 577.511 19.7628 577.743 19.3509C577.979 18.9389 578.098 18.5057 578.098 18.0511V16.517C578.027 16.6023 577.871 16.6804 577.629 16.7514C577.392 16.8177 577.118 16.8769 576.805 16.929C576.497 16.9763 576.197 17.0189 575.903 17.0568C575.614 17.09 575.38 17.1184 575.2 17.142C574.765 17.1989 574.357 17.2912 573.979 17.419C573.604 17.5421 573.301 17.7292 573.069 17.9801C572.842 18.2263 572.729 18.5625 572.729 18.9886C572.729 19.571 572.944 20.0114 573.375 20.3097C573.81 20.6032 574.362 20.75 575.03 20.75ZM590.963 11.0909L586.929 22H585.225L581.19 11.0909H583.009L586.02 19.7841H586.134L589.145 11.0909H590.963ZM596.959 22.2273C595.908 22.2273 595.001 21.9953 594.239 21.5312C593.481 21.0625 592.896 20.4091 592.484 19.571C592.077 18.7282 591.873 17.7481 591.873 16.6307C591.873 15.5133 592.077 14.5284 592.484 13.6761C592.896 12.8191 593.469 12.1515 594.203 11.6733C594.942 11.1903 595.803 10.9489 596.788 10.9489C597.356 10.9489 597.918 11.0436 598.472 11.233C599.025 11.4223 599.53 11.7301 599.984 12.1562C600.439 12.5777 600.801 13.1364 601.071 13.8324C601.341 14.5284 601.476 15.3854 601.476 16.4034V17.1136H593.067V15.6648H599.771C599.771 15.0492 599.648 14.5 599.402 14.017C599.16 13.5341 598.815 13.1529 598.365 12.8736C597.92 12.5942 597.394 12.4545 596.788 12.4545C596.121 12.4545 595.543 12.6203 595.055 12.9517C594.572 13.2784 594.201 13.7045 593.94 14.2301C593.68 14.7557 593.55 15.3191 593.55 15.9205V16.8864C593.55 17.7102 593.692 18.4086 593.976 18.9815C594.265 19.5497 594.665 19.983 595.176 20.2812C595.687 20.5748 596.282 20.7216 596.959 20.7216C597.399 20.7216 597.797 20.66 598.152 20.5369C598.512 20.4091 598.822 20.2197 599.082 19.9688C599.343 19.7131 599.544 19.3958 599.686 19.017L601.305 19.4716C601.135 20.0208 600.848 20.5038 600.446 20.9205C600.043 21.3324 599.546 21.6544 598.954 21.8864C598.363 22.1136 597.697 22.2273 596.959 22.2273ZM613.595 11.0909V12.5114H607.941V11.0909H613.595ZM609.589 8.47727H611.265V18.875C611.265 19.3485 611.334 19.7036 611.471 19.9403C611.613 20.1723 611.793 20.3286 612.011 20.4091C612.234 20.4848 612.468 20.5227 612.714 20.5227C612.899 20.5227 613.05 20.5133 613.169 20.4943C613.287 20.4706 613.382 20.4517 613.453 20.4375L613.794 21.9432C613.68 21.9858 613.521 22.0284 613.318 22.071C613.114 22.1184 612.856 22.142 612.544 22.142C612.07 22.142 611.606 22.0402 611.152 21.8366C610.702 21.633 610.328 21.3229 610.029 20.9062C609.736 20.4896 609.589 19.964 609.589 19.3295V8.47727ZM617.627 15.4375V22H615.95V7.45455H617.627V12.7955H617.769C618.024 12.232 618.408 11.7846 618.919 11.4531C619.435 11.117 620.122 10.9489 620.979 10.9489C621.722 10.9489 622.373 11.098 622.932 11.3963C623.491 11.6899 623.924 12.142 624.232 12.7528C624.544 13.3589 624.7 14.1307 624.7 15.0682V22H623.024V15.1818C623.024 14.3153 622.799 13.6454 622.35 13.1719C621.905 12.6937 621.287 12.4545 620.496 12.4545C619.947 12.4545 619.454 12.5705 619.019 12.8026C618.588 13.0346 618.247 13.3731 617.996 13.8182C617.75 14.2633 617.627 14.803 617.627 15.4375ZM631.941 22.2273C630.89 22.2273 629.983 21.9953 629.221 21.5312C628.463 21.0625 627.878 20.4091 627.466 19.571C627.059 18.7282 626.856 17.7481 626.856 16.6307C626.856 15.5133 627.059 14.5284 627.466 13.6761C627.878 12.8191 628.451 12.1515 629.185 11.6733C629.924 11.1903 630.785 10.9489 631.77 10.9489C632.339 10.9489 632.9 11.0436 633.454 11.233C634.008 11.4223 634.512 11.7301 634.966 12.1562C635.421 12.5777 635.783 13.1364 636.053 13.8324C636.323 14.5284 636.458 15.3854 636.458 16.4034V17.1136H628.049V15.6648H634.753C634.753 15.0492 634.63 14.5 634.384 14.017C634.142 13.5341 633.797 13.1529 633.347 12.8736C632.902 12.5942 632.376 12.4545 631.77 12.4545C631.103 12.4545 630.525 12.6203 630.037 12.9517C629.554 13.2784 629.183 13.7045 628.922 14.2301C628.662 14.7557 628.532 15.3191 628.532 15.9205V16.8864C628.532 17.7102 628.674 18.4086 628.958 18.9815C629.247 19.5497 629.647 19.983 630.158 20.2812C630.669 20.5748 631.264 20.7216 631.941 20.7216C632.381 20.7216 632.779 20.66 633.134 20.5369C633.494 20.4091 633.804 20.2197 634.064 19.9688C634.325 19.7131 634.526 19.3958 634.668 19.017L636.287 19.4716C636.117 20.0208 635.83 20.5038 635.428 20.9205C635.026 21.3324 634.528 21.6544 633.937 21.8864C633.345 22.1136 632.679 22.2273 631.941 22.2273ZM644.06 22V7.45455H645.736V12.8239H645.878C646.001 12.6345 646.172 12.393 646.389 12.0994C646.612 11.8011 646.929 11.536 647.341 11.304C647.758 11.0672 648.321 10.9489 649.031 10.9489C649.95 10.9489 650.76 11.1785 651.46 11.6378C652.161 12.0971 652.708 12.7481 653.101 13.5909C653.494 14.4337 653.691 15.428 653.691 16.5739C653.691 17.7292 653.494 18.7306 653.101 19.5781C652.708 20.4209 652.164 21.0743 651.467 21.5384C650.771 21.9976 649.969 22.2273 649.06 22.2273C648.359 22.2273 647.798 22.1113 647.377 21.8793C646.955 21.6425 646.631 21.375 646.404 21.0767C646.176 20.7737 646.001 20.5227 645.878 20.3239H645.679V22H644.06ZM645.708 16.5455C645.708 17.3693 645.828 18.0961 646.07 18.7259C646.311 19.3509 646.664 19.8409 647.128 20.196C647.592 20.5464 648.16 20.7216 648.833 20.7216C649.533 20.7216 650.118 20.5369 650.587 20.1676C651.06 19.7936 651.415 19.2917 651.652 18.6619C651.894 18.0275 652.014 17.322 652.014 16.5455C652.014 15.7784 651.896 15.0871 651.659 14.4716C651.427 13.8513 651.075 13.3613 650.601 13.0014C650.132 12.6368 649.543 12.4545 648.833 12.4545C648.151 12.4545 647.578 12.6274 647.114 12.973C646.65 13.3139 646.299 13.7921 646.063 14.4077C645.826 15.0185 645.708 15.7311 645.708 16.5455ZM660.428 22.2273C659.377 22.2273 658.47 21.9953 657.708 21.5312C656.951 21.0625 656.366 20.4091 655.954 19.571C655.547 18.7282 655.343 17.7481 655.343 16.6307C655.343 15.5133 655.547 14.5284 655.954 13.6761C656.366 12.8191 656.939 12.1515 657.673 11.6733C658.411 11.1903 659.273 10.9489 660.258 10.9489C660.826 10.9489 661.387 11.0436 661.941 11.233C662.495 11.4223 662.999 11.7301 663.454 12.1562C663.908 12.5777 664.271 13.1364 664.54 13.8324C664.81 14.5284 664.945 15.3854 664.945 16.4034V17.1136H656.536V15.6648H663.241C663.241 15.0492 663.118 14.5 662.871 14.017C662.63 13.5341 662.284 13.1529 661.835 12.8736C661.389 12.5942 660.864 12.4545 660.258 12.4545C659.59 12.4545 659.013 12.6203 658.525 12.9517C658.042 13.2784 657.67 13.7045 657.41 14.2301C657.149 14.7557 657.019 15.3191 657.019 15.9205V16.8864C657.019 17.7102 657.161 18.4086 657.445 18.9815C657.734 19.5497 658.134 19.983 658.646 20.2812C659.157 20.5748 659.751 20.7216 660.428 20.7216C660.869 20.7216 661.266 20.66 661.621 20.5369C661.981 20.4091 662.291 20.2197 662.552 19.9688C662.812 19.7131 663.013 19.3958 663.156 19.017L664.775 19.4716C664.604 20.0208 664.318 20.5038 663.915 20.9205C663.513 21.3324 663.016 21.6544 662.424 21.8864C661.832 22.1136 661.167 22.2273 660.428 22.2273ZM674.822 13.5341L673.317 13.9602C673.222 13.7093 673.082 13.4654 672.898 13.2287C672.718 12.9872 672.471 12.7884 672.159 12.6321C671.846 12.4759 671.446 12.3977 670.959 12.3977C670.291 12.3977 669.735 12.5516 669.29 12.8594C668.849 13.1624 668.629 13.5483 668.629 14.017C668.629 14.4337 668.781 14.7628 669.084 15.0043C669.387 15.2457 669.86 15.447 670.504 15.608L672.123 16.0057C673.099 16.2424 673.826 16.6046 674.304 17.0923C674.782 17.5753 675.021 18.1979 675.021 18.9602C675.021 19.5852 674.841 20.1439 674.481 20.6364C674.126 21.1288 673.629 21.517 672.99 21.8011C672.351 22.0852 671.607 22.2273 670.76 22.2273C669.647 22.2273 668.726 21.9858 667.997 21.5028C667.268 21.0199 666.806 20.3144 666.612 19.3864L668.203 18.9886C668.354 19.5758 668.641 20.0161 669.062 20.3097C669.488 20.6032 670.045 20.75 670.731 20.75C671.513 20.75 672.133 20.5843 672.592 20.2528C673.056 19.9167 673.288 19.5142 673.288 19.0455C673.288 18.6667 673.156 18.3494 672.89 18.0938C672.625 17.8333 672.218 17.6392 671.669 17.5114L669.851 17.0852C668.852 16.8485 668.118 16.4815 667.649 15.9844C667.185 15.4825 666.953 14.8551 666.953 14.1023C666.953 13.4867 667.126 12.9422 667.471 12.4688C667.822 11.9953 668.298 11.6236 668.899 11.3537C669.505 11.0838 670.192 10.9489 670.959 10.9489C672.038 10.9489 672.886 11.1856 673.501 11.6591C674.122 12.1326 674.562 12.7576 674.822 13.5341ZM681.889 11.0909V12.5114H676.235V11.0909H681.889ZM677.883 8.47727H679.559V18.875C679.559 19.3485 679.628 19.7036 679.765 19.9403C679.907 20.1723 680.087 20.3286 680.305 20.4091C680.527 20.4848 680.762 20.5227 681.008 20.5227C681.193 20.5227 681.344 20.5133 681.462 20.4943C681.581 20.4706 681.676 20.4517 681.747 20.4375L682.087 21.9432C681.974 21.9858 681.815 22.0284 681.612 22.071C681.408 22.1184 681.15 22.142 680.837 22.142C680.364 22.142 679.9 22.0402 679.445 21.8366C678.996 21.633 678.622 21.3229 678.323 20.9062C678.03 20.4896 677.883 19.964 677.883 19.3295V8.47727ZM28.7443 52.2557C28.053 52.2557 27.4257 52.1255 26.8622 51.8651C26.2988 51.5999 25.8513 51.2188 25.5199 50.7216C25.1884 50.2197 25.0227 49.6136 25.0227 48.9034C25.0227 48.2784 25.1458 47.7718 25.392 47.3835C25.6383 46.9905 25.9673 46.6828 26.3793 46.4602C26.7912 46.2377 27.2457 46.072 27.7429 45.9631C28.2448 45.8494 28.7491 45.7595 29.2557 45.6932C29.9186 45.608 30.456 45.544 30.8679 45.5014C31.2846 45.4541 31.5876 45.3759 31.777 45.267C31.9711 45.1581 32.0682 44.9687 32.0682 44.6989V44.642C32.0682 43.9413 31.8764 43.3968 31.4929 43.0085C31.1141 42.6203 30.5388 42.4261 29.767 42.4261C28.9669 42.4261 28.3395 42.6013 27.8849 42.9517C27.4304 43.3021 27.1108 43.6761 26.9261 44.0739L25.3352 43.5057C25.6193 42.8428 25.9981 42.3267 26.4716 41.9574C26.9498 41.5833 27.4706 41.3229 28.0341 41.1761C28.6023 41.0246 29.161 40.9489 29.7102 40.9489C30.0606 40.9489 30.4631 40.9915 30.9176 41.0767C31.3769 41.1572 31.8196 41.3253 32.2457 41.581C32.6766 41.8366 33.0341 42.2225 33.3182 42.7386C33.6023 43.2547 33.7443 43.946 33.7443 44.8125V52H32.0682V50.5227H31.983C31.8693 50.7595 31.6799 51.0128 31.4148 51.2827C31.1496 51.5526 30.7969 51.7822 30.3565 51.9716C29.9162 52.161 29.3788 52.2557 28.7443 52.2557ZM29 50.75C29.6629 50.75 30.2216 50.6198 30.6761 50.3594C31.1354 50.099 31.4811 49.7628 31.7131 49.3509C31.9498 48.9389 32.0682 48.5057 32.0682 48.0511V46.517C31.9972 46.6023 31.8409 46.6804 31.5994 46.7514C31.3627 46.8177 31.0881 46.8769 30.7756 46.929C30.4678 46.9763 30.1671 47.0189 29.8736 47.0568C29.5848 47.09 29.3504 47.1184 29.1705 47.142C28.7348 47.1989 28.3277 47.2912 27.9489 47.419C27.5748 47.5421 27.2718 47.7292 27.0398 47.9801C26.8125 48.2263 26.6989 48.5625 26.6989 48.9886C26.6989 49.571 26.9143 50.0114 27.3452 50.3097C27.7808 50.6032 28.3324 50.75 29 50.75ZM38.0798 45.4375V52H36.4036V41.0909H38.0229V42.7955H38.165C38.4207 42.2415 38.8089 41.7964 39.3298 41.4602C39.8506 41.1193 40.5229 40.9489 41.3468 40.9489C42.0854 40.9489 42.7317 41.1004 43.2857 41.4034C43.8397 41.7017 44.2706 42.1562 44.5783 42.767C44.8861 43.3731 45.04 44.1402 45.04 45.0682V52H43.3639V45.1818C43.3639 44.3248 43.1413 43.6572 42.6962 43.179C42.2512 42.696 41.6404 42.4545 40.8638 42.4545C40.3288 42.4545 39.8506 42.5705 39.4292 42.8026C39.0125 43.0346 38.6835 43.3731 38.442 43.8182C38.2005 44.2633 38.0798 44.803 38.0798 45.4375ZM51.8222 52.2273C50.9131 52.2273 50.1105 51.9976 49.4145 51.5384C48.7185 51.0743 48.174 50.4209 47.781 49.5781C47.388 48.7306 47.1915 47.7292 47.1915 46.5739C47.1915 45.428 47.388 44.4337 47.781 43.5909C48.174 42.7481 48.7208 42.0971 49.4216 41.6378C50.1223 41.1785 50.932 40.9489 51.8506 40.9489C52.5608 40.9489 53.1219 41.0672 53.5338 41.304C53.9505 41.536 54.2677 41.8011 54.4855 42.0994C54.7081 42.393 54.8809 42.6345 55.004 42.8239H55.146V37.4545H56.8222V52H55.2028V50.3239H55.004C54.8809 50.5227 54.7057 50.7737 54.4784 51.0767C54.2511 51.375 53.9268 51.6425 53.5054 51.8793C53.084 52.1113 52.5229 52.2273 51.8222 52.2273ZM52.0494 50.7216C52.7218 50.7216 53.29 50.5464 53.754 50.196C54.218 49.8409 54.5707 49.3509 54.8122 48.7259C55.0537 48.0961 55.1744 47.3693 55.1744 46.5455C55.1744 45.7311 55.0561 45.0185 54.8193 44.4077C54.5826 43.7921 54.2322 43.3139 53.7682 42.973C53.3042 42.6274 52.7313 42.4545 52.0494 42.4545C51.3392 42.4545 50.7473 42.6368 50.2739 43.0014C49.8051 43.3613 49.4524 43.8513 49.2156 44.4716C48.9836 45.0871 48.8676 45.7784 48.8676 46.5455C48.8676 47.322 48.986 48.0275 49.2227 48.6619C49.4642 49.2917 49.8193 49.7936 50.2881 50.1676C50.7616 50.5369 51.3487 50.7216 52.0494 50.7216ZM64.9497 52V41.0909H66.569V42.7955H66.7111C66.9384 42.2131 67.3053 41.7609 67.8119 41.4389C68.3186 41.1122 68.927 40.9489 69.6372 40.9489C70.3569 40.9489 70.9559 41.1122 71.4341 41.4389C71.917 41.7609 72.2935 42.2131 72.5634 42.7955H72.677C72.9563 42.232 73.3754 41.7846 73.9341 41.4531C74.4928 41.117 75.1628 40.9489 75.944 40.9489C76.9194 40.9489 77.7172 41.2543 78.3375 41.8651C78.9578 42.4711 79.2679 43.4157 79.2679 44.6989V52H77.5918V44.6989C77.5918 43.8939 77.3716 43.3187 76.9313 42.973C76.4909 42.6274 75.9724 42.4545 75.3759 42.4545C74.6088 42.4545 74.0146 42.6866 73.5932 43.1506C73.1718 43.6098 72.9611 44.1922 72.9611 44.8977V52H71.2565V44.5284C71.2565 43.9081 71.0553 43.4086 70.6528 43.0298C70.2504 42.6463 69.7319 42.4545 69.0974 42.4545C68.6618 42.4545 68.2546 42.5705 67.8759 42.8026C67.5018 43.0346 67.1988 43.3565 66.9668 43.7685C66.7395 44.1757 66.6259 44.6468 66.6259 45.1818V52H64.9497ZM86.3643 52.2273C85.3795 52.2273 84.5154 51.9929 83.772 51.5241C83.0334 51.0554 82.4557 50.3996 82.0391 49.5568C81.6271 48.714 81.4212 47.7292 81.4212 46.6023C81.4212 45.4659 81.6271 44.474 82.0391 43.6264C82.4557 42.7789 83.0334 42.1207 83.772 41.652C84.5154 41.1832 85.3795 40.9489 86.3643 40.9489C87.3492 40.9489 88.2109 41.1832 88.9496 41.652C89.6929 42.1207 90.2706 42.7789 90.6825 43.6264C91.0992 44.474 91.3075 45.4659 91.3075 46.6023C91.3075 47.7292 91.0992 48.714 90.6825 49.5568C90.2706 50.3996 89.6929 51.0554 88.9496 51.5241C88.2109 51.9929 87.3492 52.2273 86.3643 52.2273ZM86.3643 50.7216C87.1125 50.7216 87.728 50.5298 88.2109 50.1463C88.6939 49.7628 89.0514 49.2585 89.2834 48.6335C89.5154 48.0085 89.6314 47.3314 89.6314 46.6023C89.6314 45.8731 89.5154 45.1937 89.2834 44.5639C89.0514 43.9342 88.6939 43.4252 88.2109 43.0369C87.728 42.6487 87.1125 42.4545 86.3643 42.4545C85.6162 42.4545 85.0007 42.6487 84.5178 43.0369C84.0348 43.4252 83.6773 43.9342 83.4453 44.5639C83.2133 45.1937 83.0973 45.8731 83.0973 46.6023C83.0973 47.3314 83.2133 48.0085 83.4453 48.6335C83.6773 49.2585 84.0348 49.7628 84.5178 50.1463C85.0007 50.5298 85.6162 50.7216 86.3643 50.7216ZM101.193 43.5341L99.6877 43.9602C99.593 43.7093 99.4533 43.4654 99.2687 43.2287C99.0888 42.9872 98.8425 42.7884 98.53 42.6321C98.2175 42.4759 97.8174 42.3977 97.3298 42.3977C96.6621 42.3977 96.1058 42.5516 95.6607 42.8594C95.2204 43.1624 95.0002 43.5483 95.0002 44.017C95.0002 44.4337 95.1517 44.7628 95.4548 45.0043C95.7578 45.2457 96.2313 45.447 96.8752 45.608L98.4945 46.0057C99.4699 46.2424 100.197 46.6046 100.675 47.0923C101.153 47.5753 101.392 48.1979 101.392 48.9602C101.392 49.5852 101.212 50.1439 100.852 50.6364C100.497 51.1288 100 51.517 99.361 51.8011C98.7218 52.0852 97.9784 52.2273 97.1309 52.2273C96.0182 52.2273 95.0973 51.9858 94.3681 51.5028C93.6389 51.0199 93.1773 50.3144 92.9832 49.3864L94.5741 48.9886C94.7256 49.5758 95.012 50.0161 95.4335 50.3097C95.8596 50.6032 96.4159 50.75 97.1025 50.75C97.8837 50.75 98.504 50.5843 98.9633 50.2528C99.4273 49.9167 99.6593 49.5142 99.6593 49.0455C99.6593 48.6667 99.5267 48.3494 99.2616 48.0938C98.9964 47.8333 98.5892 47.6392 98.04 47.5114L96.2218 47.0852C95.2227 46.8485 94.4888 46.4815 94.0201 45.9844C93.5561 45.4825 93.3241 44.8551 93.3241 44.1023C93.3241 43.4867 93.4969 42.9422 93.8425 42.4688C94.1929 41.9953 94.6688 41.6236 95.2701 41.3537C95.8762 41.0838 96.5627 40.9489 97.3298 40.9489C98.4093 40.9489 99.2568 41.1856 99.8724 41.6591C100.493 42.1326 100.933 42.7576 101.193 43.5341ZM108.26 41.0909V42.5114H102.606V41.0909H108.26ZM104.254 38.4773H105.93V48.875C105.93 49.3485 105.999 49.7036 106.136 49.9403C106.278 50.1723 106.458 50.3286 106.676 50.4091C106.898 50.4848 107.133 50.5227 107.379 50.5227C107.564 50.5227 107.715 50.5133 107.834 50.4943C107.952 50.4706 108.047 50.4517 108.118 50.4375L108.459 51.9432C108.345 51.9858 108.186 52.0284 107.983 52.071C107.779 52.1184 107.521 52.142 107.209 52.142C106.735 52.142 106.271 52.0402 105.816 51.8366C105.367 51.633 104.993 51.3229 104.694 50.9062C104.401 50.4896 104.254 49.964 104.254 49.3295V38.4773ZM118.816 52.2557C118.125 52.2557 117.498 52.1255 116.934 51.8651C116.371 51.5999 115.923 51.2188 115.592 50.7216C115.26 50.2197 115.095 49.6136 115.095 48.9034C115.095 48.2784 115.218 47.7718 115.464 47.3835C115.71 46.9905 116.039 46.6828 116.451 46.4602C116.863 46.2377 117.318 46.072 117.815 45.9631C118.317 45.8494 118.821 45.7595 119.328 45.6932C119.99 45.608 120.528 45.544 120.94 45.5014C121.356 45.4541 121.659 45.3759 121.849 45.267C122.043 45.1581 122.14 44.9687 122.14 44.6989V44.642C122.14 43.9413 121.948 43.3968 121.565 43.0085C121.186 42.6203 120.611 42.4261 119.839 42.4261C119.039 42.4261 118.411 42.6013 117.957 42.9517C117.502 43.3021 117.183 43.6761 116.998 44.0739L115.407 43.5057C115.691 42.8428 116.07 42.3267 116.543 41.9574C117.022 41.5833 117.543 41.3229 118.106 41.1761C118.674 41.0246 119.233 40.9489 119.782 40.9489C120.132 40.9489 120.535 40.9915 120.989 41.0767C121.449 41.1572 121.891 41.3253 122.318 41.581C122.748 41.8366 123.106 42.2225 123.39 42.7386C123.674 43.2547 123.816 43.946 123.816 44.8125V52H122.14V50.5227H122.055C121.941 50.7595 121.752 51.0128 121.487 51.2827C121.221 51.5526 120.869 51.7822 120.428 51.9716C119.988 52.161 119.451 52.2557 118.816 52.2557ZM119.072 50.75C119.735 50.75 120.293 50.6198 120.748 50.3594C121.207 50.099 121.553 49.7628 121.785 49.3509C122.022 48.9389 122.14 48.5057 122.14 48.0511V46.517C122.069 46.6023 121.913 46.6804 121.671 46.7514C121.435 46.8177 121.16 46.8769 120.847 46.929C120.54 46.9763 120.239 47.0189 119.945 47.0568C119.657 47.09 119.422 47.1184 119.242 47.142C118.807 47.1989 118.4 47.2912 118.021 47.419C117.647 47.5421 117.344 47.7292 117.112 47.9801C116.884 48.2263 116.771 48.5625 116.771 48.9886C116.771 49.571 116.986 50.0114 117.417 50.3097C117.853 50.6032 118.404 50.75 119.072 50.75ZM131.333 41.0909V42.5114H125.453V41.0909H131.333ZM127.214 52V39.5852C127.214 38.9602 127.361 38.4394 127.654 38.0227C127.948 37.6061 128.329 37.2936 128.798 37.0852C129.267 36.8769 129.761 36.7727 130.282 36.7727C130.694 36.7727 131.03 36.8059 131.291 36.8722C131.551 36.9384 131.745 37 131.873 37.0568L131.39 38.5057C131.305 38.4773 131.187 38.4418 131.035 38.3991C130.888 38.3565 130.694 38.3352 130.453 38.3352C129.899 38.3352 129.499 38.4749 129.252 38.7543C129.011 39.0336 128.89 39.4432 128.89 39.983V52H127.214ZM138.14 41.0909V42.5114H132.26V41.0909H138.14ZM134.021 52V39.5852C134.021 38.9602 134.168 38.4394 134.462 38.0227C134.755 37.6061 135.136 37.2936 135.605 37.0852C136.074 36.8769 136.569 36.7727 137.089 36.7727C137.501 36.7727 137.837 36.8059 138.098 36.8722C138.358 36.9384 138.552 37 138.68 37.0568L138.197 38.5057C138.112 38.4773 137.994 38.4418 137.842 38.3991C137.695 38.3565 137.501 38.3352 137.26 38.3352C136.706 38.3352 136.306 38.4749 136.06 38.7543C135.818 39.0336 135.697 39.4432 135.697 39.983V52H134.021ZM144.072 52.2273C143.087 52.2273 142.223 51.9929 141.48 51.5241C140.741 51.0554 140.164 50.3996 139.747 49.5568C139.335 48.714 139.129 47.7292 139.129 46.6023C139.129 45.4659 139.335 44.474 139.747 43.6264C140.164 42.7789 140.741 42.1207 141.48 41.652C142.223 41.1832 143.087 40.9489 144.072 40.9489C145.057 40.9489 145.919 41.1832 146.657 41.652C147.401 42.1207 147.978 42.7789 148.39 43.6264C148.807 44.474 149.015 45.4659 149.015 46.6023C149.015 47.7292 148.807 48.714 148.39 49.5568C147.978 50.3996 147.401 51.0554 146.657 51.5241C145.919 51.9929 145.057 52.2273 144.072 52.2273ZM144.072 50.7216C144.82 50.7216 145.436 50.5298 145.919 50.1463C146.402 49.7628 146.759 49.2585 146.991 48.6335C147.223 48.0085 147.339 47.3314 147.339 46.6023C147.339 45.8731 147.223 45.1937 146.991 44.5639C146.759 43.9342 146.402 43.4252 145.919 43.0369C145.436 42.6487 144.82 42.4545 144.072 42.4545C143.324 42.4545 142.709 42.6487 142.226 43.0369C141.743 43.4252 141.385 43.9342 141.153 44.5639C140.921 45.1937 140.805 45.8731 140.805 46.6023C140.805 47.3314 140.921 48.0085 141.153 48.6335C141.385 49.2585 141.743 49.7628 142.226 50.1463C142.709 50.5298 143.324 50.7216 144.072 50.7216ZM151.174 52V41.0909H152.793V42.7386H152.907C153.106 42.1989 153.466 41.7609 153.986 41.4247C154.507 41.0885 155.094 40.9205 155.748 40.9205C155.871 40.9205 156.025 40.9228 156.209 40.9276C156.394 40.9323 156.534 40.9394 156.628 40.9489V42.6534C156.572 42.6392 156.441 42.6179 156.238 42.5895C156.039 42.5563 155.828 42.5398 155.606 42.5398C155.075 42.5398 154.602 42.651 154.185 42.8736C153.773 43.0914 153.447 43.3944 153.205 43.7827C152.968 44.1662 152.85 44.6042 152.85 45.0966V52H151.174ZM162.003 52.2273C161.094 52.2273 160.291 51.9976 159.595 51.5384C158.899 51.0743 158.354 50.4209 157.961 49.5781C157.568 48.7306 157.372 47.7292 157.372 46.5739C157.372 45.428 157.568 44.4337 157.961 43.5909C158.354 42.7481 158.901 42.0971 159.602 41.6378C160.303 41.1785 161.112 40.9489 162.031 40.9489C162.741 40.9489 163.302 41.0672 163.714 41.304C164.131 41.536 164.448 41.8011 164.666 42.0994C164.889 42.393 165.061 42.6345 165.184 42.8239H165.326V37.4545H167.003V52H165.383V50.3239H165.184C165.061 50.5227 164.886 50.7737 164.659 51.0767C164.432 51.375 164.107 51.6425 163.686 51.8793C163.264 52.1113 162.703 52.2273 162.003 52.2273ZM162.23 50.7216C162.902 50.7216 163.47 50.5464 163.934 50.196C164.398 49.8409 164.751 49.3509 164.993 48.7259C165.234 48.0961 165.355 47.3693 165.355 46.5455C165.355 45.7311 165.237 45.0185 165 44.4077C164.763 43.7921 164.413 43.3139 163.949 42.973C163.485 42.6274 162.912 42.4545 162.23 42.4545C161.52 42.4545 160.928 42.6368 160.454 43.0014C159.986 43.3613 159.633 43.8513 159.396 44.4716C159.164 45.0871 159.048 45.7784 159.048 46.5455C159.048 47.322 159.166 48.0275 159.403 48.6619C159.645 49.2917 160 49.7936 160.469 50.1676C160.942 50.5369 161.529 50.7216 162.23 50.7216ZM173.115 52.2557C172.424 52.2557 171.797 52.1255 171.233 51.8651C170.67 51.5999 170.222 51.2188 169.891 50.7216C169.56 50.2197 169.394 49.6136 169.394 48.9034C169.394 48.2784 169.517 47.7718 169.763 47.3835C170.009 46.9905 170.338 46.6828 170.75 46.4602C171.162 46.2377 171.617 46.072 172.114 45.9631C172.616 45.8494 173.12 45.7595 173.627 45.6932C174.29 45.608 174.827 45.544 175.239 45.5014C175.656 45.4541 175.959 45.3759 176.148 45.267C176.342 45.1581 176.439 44.9687 176.439 44.6989V44.642C176.439 43.9413 176.248 43.3968 175.864 43.0085C175.485 42.6203 174.91 42.4261 174.138 42.4261C173.338 42.4261 172.711 42.6013 172.256 42.9517C171.801 43.3021 171.482 43.6761 171.297 44.0739L169.706 43.5057C169.99 42.8428 170.369 42.3267 170.843 41.9574C171.321 41.5833 171.842 41.3229 172.405 41.1761C172.973 41.0246 173.532 40.9489 174.081 40.9489C174.432 40.9489 174.834 40.9915 175.289 41.0767C175.748 41.1572 176.191 41.3253 176.617 41.581C177.048 41.8366 177.405 42.2225 177.689 42.7386C177.973 43.2547 178.115 43.946 178.115 44.8125V52H176.439V50.5227H176.354C176.24 50.7595 176.051 51.0128 175.786 51.2827C175.521 51.5526 175.168 51.7822 174.728 51.9716C174.287 52.161 173.75 52.2557 173.115 52.2557ZM173.371 50.75C174.034 50.75 174.593 50.6198 175.047 50.3594C175.507 50.099 175.852 49.7628 176.084 49.3509C176.321 48.9389 176.439 48.5057 176.439 48.0511V46.517C176.368 46.6023 176.212 46.6804 175.971 46.7514C175.734 46.8177 175.459 46.8769 175.147 46.929C174.839 46.9763 174.538 47.0189 174.245 47.0568C173.956 47.09 173.721 47.1184 173.542 47.142C173.106 47.1989 172.699 47.2912 172.32 47.419C171.946 47.5421 171.643 47.7292 171.411 47.9801C171.184 48.2263 171.07 48.5625 171.07 48.9886C171.07 49.571 171.285 50.0114 171.716 50.3097C172.152 50.6032 172.703 50.75 173.371 50.75ZM181.002 52V37.4545H182.678V42.8239H182.82C182.943 42.6345 183.114 42.393 183.332 42.0994C183.554 41.8011 183.871 41.536 184.283 41.304C184.7 41.0672 185.263 40.9489 185.974 40.9489C186.892 40.9489 187.702 41.1785 188.403 41.6378C189.103 42.0971 189.65 42.7481 190.043 43.5909C190.436 44.4337 190.633 45.428 190.633 46.5739C190.633 47.7292 190.436 48.7306 190.043 49.5781C189.65 50.4209 189.106 51.0743 188.41 51.5384C187.714 51.9976 186.911 52.2273 186.002 52.2273C185.301 52.2273 184.74 52.1113 184.319 51.8793C183.897 51.6425 183.573 51.375 183.346 51.0767C183.118 50.7737 182.943 50.5227 182.82 50.3239H182.621V52H181.002ZM182.65 46.5455C182.65 47.3693 182.77 48.0961 183.012 48.7259C183.253 49.3509 183.606 49.8409 184.07 50.196C184.534 50.5464 185.102 50.7216 185.775 50.7216C186.475 50.7216 187.06 50.5369 187.529 50.1676C188.002 49.7936 188.358 49.2917 188.594 48.6619C188.836 48.0275 188.957 47.322 188.957 46.5455C188.957 45.7784 188.838 45.0871 188.601 44.4716C188.369 43.8513 188.017 43.3613 187.543 43.0014C187.074 42.6368 186.485 42.4545 185.775 42.4545C185.093 42.4545 184.52 42.6274 184.056 42.973C183.592 43.3139 183.242 43.7921 183.005 44.4077C182.768 45.0185 182.65 45.7311 182.65 46.5455ZM194.473 37.4545V52H192.797V37.4545H194.473ZM201.717 52.2273C200.665 52.2273 199.759 51.9953 198.996 51.5312C198.239 51.0625 197.654 50.4091 197.242 49.571C196.835 48.7282 196.631 47.7481 196.631 46.6307C196.631 45.5133 196.835 44.5284 197.242 43.6761C197.654 42.8191 198.227 42.1515 198.961 41.6733C199.7 41.1903 200.561 40.9489 201.546 40.9489C202.114 40.9489 202.675 41.0436 203.229 41.233C203.783 41.4223 204.288 41.7301 204.742 42.1562C205.197 42.5777 205.559 43.1364 205.829 43.8324C206.099 44.5284 206.234 45.3854 206.234 46.4034V47.1136H197.825V45.6648H204.529C204.529 45.0492 204.406 44.5 204.16 44.017C203.918 43.5341 203.573 43.1529 203.123 42.8736C202.678 42.5942 202.152 42.4545 201.546 42.4545C200.878 42.4545 200.301 42.6203 199.813 42.9517C199.33 43.2784 198.959 43.7045 198.698 44.2301C198.438 44.7557 198.307 45.3191 198.307 45.9205V46.8864C198.307 47.7102 198.45 48.4086 198.734 48.9815C199.022 49.5497 199.423 49.983 199.934 50.2812C200.445 50.5748 201.039 50.7216 201.717 50.7216C202.157 50.7216 202.555 50.66 202.91 50.5369C203.27 50.4091 203.58 50.2197 203.84 49.9688C204.101 49.7131 204.302 49.3958 204.444 49.017L206.063 49.4716C205.893 50.0208 205.606 50.5038 205.204 50.9205C204.801 51.3324 204.304 51.6544 203.712 51.8864C203.12 52.1136 202.455 52.2273 201.717 52.2273ZM213.608 56.0909V41.0909H215.228V42.8239H215.426C215.55 42.6345 215.72 42.393 215.938 42.0994C216.16 41.8011 216.478 41.536 216.89 41.304C217.306 41.0672 217.87 40.9489 218.58 40.9489C219.498 40.9489 220.308 41.1785 221.009 41.6378C221.71 42.0971 222.257 42.7481 222.65 43.5909C223.042 44.4337 223.239 45.428 223.239 46.5739C223.239 47.7292 223.042 48.7306 222.65 49.5781C222.257 50.4209 221.712 51.0743 221.016 51.5384C220.32 51.9976 219.517 52.2273 218.608 52.2273C217.908 52.2273 217.346 52.1113 216.925 51.8793C216.504 51.6425 216.179 51.375 215.952 51.0767C215.725 50.7737 215.55 50.5227 215.426 50.3239H215.284V56.0909H213.608ZM215.256 46.5455C215.256 47.3693 215.377 48.0961 215.618 48.7259C215.86 49.3509 216.212 49.8409 216.676 50.196C217.141 50.5464 217.709 50.7216 218.381 50.7216C219.082 50.7216 219.667 50.5369 220.135 50.1676C220.609 49.7936 220.964 49.2917 221.201 48.6619C221.442 48.0275 221.563 47.322 221.563 46.5455C221.563 45.7784 221.444 45.0871 221.208 44.4716C220.976 43.8513 220.623 43.3613 220.15 43.0014C219.681 42.6368 219.091 42.4545 218.381 42.4545C217.699 42.4545 217.126 42.6274 216.662 42.973C216.198 43.3139 215.848 43.7921 215.611 44.4077C215.374 45.0185 215.256 45.7311 215.256 46.5455ZM225.396 52V41.0909H227.015V42.7386H227.129C227.328 42.1989 227.687 41.7609 228.208 41.4247C228.729 41.0885 229.316 40.9205 229.97 40.9205C230.093 40.9205 230.247 40.9228 230.431 40.9276C230.616 40.9323 230.756 40.9394 230.85 40.9489V42.6534C230.794 42.6392 230.663 42.6179 230.46 42.5895C230.261 42.5563 230.05 42.5398 229.828 42.5398C229.297 42.5398 228.824 42.651 228.407 42.8736C227.995 43.0914 227.669 43.3944 227.427 43.7827C227.19 44.1662 227.072 44.6042 227.072 45.0966V52H225.396ZM236.679 52.2273C235.628 52.2273 234.721 51.9953 233.959 51.5312C233.201 51.0625 232.617 50.4091 232.205 49.571C231.797 48.7282 231.594 47.7481 231.594 46.6307C231.594 45.5133 231.797 44.5284 232.205 43.6761C232.617 42.8191 233.189 42.1515 233.923 41.6733C234.662 41.1903 235.524 40.9489 236.509 40.9489C237.077 40.9489 237.638 41.0436 238.192 41.233C238.746 41.4223 239.25 41.7301 239.705 42.1562C240.159 42.5777 240.521 43.1364 240.791 43.8324C241.061 44.5284 241.196 45.3854 241.196 46.4034V47.1136H232.787V45.6648H239.492C239.492 45.0492 239.368 44.5 239.122 44.017C238.881 43.5341 238.535 43.1529 238.085 42.8736C237.64 42.5942 237.115 42.4545 236.509 42.4545C235.841 42.4545 235.263 42.6203 234.776 42.9517C234.293 43.2784 233.921 43.7045 233.661 44.2301C233.4 44.7557 233.27 45.3191 233.27 45.9205V46.8864C233.27 47.7102 233.412 48.4086 233.696 48.9815C233.985 49.5497 234.385 49.983 234.896 50.2812C235.408 50.5748 236.002 50.7216 236.679 50.7216C237.119 50.7216 237.517 50.66 237.872 50.5369C238.232 50.4091 238.542 50.2197 238.803 49.9688C239.063 49.7131 239.264 49.3958 239.406 49.017L241.026 49.4716C240.855 50.0208 240.569 50.5038 240.166 50.9205C239.764 51.3324 239.267 51.6544 238.675 51.8864C238.083 52.1136 237.418 52.2273 236.679 52.2273ZM243.346 56.0909V41.0909H244.965V42.8239H245.164C245.287 42.6345 245.458 42.393 245.675 42.0994C245.898 41.8011 246.215 41.536 246.627 41.304C247.044 41.0672 247.607 40.9489 248.317 40.9489C249.236 40.9489 250.046 41.1785 250.746 41.6378C251.447 42.0971 251.994 42.7481 252.387 43.5909C252.78 44.4337 252.976 45.428 252.976 46.5739C252.976 47.7292 252.78 48.7306 252.387 49.5781C251.994 50.4209 251.45 51.0743 250.753 51.5384C250.057 51.9976 249.255 52.2273 248.346 52.2273C247.645 52.2273 247.084 52.1113 246.663 51.8793C246.241 51.6425 245.917 51.375 245.69 51.0767C245.462 50.7737 245.287 50.5227 245.164 50.3239H245.022V56.0909H243.346ZM244.994 46.5455C244.994 47.3693 245.114 48.0961 245.356 48.7259C245.597 49.3509 245.95 49.8409 246.414 50.196C246.878 50.5464 247.446 50.7216 248.119 50.7216C248.819 50.7216 249.404 50.5369 249.873 50.1676C250.346 49.7936 250.701 49.2917 250.938 48.6619C251.18 48.0275 251.3 47.322 251.3 46.5455C251.3 45.7784 251.182 45.0871 250.945 44.4716C250.713 43.8513 250.36 43.3613 249.887 43.0014C249.418 42.6368 248.829 42.4545 248.119 42.4545C247.437 42.4545 246.864 42.6274 246.4 42.973C245.936 43.3139 245.585 43.7921 245.349 44.4077C245.112 45.0185 244.994 45.7311 244.994 46.5455ZM258.344 52.2557C257.652 52.2557 257.025 52.1255 256.461 51.8651C255.898 51.5999 255.451 51.2188 255.119 50.7216C254.788 50.2197 254.622 49.6136 254.622 48.9034C254.622 48.2784 254.745 47.7718 254.991 47.3835C255.237 46.9905 255.567 46.6828 255.978 46.4602C256.39 46.2377 256.845 46.072 257.342 45.9631C257.844 45.8494 258.348 45.7595 258.855 45.6932C259.518 45.608 260.055 45.544 260.467 45.5014C260.884 45.4541 261.187 45.3759 261.376 45.267C261.57 45.1581 261.667 44.9687 261.667 44.6989V44.642C261.667 43.9413 261.476 43.3968 261.092 43.0085C260.713 42.6203 260.138 42.4261 259.366 42.4261C258.566 42.4261 257.939 42.6013 257.484 42.9517C257.03 43.3021 256.71 43.6761 256.525 44.0739L254.934 43.5057C255.219 42.8428 255.597 42.3267 256.071 41.9574C256.549 41.5833 257.07 41.3229 257.633 41.1761C258.201 41.0246 258.76 40.9489 259.309 40.9489C259.66 40.9489 260.062 40.9915 260.517 41.0767C260.976 41.1572 261.419 41.3253 261.845 41.581C262.276 41.8366 262.633 42.2225 262.917 42.7386C263.201 43.2547 263.344 43.946 263.344 44.8125V52H261.667V50.5227H261.582C261.469 50.7595 261.279 51.0128 261.014 51.2827C260.749 51.5526 260.396 51.7822 259.956 51.9716C259.515 52.161 258.978 52.2557 258.344 52.2557ZM258.599 50.75C259.262 50.75 259.821 50.6198 260.275 50.3594C260.735 50.099 261.08 49.7628 261.312 49.3509C261.549 48.9389 261.667 48.5057 261.667 48.0511V46.517C261.596 46.6023 261.44 46.6804 261.199 46.7514C260.962 46.8177 260.687 46.8769 260.375 46.929C260.067 46.9763 259.766 47.0189 259.473 47.0568C259.184 47.09 258.95 47.1184 258.77 47.142C258.334 47.1989 257.927 47.2912 257.548 47.419C257.174 47.5421 256.871 47.7292 256.639 47.9801C256.412 48.2263 256.298 48.5625 256.298 48.9886C256.298 49.571 256.514 50.0114 256.944 50.3097C257.38 50.6032 257.932 50.75 258.599 50.75ZM266.003 52V41.0909H267.679V52H266.003ZM266.855 39.2727C266.528 39.2727 266.247 39.1615 266.01 38.9389C265.778 38.7164 265.662 38.4489 265.662 38.1364C265.662 37.8239 265.778 37.5563 266.01 37.3338C266.247 37.1113 266.528 37 266.855 37C267.182 37 267.461 37.1113 267.693 37.3338C267.93 37.5563 268.048 37.8239 268.048 38.1364C268.048 38.4489 267.93 38.7164 267.693 38.9389C267.461 39.1615 267.182 39.2727 266.855 39.2727ZM274.468 52.2273C273.559 52.2273 272.757 51.9976 272.061 51.5384C271.365 51.0743 270.82 50.4209 270.427 49.5781C270.034 48.7306 269.838 47.7292 269.838 46.5739C269.838 45.428 270.034 44.4337 270.427 43.5909C270.82 42.7481 271.367 42.0971 272.068 41.6378C272.768 41.1785 273.578 40.9489 274.497 40.9489C275.207 40.9489 275.768 41.0672 276.18 41.304C276.597 41.536 276.914 41.8011 277.132 42.0994C277.354 42.393 277.527 42.6345 277.65 42.8239H277.792V37.4545H279.468V52H277.849V50.3239H277.65C277.527 50.5227 277.352 50.7737 277.125 51.0767C276.897 51.375 276.573 51.6425 276.151 51.8793C275.73 52.1113 275.169 52.2273 274.468 52.2273ZM274.696 50.7216C275.368 50.7216 275.936 50.5464 276.4 50.196C276.864 49.8409 277.217 49.3509 277.458 48.7259C277.7 48.0961 277.821 47.3693 277.821 46.5455C277.821 45.7311 277.702 45.0185 277.465 44.4077C277.229 43.7921 276.878 43.3139 276.414 42.973C275.95 42.6274 275.377 42.4545 274.696 42.4545C273.985 42.4545 273.393 42.6368 272.92 43.0014C272.451 43.3613 272.098 43.8513 271.862 44.4716C271.63 45.0871 271.514 45.7784 271.514 46.5455C271.514 47.322 271.632 48.0275 271.869 48.6619C272.11 49.2917 272.465 49.7936 272.934 50.1676C273.408 50.5369 273.995 50.7216 274.696 50.7216ZM295.323 43.5341L293.817 43.9602C293.723 43.7093 293.583 43.4654 293.398 43.2287C293.218 42.9872 292.972 42.7884 292.66 42.6321C292.347 42.4759 291.947 42.3977 291.459 42.3977C290.792 42.3977 290.235 42.5516 289.79 42.8594C289.35 43.1624 289.13 43.5483 289.13 44.017C289.13 44.4337 289.281 44.7628 289.584 45.0043C289.887 45.2457 290.361 45.447 291.005 45.608L292.624 46.0057C293.6 46.2424 294.326 46.6046 294.805 47.0923C295.283 47.5753 295.522 48.1979 295.522 48.9602C295.522 49.5852 295.342 50.1439 294.982 50.6364C294.627 51.1288 294.13 51.517 293.491 51.8011C292.851 52.0852 292.108 52.2273 291.261 52.2273C290.148 52.2273 289.227 51.9858 288.498 51.5028C287.769 51.0199 287.307 50.3144 287.113 49.3864L288.704 48.9886C288.855 49.5758 289.142 50.0161 289.563 50.3097C289.989 50.6032 290.546 50.75 291.232 50.75C292.013 50.75 292.634 50.5843 293.093 50.2528C293.557 49.9167 293.789 49.5142 293.789 49.0455C293.789 48.6667 293.656 48.3494 293.391 48.0938C293.126 47.8333 292.719 47.6392 292.17 47.5114L290.351 47.0852C289.352 46.8485 288.619 46.4815 288.15 45.9844C287.686 45.4825 287.454 44.8551 287.454 44.1023C287.454 43.4867 287.627 42.9422 287.972 42.4688C288.323 41.9953 288.798 41.6236 289.4 41.3537C290.006 41.0838 290.692 40.9489 291.459 40.9489C292.539 40.9489 293.387 41.1856 294.002 41.6591C294.622 42.1326 295.063 42.7576 295.323 43.5341ZM299.321 45.4375V52H297.645V37.4545H299.321V42.7955H299.463C299.719 42.232 300.102 41.7846 300.614 41.4531C301.13 41.117 301.816 40.9489 302.673 40.9489C303.417 40.9489 304.068 41.098 304.627 41.3963C305.185 41.6899 305.619 42.142 305.926 42.7528C306.239 43.3589 306.395 44.1307 306.395 45.0682V52H304.719V45.1818C304.719 44.3153 304.494 43.6454 304.044 43.1719C303.599 42.6937 302.981 42.4545 302.19 42.4545C301.641 42.4545 301.149 42.5705 300.713 42.8026C300.282 43.0346 299.941 43.3731 299.69 43.8182C299.444 44.2633 299.321 44.803 299.321 45.4375ZM309.061 52V41.0909H310.738V52H309.061ZM309.914 39.2727C309.587 39.2727 309.305 39.1615 309.069 38.9389C308.837 38.7164 308.721 38.4489 308.721 38.1364C308.721 37.8239 308.837 37.5563 309.069 37.3338C309.305 37.1113 309.587 37 309.914 37C310.24 37 310.52 37.1113 310.752 37.3338C310.989 37.5563 311.107 37.8239 311.107 38.1364C311.107 38.4489 310.989 38.7164 310.752 38.9389C310.52 39.1615 310.24 39.2727 309.914 39.2727ZM313.408 56.0909V41.0909H315.027V42.8239H315.226C315.349 42.6345 315.519 42.393 315.737 42.0994C315.96 41.8011 316.277 41.536 316.689 41.304C317.105 41.0672 317.669 40.9489 318.379 40.9489C319.298 40.9489 320.107 41.1785 320.808 41.6378C321.509 42.0971 322.056 42.7481 322.449 43.5909C322.842 44.4337 323.038 45.428 323.038 46.5739C323.038 47.7292 322.842 48.7306 322.449 49.5781C322.056 50.4209 321.511 51.0743 320.815 51.5384C320.119 51.9976 319.317 52.2273 318.408 52.2273C317.707 52.2273 317.146 52.1113 316.724 51.8793C316.303 51.6425 315.979 51.375 315.751 51.0767C315.524 50.7737 315.349 50.5227 315.226 50.3239H315.084V56.0909H313.408ZM315.055 46.5455C315.055 47.3693 315.176 48.0961 315.417 48.7259C315.659 49.3509 316.012 49.8409 316.476 50.196C316.94 50.5464 317.508 50.7216 318.18 50.7216C318.881 50.7216 319.466 50.5369 319.935 50.1676C320.408 49.7936 320.763 49.2917 321 48.6619C321.241 48.0275 321.362 47.322 321.362 46.5455C321.362 45.7784 321.244 45.0871 321.007 44.4716C320.775 43.8513 320.422 43.3613 319.949 43.0014C319.48 42.6368 318.89 42.4545 318.18 42.4545C317.498 42.4545 316.926 42.6274 316.462 42.973C315.997 43.3139 315.647 43.7921 315.41 44.4077C315.174 45.0185 315.055 45.7311 315.055 46.5455ZM325.195 56.0909V41.0909H326.814V42.8239H327.013C327.136 42.6345 327.307 42.393 327.525 42.0994C327.747 41.8011 328.064 41.536 328.476 41.304C328.893 41.0672 329.456 40.9489 330.167 40.9489C331.085 40.9489 331.895 41.1785 332.596 41.6378C333.296 42.0971 333.843 42.7481 334.236 43.5909C334.629 44.4337 334.826 45.428 334.826 46.5739C334.826 47.7292 334.629 48.7306 334.236 49.5781C333.843 50.4209 333.299 51.0743 332.603 51.5384C331.907 51.9976 331.104 52.2273 330.195 52.2273C329.494 52.2273 328.933 52.1113 328.512 51.8793C328.09 51.6425 327.766 51.375 327.539 51.0767C327.312 50.7737 327.136 50.5227 327.013 50.3239H326.871V56.0909H325.195ZM326.843 46.5455C326.843 47.3693 326.964 48.0961 327.205 48.7259C327.446 49.3509 327.799 49.8409 328.263 50.196C328.727 50.5464 329.295 50.7216 329.968 50.7216C330.669 50.7216 331.253 50.5369 331.722 50.1676C332.196 49.7936 332.551 49.2917 332.787 48.6619C333.029 48.0275 333.15 47.322 333.15 46.5455C333.15 45.7784 333.031 45.0871 332.794 44.4716C332.562 43.8513 332.21 43.3613 331.736 43.0014C331.267 42.6368 330.678 42.4545 329.968 42.4545C329.286 42.4545 328.713 42.6274 328.249 42.973C327.785 43.3139 327.435 43.7921 327.198 44.4077C326.961 45.0185 326.843 45.7311 326.843 46.5455ZM336.983 52V41.0909H338.659V52H336.983ZM337.835 39.2727C337.508 39.2727 337.226 39.1615 336.99 38.9389C336.758 38.7164 336.642 38.4489 336.642 38.1364C336.642 37.8239 336.758 37.5563 336.99 37.3338C337.226 37.1113 337.508 37 337.835 37C338.161 37 338.441 37.1113 338.673 37.3338C338.91 37.5563 339.028 37.8239 339.028 38.1364C339.028 38.4489 338.91 38.7164 338.673 38.9389C338.441 39.1615 338.161 39.2727 337.835 39.2727ZM343.005 45.4375V52H341.329V41.0909H342.948V42.7955H343.09C343.346 42.2415 343.734 41.7964 344.255 41.4602C344.776 41.1193 345.448 40.9489 346.272 40.9489C347.01 40.9489 347.657 41.1004 348.211 41.4034C348.765 41.7017 349.196 42.1562 349.503 42.767C349.811 43.3731 349.965 44.1402 349.965 45.0682V52H348.289V45.1818C348.289 44.3248 348.066 43.6572 347.621 43.179C347.176 42.696 346.565 42.4545 345.789 42.4545C345.254 42.4545 344.776 42.5705 344.354 42.8026C343.938 43.0346 343.608 43.3731 343.367 43.8182C343.125 44.2633 343.005 44.803 343.005 45.4375ZM357.031 56.3182C356.222 56.3182 355.526 56.214 354.943 56.0057C354.361 55.8021 353.875 55.5322 353.487 55.196C353.104 54.8646 352.798 54.5095 352.571 54.1307L353.906 53.1932C354.058 53.392 354.25 53.6193 354.482 53.875C354.714 54.1354 355.031 54.3603 355.433 54.5497C355.84 54.7438 356.373 54.8409 357.031 54.8409C357.912 54.8409 358.639 54.6278 359.212 54.2017C359.785 53.7756 360.071 53.108 360.071 52.1989V49.983H359.929C359.806 50.1818 359.631 50.428 359.403 50.7216C359.181 51.0104 358.859 51.2685 358.438 51.4957C358.021 51.7183 357.457 51.8295 356.747 51.8295C355.866 51.8295 355.076 51.6212 354.375 51.2045C353.679 50.7879 353.127 50.1818 352.72 49.3864C352.318 48.5909 352.116 47.625 352.116 46.4886C352.116 45.3712 352.313 44.3982 352.706 43.5696C353.099 42.7363 353.646 42.0923 354.347 41.6378C355.047 41.1785 355.857 40.9489 356.776 40.9489C357.486 40.9489 358.049 41.0672 358.466 41.304C358.887 41.536 359.209 41.8011 359.432 42.0994C359.659 42.393 359.834 42.6345 359.957 42.8239H360.128V41.0909H361.747V52.3125C361.747 53.25 361.534 54.0123 361.108 54.5994C360.687 55.1913 360.118 55.6245 359.403 55.8991C358.693 56.1785 357.902 56.3182 357.031 56.3182ZM356.974 50.3239C357.647 50.3239 358.215 50.17 358.679 49.8622C359.143 49.5545 359.496 49.1117 359.737 48.5341C359.979 47.9564 360.099 47.2652 360.099 46.4602C360.099 45.6742 359.981 44.9806 359.744 44.3793C359.508 43.7779 359.157 43.3068 358.693 42.9659C358.229 42.625 357.656 42.4545 356.974 42.4545C356.264 42.4545 355.672 42.6345 355.199 42.9943C354.73 43.3542 354.377 43.8371 354.141 44.4432C353.909 45.0492 353.793 45.7216 353.793 46.4602C353.793 47.2178 353.911 47.8878 354.148 48.4702C354.389 49.0478 354.744 49.5024 355.213 49.8338C355.687 50.1605 356.274 50.3239 356.974 50.3239ZM371.316 37.4545V52H369.64V37.4545H371.316ZM377.197 52.2557C376.505 52.2557 375.878 52.1255 375.315 51.8651C374.751 51.5999 374.304 51.2188 373.972 50.7216C373.641 50.2197 373.475 49.6136 373.475 48.9034C373.475 48.2784 373.598 47.7718 373.844 47.3835C374.091 46.9905 374.42 46.6828 374.832 46.4602C375.244 46.2377 375.698 46.072 376.195 45.9631C376.697 45.8494 377.201 45.7595 377.708 45.6932C378.371 45.608 378.908 45.544 379.32 45.5014C379.737 45.4541 380.04 45.3759 380.229 45.267C380.423 45.1581 380.521 44.9687 380.521 44.6989V44.642C380.521 43.9413 380.329 43.3968 379.945 43.0085C379.566 42.6203 378.991 42.4261 378.219 42.4261C377.419 42.4261 376.792 42.6013 376.337 42.9517C375.883 43.3021 375.563 43.6761 375.378 44.0739L373.788 43.5057C374.072 42.8428 374.45 42.3267 374.924 41.9574C375.402 41.5833 375.923 41.3229 376.486 41.1761C377.055 41.0246 377.613 40.9489 378.163 40.9489C378.513 40.9489 378.915 40.9915 379.37 41.0767C379.829 41.1572 380.272 41.3253 380.698 41.581C381.129 41.8366 381.486 42.2225 381.771 42.7386C382.055 43.2547 382.197 43.946 382.197 44.8125V52H380.521V50.5227H380.435C380.322 50.7595 380.132 51.0128 379.867 51.2827C379.602 51.5526 379.249 51.7822 378.809 51.9716C378.369 52.161 377.831 52.2557 377.197 52.2557ZM377.452 50.75C378.115 50.75 378.674 50.6198 379.128 50.3594C379.588 50.099 379.933 49.7628 380.165 49.3509C380.402 48.9389 380.521 48.5057 380.521 48.0511V46.517C380.449 46.6023 380.293 46.6804 380.052 46.7514C379.815 46.8177 379.54 46.8769 379.228 46.929C378.92 46.9763 378.619 47.0189 378.326 47.0568C378.037 47.09 377.803 47.1184 377.623 47.142C377.187 47.1989 376.78 47.2912 376.401 47.419C376.027 47.5421 375.724 47.7292 375.492 47.9801C375.265 48.2263 375.151 48.5625 375.151 48.9886C375.151 49.571 375.367 50.0114 375.798 50.3097C376.233 50.6032 376.785 50.75 377.452 50.75ZM385.083 52V37.4545H386.759V42.8239H386.901C387.025 42.6345 387.195 42.393 387.413 42.0994C387.635 41.8011 387.953 41.536 388.364 41.304C388.781 41.0672 389.345 40.9489 390.055 40.9489C390.973 40.9489 391.783 41.1785 392.484 41.6378C393.185 42.0971 393.731 42.7481 394.124 43.5909C394.517 44.4337 394.714 45.428 394.714 46.5739C394.714 47.7292 394.517 48.7306 394.124 49.5781C393.731 50.4209 393.187 51.0743 392.491 51.5384C391.795 51.9976 390.992 52.2273 390.083 52.2273C389.382 52.2273 388.821 52.1113 388.4 51.8793C387.979 51.6425 387.654 51.375 387.427 51.0767C387.2 50.7737 387.025 50.5227 386.901 50.3239H386.703V52H385.083ZM386.731 46.5455C386.731 47.3693 386.852 48.0961 387.093 48.7259C387.335 49.3509 387.687 49.8409 388.151 50.196C388.615 50.5464 389.184 50.7216 389.856 50.7216C390.557 50.7216 391.141 50.5369 391.61 50.1676C392.084 49.7936 392.439 49.2917 392.676 48.6619C392.917 48.0275 393.038 47.322 393.038 46.5455C393.038 45.7784 392.919 45.0871 392.683 44.4716C392.451 43.8513 392.098 43.3613 391.624 43.0014C391.156 42.6368 390.566 42.4545 389.856 42.4545C389.174 42.4545 388.601 42.6274 388.137 42.973C387.673 43.3139 387.323 43.7921 387.086 44.4077C386.849 45.0185 386.731 45.7311 386.731 46.5455ZM401.452 52.2273C400.401 52.2273 399.494 51.9953 398.732 51.5312C397.974 51.0625 397.389 50.4091 396.977 49.571C396.57 48.7282 396.366 47.7481 396.366 46.6307C396.366 45.5133 396.57 44.5284 396.977 43.6761C397.389 42.8191 397.962 42.1515 398.696 41.6733C399.435 41.1903 400.296 40.9489 401.281 40.9489C401.849 40.9489 402.411 41.0436 402.964 41.233C403.518 41.4223 404.023 41.7301 404.477 42.1562C404.932 42.5777 405.294 43.1364 405.564 43.8324C405.834 44.5284 405.969 45.3854 405.969 46.4034V47.1136H397.56V45.6648H404.264C404.264 45.0492 404.141 44.5 403.895 44.017C403.653 43.5341 403.308 43.1529 402.858 42.8736C402.413 42.5942 401.887 42.4545 401.281 42.4545C400.614 42.4545 400.036 42.6203 399.548 42.9517C399.065 43.2784 398.694 43.7045 398.433 44.2301C398.173 44.7557 398.043 45.3191 398.043 45.9205V46.8864C398.043 47.7102 398.185 48.4086 398.469 48.9815C398.758 49.5497 399.158 49.983 399.669 50.2812C400.18 50.5748 400.775 50.7216 401.452 50.7216C401.892 50.7216 402.29 50.66 402.645 50.5369C403.005 50.4091 403.315 50.2197 403.575 49.9688C403.836 49.7131 404.037 49.3958 404.179 49.017L405.798 49.4716C405.628 50.0208 405.341 50.5038 404.939 50.9205C404.536 51.3324 404.039 51.6544 403.447 51.8864C402.856 52.1136 402.19 52.2273 401.452 52.2273ZM409.795 37.4545V52H408.118V37.4545H409.795ZM420.192 43.5341L418.686 43.9602C418.591 43.7093 418.452 43.4654 418.267 43.2287C418.087 42.9872 417.841 42.7884 417.528 42.6321C417.216 42.4759 416.816 42.3977 416.328 42.3977C415.661 42.3977 415.104 42.5516 414.659 42.8594C414.219 43.1624 413.999 43.5483 413.999 44.017C413.999 44.4337 414.15 44.7628 414.453 45.0043C414.756 45.2457 415.23 45.447 415.874 45.608L417.493 46.0057C418.468 46.2424 419.195 46.6046 419.673 47.0923C420.152 47.5753 420.391 48.1979 420.391 48.9602C420.391 49.5852 420.211 50.1439 419.851 50.6364C419.496 51.1288 418.999 51.517 418.359 51.8011C417.72 52.0852 416.977 52.2273 416.129 52.2273C415.017 52.2273 414.096 51.9858 413.367 51.5028C412.637 51.0199 412.176 50.3144 411.982 49.3864L413.573 48.9886C413.724 49.5758 414.01 50.0161 414.432 50.3097C414.858 50.6032 415.414 50.75 416.101 50.75C416.882 50.75 417.502 50.5843 417.962 50.2528C418.426 49.9167 418.658 49.5142 418.658 49.0455C418.658 48.6667 418.525 48.3494 418.26 48.0938C417.995 47.8333 417.588 47.6392 417.038 47.5114L415.22 47.0852C414.221 46.8485 413.487 46.4815 413.019 45.9844C412.555 45.4825 412.323 44.8551 412.323 44.1023C412.323 43.4867 412.495 42.9422 412.841 42.4688C413.191 41.9953 413.667 41.6236 414.269 41.3537C414.875 41.0838 415.561 40.9489 416.328 40.9489C417.408 40.9489 418.255 41.1856 418.871 41.6591C419.491 42.1326 419.931 42.7576 420.192 43.5341ZM423.735 52.1136C423.385 52.1136 423.084 51.9882 422.833 51.7372C422.582 51.4863 422.457 51.1856 422.457 50.8352C422.457 50.4848 422.582 50.1842 422.833 49.9332C423.084 49.6823 423.385 49.5568 423.735 49.5568C424.086 49.5568 424.386 49.6823 424.637 49.9332C424.888 50.1842 425.014 50.4848 425.014 50.8352C425.014 51.0672 424.955 51.2803 424.836 51.4744C424.723 51.6686 424.569 51.8248 424.375 51.9432C424.185 52.0568 423.972 52.1136 423.735 52.1136Z" fill="white" fill-opacity="0.75"/>
<line x1="0.5" y1="20.5" x2="0.5" y2="39.5" stroke="#C0E4FE" stroke-linecap="round"/>
</svg>
