<svg width="31" height="31" viewBox="0 0 31 31" fill="none" xmlns="http://www.w3.org/2000/svg">
<path opacity="0.4" d="M5.38772 19.7619L11.239 25.6132C13.6415 28.0157 17.5423 28.0157 19.9577 25.6132L25.6281 19.9428C28.0306 17.5403 28.0306 13.6394 25.6281 11.224L19.764 5.38567C18.5369 4.15859 16.8448 3.49984 15.114 3.59026L8.65563 3.90026C6.0723 4.01651 4.01855 6.07026 3.88939 8.64067L3.57939 15.099C3.50189 16.8428 4.16064 18.5348 5.38772 19.7619Z" fill="white"/>
<path d="M12.2737 15.9908C14.3282 15.9908 15.9937 14.3253 15.9937 12.2708C15.9937 10.2163 14.3282 8.55078 12.2737 8.55078C10.2192 8.55078 8.55371 10.2163 8.55371 12.2708C8.55371 14.3253 10.2192 15.9908 12.2737 15.9908Z" fill="white"/>
<path d="M16.7927 22.9252C16.5473 22.9252 16.3018 22.8347 16.1081 22.641C15.7335 22.2664 15.7335 21.6464 16.1081 21.2718L21.2748 16.1052C21.6493 15.7306 22.2693 15.7306 22.6439 16.1052C23.0185 16.4797 23.0185 17.0997 22.6439 17.4743L17.4773 22.641C17.2835 22.8347 17.0381 22.9252 16.7927 22.9252Z" fill="white"/>
</svg>
