<svg width="15" height="20" viewBox="0 0 15 20" fill="none" xmlns="http://www.w3.org/2000/svg">
<path d="M13.0001 8.19971H2.20001C1.53726 8.19971 1 8.73697 1 9.39972V17.7998C1 18.4626 1.53726 18.9998 2.20001 18.9998H13.0001C13.6629 18.9998 14.2001 18.4626 14.2001 17.7998V9.39972C14.2001 8.73697 13.6629 8.19971 13.0001 8.19971Z" stroke="#DDDDE2" stroke-linecap="round" stroke-linejoin="round"/>
<path d="M3.39844 8.20008V5.20005C3.39844 4.08613 3.84094 3.01783 4.6286 2.23017C5.41626 1.4425 6.48456 1 7.59849 1C8.71241 1 9.78071 1.4425 10.5684 2.23017C11.356 3.01783 11.7985 4.08613 11.7985 5.20005V8.20008" stroke="#DDDDE2" stroke-linecap="round" stroke-linejoin="round"/>
</svg>
