<svg width="354" height="207" viewBox="0 0 354 207" fill="none" xmlns="http://www.w3.org/2000/svg">
<g filter="url(#filter0_d_497_4387)">
<rect x="40.293" y="40" width="273.291" height="127" rx="16" fill="#35A9FC"/>
</g>
<path d="M176.168 133.241C176.168 133.241 162.237 127.167 157.931 123.751C153.372 119.955 151.219 114.767 151.219 108.82V79.2114C162.237 73.2643 176.168 73.7705 176.168 73.7705C176.168 73.7705 190.099 73.2643 201.117 79.2114V108.693C201.117 114.64 198.964 119.828 194.405 123.624C190.099 127.167 176.168 133.241 176.168 133.241ZM153.245 108.82C153.245 114.387 155.271 118.943 159.197 122.106C162.743 125.016 173.255 129.698 176.168 130.963C179.081 129.698 189.719 124.89 193.138 122.106C197.064 118.943 199.091 114.261 199.091 108.82V79.7175C184.4 78.3256 166.923 79.0848 153.245 91.7381V108.82Z" fill="white"/>
<path d="M190.23 104.645C192.129 105.783 192.889 106.543 193.016 107.934C193.016 109.453 192.003 110.339 190.356 110.339C188.963 110.339 187.317 109.579 186.177 108.567V112.616C187.57 113.375 189.217 114.008 190.99 114.008C195.296 114.008 197.322 110.971 197.322 108.187C197.449 105.657 196.689 103.632 193.016 101.481C191.37 100.469 190.103 99.8363 190.103 98.3179C190.103 96.7995 191.496 96.1669 192.636 96.1669C194.156 96.1669 195.676 97.0526 196.562 97.9383V94.1423C195.802 93.5097 194.156 92.6239 191.75 92.7505C188.837 92.877 185.797 94.9015 185.797 98.4444C185.924 100.849 186.684 102.62 190.23 104.645ZM175.286 113.755C175.666 113.881 176.299 114.008 177.312 114.008C182.251 114.008 185.037 109.579 185.037 103.253C185.037 96.7995 182.125 92.877 176.932 92.877C174.526 92.877 172.626 93.3831 170.98 94.3954V122.992H175.286V113.755ZM175.286 96.5464C175.666 96.4199 176.299 96.1669 176.805 96.1669C179.338 96.1669 180.351 98.1914 180.351 103.126C180.351 107.934 179.085 110.212 176.552 110.212C175.919 110.212 175.412 110.085 175.159 109.959V96.5464H175.286ZM161.988 114.008C164.647 114.008 166.927 113.375 168.573 112.236V93.1301H164.141V109.706C163.634 110.085 163.001 110.212 162.115 110.212C160.088 110.212 159.835 108.314 159.835 107.175V93.1301H155.402V106.922C155.402 111.604 157.682 114.008 161.988 114.008Z" fill="white"/>
<defs>
<filter id="filter0_d_497_4387" x="0.292969" y="0" width="353.291" height="207" filterUnits="userSpaceOnUse" color-interpolation-filters="sRGB">
<feFlood flood-opacity="0" result="BackgroundImageFix"/>
<feColorMatrix in="SourceAlpha" type="matrix" values="0 0 0 0 0 0 0 0 0 0 0 0 0 0 0 0 0 0 127 0" result="hardAlpha"/>
<feOffset/>
<feGaussianBlur stdDeviation="20"/>
<feColorMatrix type="matrix" values="0 0 0 0 0.831373 0 0 0 0 0.85098 0 0 0 0 0.909804 0 0 0 0.2 0"/>
<feBlend mode="normal" in2="BackgroundImageFix" result="effect1_dropShadow_497_4387"/>
<feBlend mode="normal" in="SourceGraphic" in2="effect1_dropShadow_497_4387" result="shape"/>
</filter>
</defs>
</svg>
