<svg width="208" height="43" viewBox="0 0 208 43" fill="none" xmlns="http://www.w3.org/2000/svg">
<path d="M31.3657 23.258C30.8697 24.3337 30.2463 25.3778 29.4956 26.3899C25.4669 31.8221 20.4453 37.5709 16.4122 43C14.4831 40.3857 12.2225 37.5843 9.95706 34.7868C7.69116 31.9889 5.41994 29.1954 3.46906 26.5976C1.09091 23.431 -0.182468 19.8887 0.0211831 15.9306C0.317121 10.1694 2.81019 5.78437 7.35662 2.77968C7.35441 2.80769 7.35352 2.83749 7.35352 2.86861C7.36106 8.39775 7.36195 13.9269 7.35174 19.456C7.3513 19.7477 7.45202 19.89 7.69382 20.0297C12.451 22.7782 17.2038 25.5357 21.9561 28.2931C22.0599 28.3532 22.1531 28.4323 22.2511 28.5021H22.386C23.0968 28.077 23.8027 27.6435 24.5192 27.2277C26.8007 25.9034 29.0825 24.5796 31.3657 23.258Z" fill="#0393FB"/>
<path d="M21.3136 12.0437C21.3043 16.434 21.307 20.8243 21.307 25.2142V25.5504C21.1628 25.4743 21.0647 25.4276 20.9711 25.3734C17.1989 23.1865 13.4271 20.9982 9.65314 18.8144C9.47477 18.7112 9.37583 18.6103 9.37628 18.3755C9.38515 13.9629 9.38293 9.54993 9.38338 5.13738C9.38338 5.0609 9.38959 4.98397 9.39491 4.86524C9.51737 4.92616 9.61631 4.9684 9.70815 5.02177C13.4812 7.20736 17.253 9.39518 21.0279 11.5777C21.2187 11.6879 21.3145 11.8 21.3136 12.0437Z" fill="#0393FB"/>
<path d="M29.1145 6.04986C26.9551 7.30074 24.7965 8.55251 22.6402 9.80873C22.4046 9.94613 22.2387 9.94658 22.0027 9.80873C18.2637 7.63158 14.519 5.4651 10.7757 3.29552C10.6701 3.23415 10.5671 3.16745 10.4305 3.08385C10.5432 3.01048 10.6284 2.94956 10.7189 2.89708C12.3836 1.93124 14.0492 0.965843 15.7139 0H15.8767C17.1164 0 18.3551 0.101831 19.5748 0.322392C19.7625 0.356188 19.9493 0.393096 20.1352 0.434007C23.6736 1.21219 26.837 3.26661 29.114 6.04986H29.1145Z" fill="#0393FB"/>
<path d="M32.3871 20.3223C29.4419 22.0267 26.4981 23.7347 23.5538 25.4414C23.4983 25.4734 23.438 25.4979 23.3408 25.5455C23.3355 25.4325 23.331 25.376 23.331 25.32C23.3306 20.8852 23.331 16.45 23.3271 12.0152C23.3271 11.8271 23.3745 11.7164 23.5485 11.6163C25.8028 10.3143 28.0558 9.00963 30.3084 7.7045C31.4456 9.50145 32.2389 11.5172 32.5823 13.6383C32.9603 15.9724 32.896 18.202 32.3871 20.3223Z" fill="#0393FB"/>
<path d="M46.9572 17.0176C46.0364 22.4668 50.3613 23.5008 53.5423 23.9479C55.3281 24.1994 56.7232 24.5068 56.5279 25.5967C56.3047 26.7983 55.1327 27.1896 53.2353 27.1896C51.6728 27.1896 50.6962 26.6866 50.3613 25.7085C50.0823 24.8981 49.7196 24.8142 48.8267 25.0937L46.0364 26.0438C45.1714 26.3512 44.8645 26.7425 45.004 27.5808C45.562 30.4312 48.5197 31.9123 52.6773 31.9123C57.8393 31.9123 61.3272 30.1518 62.0806 26.0438C63.0014 20.9299 59.0112 19.4767 55.8861 19.0296C53.8771 18.7781 52.3145 18.5266 52.5099 17.3249C52.6773 16.3469 53.5144 15.8718 55.4118 15.8718C56.6953 15.8718 57.6161 16.263 57.9788 17.3249C58.2858 18.1354 58.5648 18.2471 59.374 17.9118L62.1364 16.8219C63.0293 16.4586 63.2525 16.1792 62.9735 15.3688C62.1364 12.7699 60.2111 11.2329 56.0814 11.2329C50.752 11.2329 47.6268 13.3288 46.9572 17.0176Z" fill="#0393FB"/>
<path d="M81.741 11.6241H78.5601C77.6951 11.6241 77.3323 11.9315 77.1649 12.8258L76.0767 19.0017H70.6915L71.7797 12.8258C71.9471 11.9315 71.696 11.6241 70.8031 11.6241H67.65C66.7571 11.6241 66.4223 11.9315 66.2549 12.8258L63.1577 30.3194C63.0181 31.1857 63.2414 31.4931 64.1343 31.4931H67.2873C68.1802 31.4931 68.5429 31.1857 68.6824 30.3194L69.8265 23.892H75.2117L74.0956 30.3194C73.9282 31.1857 74.1793 31.4931 75.0722 31.4931H78.2252C79.1181 31.4931 79.453 31.1857 79.6204 30.3194L82.6897 12.8258C82.8571 11.9315 82.606 11.6241 81.741 11.6241Z" fill="#0393FB"/>
<path d="M85.5744 12.7699L82.4772 30.3753C82.3377 31.2137 82.5609 31.4931 83.398 31.4931H86.6905C87.5276 31.4931 87.8624 31.2137 88.002 30.3753L91.0992 12.7699C91.2666 11.9315 91.0155 11.6521 90.1784 11.6521H86.8858C86.0487 11.6521 85.7418 11.9315 85.5744 12.7699Z" fill="#0393FB"/>
<path d="M103.008 11.6521H95.3071C94.4142 11.6521 94.0793 11.9595 93.9119 12.8258L90.8426 30.3194C90.6752 31.1857 90.9263 31.4931 91.8192 31.4931H94.9722C95.8651 31.4931 96.2 31.1857 96.3674 30.3194L97.2045 25.5408H100.609C104.961 25.5408 108.115 23.4729 108.896 19.0575C109.649 14.6143 107.361 11.6521 103.008 11.6521ZM100.804 20.6504H98.0695L98.7949 16.5425H101.529C102.869 16.5425 103.483 17.3808 103.259 18.6104C103.036 19.84 102.115 20.6504 100.804 20.6504Z" fill="#0393FB"/>
<path d="M120.181 11.6521H113.4C112.507 11.6521 112.173 11.9595 112.005 12.8258L108.936 30.3194C108.768 31.1857 109.02 31.4931 109.913 31.4931H116.777C122.301 31.4931 125.733 28.9222 126.598 24.0877L127.324 19.8959C128.189 15.0614 125.706 11.6521 120.181 11.6521ZM121.855 19.5606L121.157 23.5847C120.795 25.5688 119.651 26.6027 117.391 26.6027H115.102L116.888 16.5425H119.148C121.409 16.5425 122.218 17.5765 121.855 19.5606Z" fill="#0393FB"/>
<path d="M130.917 12.7699L127.819 30.3753C127.68 31.2137 127.903 31.4931 128.74 31.4931H132.033C132.87 31.4931 133.205 31.2137 133.344 30.3753L136.441 12.7699C136.609 11.9315 136.358 11.6521 135.521 11.6521H132.228C131.391 11.6521 131.084 11.9315 130.917 12.7699Z" fill="#0393FB"/>
<path d="M148.602 11.6521H140.649C139.756 11.6521 139.422 11.9595 139.254 12.8258L136.185 30.3194C136.017 31.1857 136.269 31.4931 137.161 31.4931H140.315C141.207 31.4931 141.542 31.1857 141.71 30.3194L142.658 24.8981H143.384C144.612 24.8981 144.807 25.3731 145.114 26.3233L146.23 30.1518C146.509 31.1298 147.095 31.4931 148.574 31.4931H151.587C152.508 31.4931 152.815 30.8783 152.564 30.1238L150.89 25.3452C150.722 24.8981 150.555 24.5068 150.36 24.1436C152.424 23.0816 153.875 21.3211 154.35 18.6104C155.131 14.2789 152.815 11.6521 148.602 11.6521ZM148.63 18.3589C148.434 19.5047 147.653 20.2312 146.481 20.2312H143.468L144.137 16.5425H147.123C148.323 16.5425 148.853 17.2411 148.63 18.3589Z" fill="#0393FB"/>
<path d="M170.788 11.6521H159.097C158.204 11.6521 157.869 11.9595 157.702 12.8258L154.632 30.3194C154.465 31.1857 154.716 31.4931 155.609 31.4931H167.524C168.416 31.4931 168.779 31.1857 168.919 30.3194L169.365 27.7764C169.533 26.8822 169.281 26.6027 168.416 26.6027H160.799L161.273 23.92H167.161C168.054 23.92 168.389 23.6126 168.556 22.7184L169.002 20.2033C169.142 19.337 168.919 19.0296 168.026 19.0296H162.138L162.585 16.5425H169.951C170.816 16.5425 171.179 16.2351 171.346 15.3408L171.793 12.8258C171.932 11.9595 171.681 11.6521 170.788 11.6521Z" fill="#0393FB"/>
<path d="M172.463 18.6663L171.542 23.8362C170.733 28.6427 173.3 31.9123 178.797 31.9123C183.094 31.9123 186.108 30.2076 187.81 27.0778C188.256 26.2674 188.117 25.8482 187.336 25.5688L184.434 24.451C183.652 24.1436 183.29 24.3392 182.787 25.2055C182.118 26.4071 181.141 27.0219 179.579 27.0219C177.374 27.0219 176.677 26.0718 177.011 24.1156L177.932 19.0296C178.267 17.0734 179.299 16.1233 181.504 16.1233C183.066 16.1233 183.792 16.6822 184.043 17.9397C184.238 18.806 184.545 18.9737 185.438 18.6943L188.312 17.7162C189.205 17.4367 189.428 17.0176 189.261 16.2071C188.675 13.0773 186.61 11.2329 182.313 11.2329C176.816 11.2329 173.3 13.8598 172.463 18.6663Z" fill="#0393FB"/>
<path d="M206.099 11.6521H192.287C191.394 11.6521 191.059 11.9595 190.892 12.8258L190.446 15.3408C190.306 16.2351 190.529 16.5425 191.422 16.5425H195.58L193.152 30.3194C192.985 31.1857 193.236 31.4931 194.129 31.4931H197.282C198.175 31.4931 198.51 31.1857 198.677 30.3194L201.105 16.5425H205.234C206.127 16.5425 206.49 16.2351 206.629 15.3408L207.076 12.8258C207.243 11.9595 206.992 11.6521 206.099 11.6521Z" fill="#0393FB"/>
</svg>
