<svg width="354" height="207" viewBox="0 0 354 207" fill="none" xmlns="http://www.w3.org/2000/svg">
<g filter="url(#filter0_d_497_4393)">
<rect x="40" y="40" width="273.291" height="127" rx="16" fill="#35A9FC"/>
</g>
<path d="M129.777 86.3744L81.1046 86.3767L81.0757 86.5383C81.0757 86.5383 109.689 92.4156 110.256 92.5149C116.831 93.6753 116.627 94.9443 116.627 94.9443C121.234 94.9212 121.8 95.1071 122.606 95.7791C125.028 97.8021 121.091 103.765 121.091 103.765C120.527 104.18 77.9616 120.618 77.9616 120.618H122.495L129.776 86.3755L129.777 86.3744ZM139.109 86.3744L137.261 95.0771C136.598 98.0838 138.625 99.4452 142.003 99.4452C145.393 99.4452 147.97 98.0827 148.616 95.0771C150.495 86.3744 148.595 95.0771 150.495 86.3744H147.661C147.661 86.3744 146.229 93.0691 145.981 94.2157C145.553 96.2237 144.495 97.4222 142.417 97.4222C140.249 97.4049 139.803 96.204 140.248 94.2157C140.198 94.4166 141.935 86.3744 141.935 86.3744H139.109ZM153.211 86.3744L150.486 99.2131H152.997L154.979 89.6848H155.037L158.206 99.2131H161.769L164.49 86.3744H161.984L159.961 96.0089H159.927L156.881 86.3744H153.211ZM167.207 86.3744L164.49 99.2131H167.318L170.039 86.3744H167.207ZM171.936 86.3744L171.487 88.4181H175.482L173.188 99.2143H176.018L178.31 88.4181H182.302L182.732 86.3744H171.936ZM184.633 86.3744L181.893 99.2131H191.197L191.63 97.1693H185.17L185.904 93.6603H191.543L191.951 91.7644H186.315L187.028 88.417H193.496L193.922 86.3732H184.632L184.633 86.3744ZM195.986 86.3744L193.268 99.2131H199.066C202.648 99.2131 206.087 96.8507 206.858 92.2308C207.409 88.9551 206.102 86.3744 202.216 86.3744H195.986ZM217.268 86.3744C213.942 86.3744 212.287 87.5556 212.041 89.4031C211.629 92.4791 217.072 94.3069 216.662 96.1486C216.408 97.2248 215.086 97.1705 214.012 97.1705H210.523L210.09 99.2131H214.425C217.97 99.2131 219.51 97.9407 219.794 96.1844C220.311 93.0333 214.782 91.4064 215.214 89.3673C215.355 88.7391 216.051 88.417 217.591 88.417H220.617L221.062 86.3744H217.268ZM222.516 86.3744L222.072 88.4181H226.064L223.773 99.2143H226.6L228.891 88.4181H232.886L233.316 86.3744H222.516ZM236.314 86.3744L228.957 99.2131H231.786L237.425 88.9204L238.555 97.1693H234.504L233.397 99.2131H241.701L239.698 86.3721H236.314V86.3744ZM242.821 86.3744L242.375 88.4181H246.367L244.075 99.2143H246.904L249.195 88.4181H253.184L253.617 86.3744H242.821ZM255.504 86.3744L252.762 99.2131H262.072L262.505 97.1693H256.036L256.772 93.6603H262.412L262.822 91.7644H257.185L257.901 88.417H264.363L264.793 86.3732H255.504V86.3744ZM271.018 86.3744C267.687 86.3744 266.04 87.5556 265.789 89.4031C265.378 92.4791 270.82 94.3069 270.41 96.1486C270.157 97.2248 268.831 97.1705 267.757 97.1705H264.267L263.838 99.2131H268.168C271.714 99.2131 273.256 97.9407 273.545 96.1844C274.06 93.0333 268.53 91.4064 268.957 89.3673C269.101 88.7391 269.801 88.417 271.341 88.417H274.361L274.815 86.3744H271.018ZM198.402 88.4181H201.289C203.633 88.4181 204.47 90.1559 204.113 92.195C203.613 95.0782 201.769 97.1705 198.567 97.1705H196.545L198.402 88.4181ZM104.484 94.2908C103.194 94.2815 102.286 94.3 102.182 94.2931H79.4268L73.8359 120.626C73.8359 120.626 90.9608 112.223 93.0553 111.147C97.3472 108.941 103.281 106.029 108.765 104.161C109.81 103.808 114.286 102.428 116.893 101.962C117.904 101.782 118.333 101.61 118.321 101.422C118.281 100.882 117.265 100.846 115.545 100.93C110.294 101.177 100.236 105.183 97.3403 106.71L94.0714 96.5793H114.956C115.66 94.6095 108.355 94.3231 104.483 94.2931L104.484 94.2908ZM115.557 96.7317C115.406 96.7317 115.276 96.8333 115.1 97.0724C114.94 97.2779 114.809 97.4176 114.394 97.6266C113.749 97.9441 112.062 98.1219 111.272 98.1878C110.515 98.2513 110.31 98.3286 110.297 98.6208C110.289 98.8829 110.409 99.0318 111.497 99.0318C113.998 99.0318 118.5 98.0885 119.856 98.5203C120.572 98.7489 119.997 100.025 119.409 101.703C119.182 102.349 119.629 102.304 119.887 102.02C120.147 101.734 121.315 99.5964 121.442 98.5088C121.622 96.9627 120.296 96.7306 118.467 96.7306H115.557V96.7317ZM152.561 107.545C148.589 107.545 145.277 109.621 144.307 114.187C143.541 117.838 145.762 120.845 149.717 120.845C153.728 120.845 156.95 118.86 157.953 114.187C158.774 110.375 156.5 107.545 152.561 107.545V107.545ZM265.887 107.545C261.947 107.545 258.155 109.584 257.186 114.187C256.204 118.787 259.119 120.845 263.061 120.845C264.151 120.845 265.196 120.721 266.232 120.562L266.929 118.354C265.91 118.608 264.831 118.805 263.489 118.805C260.928 118.805 259.482 117.087 260.089 114.187C260.698 111.285 262.88 109.584 265.438 109.584C266.748 109.584 267.641 109.763 268.447 109.997L268.7 107.832C267.789 107.671 266.841 107.545 265.887 107.545V107.545ZM164.872 107.776C161.54 107.776 159.89 108.957 159.641 110.804C159.229 113.884 164.67 115.709 164.264 117.554C164.012 118.628 162.685 118.573 161.611 118.573H158.121L157.688 120.614H162.025C165.569 120.614 167.107 119.344 167.394 117.588C167.913 114.439 162.383 112.808 162.811 110.768C162.954 110.14 163.654 109.819 165.198 109.819H168.217L168.667 107.775H164.872V107.776ZM170.118 107.776L169.672 109.819H173.664L171.372 120.615H174.201L176.496 109.819H180.485L180.912 107.775H170.118V107.776ZM211.443 107.776C208.11 107.776 206.461 108.957 206.213 110.804C205.798 113.884 211.24 115.709 210.834 117.554C210.582 118.628 209.255 118.573 208.181 118.573H204.691L204.26 120.614H208.595C212.137 120.614 213.677 119.344 213.964 117.588C214.483 114.439 208.954 112.808 209.376 110.768C209.521 110.14 210.223 109.819 211.763 109.819H214.787L215.233 107.775H211.442L211.443 107.776ZM217.684 107.776L214.944 120.614H224.256L224.685 118.573H218.221L218.957 115.062H224.597L225.007 113.163H219.37L220.082 109.819H226.549L226.973 107.775H217.685L217.684 107.776ZM229.031 107.776L226.308 120.614H229.137L231.428 109.8H233.97C235.545 109.8 235.685 110.675 235.526 111.483C235.223 113.003 233.898 113.612 232.448 113.612C232.179 113.612 231.728 113.63 231.372 113.576L233.702 120.614H236.797L234.684 115.079C236.565 114.813 238.179 113.471 238.354 111.052C238.518 108.903 237.516 107.775 235.011 107.775H229.03L229.031 107.776ZM270.985 107.776L268.25 120.614H277.56L277.989 118.573H271.527L272.261 115.062H277.901L278.311 113.163H272.674L273.39 109.819H279.851L280.28 107.775H270.985V107.776ZM134.572 107.777L131.85 120.614H134.68L136.972 109.818H139.279C140.32 109.818 141.033 110.336 140.731 111.733C140.572 112.502 139.871 113.828 137.937 113.828C137.509 113.828 137.043 113.773 136.688 113.738L136.83 115.602C137.24 115.639 137.725 115.706 138.174 115.706C140.715 115.706 142.953 114.24 143.474 111.804C143.812 110.194 143.49 107.777 140.715 107.777H134.572ZM183.934 107.777L176.582 120.614H179.406L185.05 110.319L186.173 118.573H182.13L181.021 120.614H189.323L187.323 107.777H183.934ZM193.52 107.777L190.801 120.614H199.485L199.932 118.573H194.078L196.369 107.777H193.52ZM239.857 107.777L241.789 120.614H245.134L252.443 107.777H249.649L244.011 118.075L242.685 107.777H239.856H239.857ZM254.147 107.777L251.428 120.614H254.257L256.977 107.777H254.148H254.147ZM152.114 109.584C154.728 109.584 155.607 111.588 155.053 114.187C154.44 117.088 152.723 118.805 150.164 118.805C147.513 118.805 146.635 116.675 147.19 114.187C147.851 111.286 149.557 109.584 152.114 109.584V109.584Z" fill="white"/>
<path d="M135.575 103.021L135.375 103.974H281.094L281.29 103.021H135.585H135.575Z" fill="white"/>
<defs>
<filter id="filter0_d_497_4393" x="0" y="0" width="353.291" height="207" filterUnits="userSpaceOnUse" color-interpolation-filters="sRGB">
<feFlood flood-opacity="0" result="BackgroundImageFix"/>
<feColorMatrix in="SourceAlpha" type="matrix" values="0 0 0 0 0 0 0 0 0 0 0 0 0 0 0 0 0 0 127 0" result="hardAlpha"/>
<feOffset/>
<feGaussianBlur stdDeviation="20"/>
<feColorMatrix type="matrix" values="0 0 0 0 0.831373 0 0 0 0 0.85098 0 0 0 0 0.909804 0 0 0 0.2 0"/>
<feBlend mode="normal" in2="BackgroundImageFix" result="effect1_dropShadow_497_4393"/>
<feBlend mode="normal" in="SourceGraphic" in2="effect1_dropShadow_497_4393" result="shape"/>
</filter>
</defs>
</svg>
