<svg width="95" height="95" viewBox="0 0 95 95" fill="none" xmlns="http://www.w3.org/2000/svg">
<circle cx="47.2611" cy="47.2611" r="47.2611" fill="white"/>
<path d="M53.6332 47.1833V54.1362C53.6332 54.7512 53.5649 55.3321 53.4112 55.8617C52.7791 58.3729 50.6949 59.9446 47.8249 59.9446H43.1782L38.0191 63.3783C37.2503 63.9079 36.2253 63.3442 36.2253 62.4217V59.9446C34.4828 59.9446 33.0307 59.3638 32.0228 58.3558C30.9978 57.3308 30.417 55.8787 30.417 54.1362V47.1833C30.417 43.9375 32.4328 41.6996 35.542 41.4092C35.7641 41.3921 35.9862 41.375 36.2253 41.375H47.8249C51.3099 41.375 53.6332 43.6983 53.6332 47.1833Z" fill="#295A8E"/>
<path d="M57.3232 52.6501C59.4928 52.6501 61.3207 51.9326 62.5849 50.6513C63.8662 49.3872 64.5837 47.5593 64.5837 45.3897V36.6772C64.5837 32.6626 61.3378 29.4167 57.3232 29.4167H42.8024C38.7878 29.4167 35.542 32.6626 35.542 36.6772V37.9584C35.542 38.4367 35.9178 38.8126 36.3962 38.8126H47.8249C52.4545 38.8126 56.1957 42.5538 56.1957 47.1834V51.7959C56.1957 52.2743 56.5716 52.6501 57.0499 52.6501H57.3232V52.6501Z" fill="#295A8E"/>
</svg>
