<svg width="38" height="38" viewBox="0 0 38 38" fill="none" xmlns="http://www.w3.org/2000/svg">
<path opacity="0.4" d="M19.0001 34.8332C27.7446 34.8332 34.8334 27.7443 34.8334 18.9998C34.8334 10.2553 27.7446 3.1665 19.0001 3.1665C10.2556 3.1665 3.16675 10.2553 3.16675 18.9998C3.16675 27.7443 10.2556 34.8332 19.0001 34.8332Z" fill="#0393FB"/>
<path d="M13.1735 25.3649C12.8727 25.3649 12.5719 25.2541 12.3344 25.0166C11.8752 24.5574 11.8752 23.7974 12.3344 23.3382L22.7052 12.9674C23.1643 12.5083 23.9243 12.5083 24.3835 12.9674C24.8427 13.4266 24.8427 14.1866 24.3835 14.6458L14.0127 25.0166C13.7752 25.2541 13.4744 25.3649 13.1735 25.3649Z" fill="#0393FB"/>
<path d="M13.8226 12.1284C12.5401 12.1284 11.4792 13.1734 11.4792 14.4718C11.4792 15.7543 12.5243 16.8151 13.8226 16.8151C15.1051 16.8151 16.1659 15.7701 16.1659 14.4718C16.1501 13.1734 15.1051 12.1284 13.8226 12.1284Z" fill="#0393FB"/>
<path d="M24.1775 21.2012C22.895 21.2012 21.8342 22.2461 21.8342 23.5445C21.8342 24.827 22.8792 25.8878 24.1775 25.8878C25.46 25.8878 26.5209 24.8428 26.5209 23.5445C26.5209 22.2461 25.4759 21.2012 24.1775 21.2012Z" fill="#0393FB"/>
</svg>
