<svg width="38" height="38" viewBox="0 0 38 38" fill="none" xmlns="http://www.w3.org/2000/svg">
<path opacity="0.4" d="M30.0834 16.2764V27.5973C30.0359 32.1098 28.8009 33.2498 24.0984 33.2498H9.15179C4.37013 33.2498 3.16675 32.0623 3.16675 27.3439V16.2764C3.16675 12.0014 4.16425 10.6239 7.91675 10.4023C8.29675 10.3864 8.70846 10.3706 9.15179 10.3706H24.0984C28.88 10.3706 30.0834 11.5581 30.0834 16.2764Z" fill="#FF666F"/>
<path d="M34.8334 10.6558V21.7233C34.8334 25.9983 33.8359 27.3758 30.0834 27.5975V16.2767C30.0834 11.5583 28.88 10.3708 24.0984 10.3708H9.15179C8.70846 10.3708 8.29675 10.3867 7.91675 10.4025C7.96425 5.89 9.19929 4.75 13.9018 4.75H28.8484C33.63 4.75 34.8334 5.9375 34.8334 10.6558Z" fill="#FF666F"/>
<path d="M11.02 29.3867H8.29663C7.64746 29.3867 7.10913 28.8484 7.10913 28.1992C7.10913 27.5501 7.64746 27.0117 8.29663 27.0117H11.02C11.6692 27.0117 12.2075 27.5501 12.2075 28.1992C12.2075 28.8484 11.685 29.3867 11.02 29.3867Z" fill="#FF666F"/>
<path d="M19.8707 29.3867H14.4241C13.7749 29.3867 13.2366 28.8484 13.2366 28.1992C13.2366 27.5501 13.7749 27.0117 14.4241 27.0117H19.8707C20.5199 27.0117 21.0582 27.5501 21.0582 28.1992C21.0582 28.8484 20.5357 29.3867 19.8707 29.3867Z" fill="#FF666F"/>
<path d="M30.0834 18.7783H3.16675V21.1533H30.0834V18.7783Z" fill="#FF666F"/>
</svg>
