<svg width="354" height="207" viewBox="0 0 354 207" fill="none" xmlns="http://www.w3.org/2000/svg">
<g filter="url(#filter0_d_497_4381)">
<rect x="40.5859" y="40" width="273.291" height="127" rx="16" fill="#35A9FC"/>
</g>
<path d="M226.848 120.689L221.893 115.145L216.981 120.689H206.646L216.747 109.367L206.646 98.0418H217.304L222.309 103.543L227.125 98.0418H237.41L227.359 109.319L237.55 120.689H226.848ZM186.801 120.689V85.0127H206.646V92.9648H195.207V98.0418H206.646V105.694H195.207V112.717H206.646V120.689H186.801Z" fill="white"/>
<path d="M177.993 85.0127V99.6132H177.9C176.047 97.488 173.73 96.7473 171.044 96.7473C165.54 96.7473 161.393 100.483 159.938 105.418C158.277 99.9794 153.996 96.6456 147.649 96.6456C142.493 96.6456 138.424 98.9535 136.298 102.715V98.041H125.643V92.9656H137.272V85.0144H116.145V120.689H125.643V105.694H135.11C134.818 106.847 134.672 108.032 134.676 109.221C134.676 116.659 140.373 121.886 147.647 121.886C153.762 121.886 157.795 119.02 159.926 113.801H151.786C150.685 115.371 149.849 115.835 147.648 115.835C145.097 115.835 142.895 113.613 142.895 110.983H159.469C160.188 116.892 164.803 121.987 171.137 121.987C173.869 121.987 176.37 120.647 177.899 118.382H177.991V120.694H186.366V85.0144H177.993V85.0127ZM143.159 105.8C143.688 103.533 145.449 102.052 147.648 102.052C150.069 102.052 151.741 103.488 152.18 105.8H143.159ZM172.911 115.26C169.825 115.26 167.907 112.391 167.907 109.395C167.907 106.192 169.576 103.116 172.911 103.116C176.371 103.116 177.75 106.194 177.75 109.395C177.75 112.43 176.29 115.26 172.911 115.26Z" fill="white"/>
<defs>
<filter id="filter0_d_497_4381" x="0.585938" y="0" width="353.291" height="207" filterUnits="userSpaceOnUse" color-interpolation-filters="sRGB">
<feFlood flood-opacity="0" result="BackgroundImageFix"/>
<feColorMatrix in="SourceAlpha" type="matrix" values="0 0 0 0 0 0 0 0 0 0 0 0 0 0 0 0 0 0 127 0" result="hardAlpha"/>
<feOffset/>
<feGaussianBlur stdDeviation="20"/>
<feColorMatrix type="matrix" values="0 0 0 0 0.831373 0 0 0 0 0.85098 0 0 0 0 0.909804 0 0 0 0.2 0"/>
<feBlend mode="normal" in2="BackgroundImageFix" result="effect1_dropShadow_497_4381"/>
<feBlend mode="normal" in="SourceGraphic" in2="effect1_dropShadow_497_4381" result="shape"/>
</filter>
</defs>
</svg>
