<svg width="208" height="43" viewBox="0 0 208 43" fill="none" xmlns="http://www.w3.org/2000/svg">
<path d="M31.3657 23.258C30.8697 24.3337 30.2463 25.3778 29.4956 26.3899C25.4669 31.8221 20.4453 37.5709 16.4122 43C14.4831 40.3857 12.2225 37.5843 9.95706 34.7868C7.69116 31.9889 5.41994 29.1954 3.46906 26.5976C1.09091 23.431 -0.182468 19.8887 0.0211831 15.9306C0.317121 10.1694 2.81019 5.78437 7.35662 2.77968C7.35441 2.80769 7.35352 2.83749 7.35352 2.86861C7.36106 8.39775 7.36195 13.9269 7.35174 19.456C7.3513 19.7477 7.45202 19.89 7.69382 20.0297C12.451 22.7782 17.2038 25.5357 21.9561 28.2931C22.0599 28.3532 22.1531 28.4323 22.2511 28.5021H22.386C23.0968 28.077 23.8027 27.6435 24.5192 27.2277C26.8007 25.9034 29.0825 24.5796 31.3657 23.258Z" fill="white"/>
<path d="M21.3136 12.0437C21.3043 16.434 21.307 20.8243 21.307 25.2142V25.5504C21.1628 25.4743 21.0647 25.4276 20.9711 25.3734C17.1989 23.1865 13.4271 20.9982 9.65314 18.8144C9.47477 18.7112 9.37583 18.6103 9.37628 18.3755C9.38515 13.9629 9.38293 9.54993 9.38338 5.13738C9.38338 5.0609 9.38959 4.98397 9.39491 4.86524C9.51737 4.92616 9.61631 4.9684 9.70815 5.02177C13.4812 7.20736 17.253 9.39518 21.0279 11.5777C21.2187 11.6879 21.3145 11.8 21.3136 12.0437Z" fill="white"/>
<path d="M29.1145 6.04986C26.9551 7.30074 24.7965 8.55251 22.6402 9.80873C22.4046 9.94613 22.2387 9.94658 22.0027 9.80873C18.2637 7.63158 14.519 5.4651 10.7757 3.29552C10.6701 3.23415 10.5671 3.16745 10.4305 3.08385C10.5432 3.01048 10.6284 2.94956 10.7189 2.89708C12.3836 1.93124 14.0492 0.965843 15.7139 0H15.8767C17.1164 0 18.3551 0.101831 19.5748 0.322392C19.7625 0.356188 19.9493 0.393096 20.1352 0.434007C23.6736 1.21219 26.837 3.26661 29.114 6.04986H29.1145Z" fill="white"/>
<path d="M32.3871 20.3223C29.4419 22.0267 26.4981 23.7347 23.5538 25.4414C23.4983 25.4734 23.438 25.4979 23.3408 25.5455C23.3355 25.4325 23.331 25.376 23.331 25.32C23.3306 20.8852 23.331 16.45 23.3271 12.0152C23.3271 11.8271 23.3745 11.7164 23.5485 11.6163C25.8028 10.3143 28.0558 9.00963 30.3084 7.7045C31.4456 9.50145 32.2389 11.5172 32.5823 13.6383C32.9603 15.9724 32.896 18.202 32.3871 20.3223Z" fill="white"/>
<path d="M46.9574 17.0173C46.0366 22.4666 50.3616 23.5006 53.5425 23.9477C55.3283 24.1992 56.7234 24.5066 56.5281 25.5965C56.3049 26.7981 55.133 27.1893 53.2356 27.1893C51.673 27.1893 50.6964 26.6863 50.3616 25.7082C50.0825 24.8978 49.7198 24.814 48.8269 25.0934L46.0366 26.0436C45.1716 26.351 44.8647 26.7422 45.0042 27.5806C45.5623 30.431 48.52 31.9121 52.6775 31.9121C57.8396 31.9121 61.3274 30.1515 62.0808 26.0436C63.0016 20.9296 59.0115 19.4765 55.8864 19.0294C53.8773 18.7778 52.3148 18.5263 52.5101 17.3247C52.6775 16.3466 53.5146 15.8716 55.412 15.8716C56.6955 15.8716 57.6163 16.2628 57.9791 17.3247C58.286 18.1351 58.565 18.2469 59.3742 17.9116L62.1366 16.8217C63.0295 16.4584 63.2527 16.179 62.9737 15.3685C62.1366 12.7696 60.2113 11.2327 56.0817 11.2327C50.7522 11.2327 47.6271 13.3285 46.9574 17.0173Z" fill="white"/>
<path d="M81.7413 11.6239H78.5603C77.6953 11.6239 77.3326 11.9313 77.1652 12.8255L76.077 19.0014H70.6917L71.7799 12.8255C71.9473 11.9313 71.6962 11.6239 70.8033 11.6239H67.6503C66.7574 11.6239 66.4225 11.9313 66.2551 12.8255L63.1579 30.3192C63.0184 31.1855 63.2416 31.4929 64.1345 31.4929H67.2875C68.1804 31.4929 68.5432 31.1855 68.6827 30.3192L69.8267 23.8918H75.212L74.0959 30.3192C73.9284 31.1855 74.1796 31.4929 75.0725 31.4929H78.2255C79.1184 31.4929 79.4532 31.1855 79.6206 30.3192L82.69 12.8255C82.8574 11.9313 82.6063 11.6239 81.7413 11.6239Z" fill="white"/>
<path d="M85.5746 12.7696L82.4774 30.3751C82.3379 31.2134 82.5611 31.4929 83.3982 31.4929H86.6908C87.5278 31.4929 87.8627 31.2134 88.0022 30.3751L91.0994 12.7696C91.2668 11.9313 91.0157 11.6518 90.1786 11.6518H86.8861C86.049 11.6518 85.7421 11.9313 85.5746 12.7696Z" fill="white"/>
<path d="M103.009 11.6518H95.3073C94.4144 11.6518 94.0796 11.9592 93.9122 12.8255L90.8428 30.3192C90.6754 31.1855 90.9266 31.4929 91.8195 31.4929H94.9725C95.8654 31.4929 96.2002 31.1855 96.3676 30.3192L97.2047 25.5406H100.609C104.962 25.5406 108.115 23.4726 108.896 19.0573C109.649 14.614 107.361 11.6518 103.009 11.6518ZM100.804 20.6502H98.0697L98.7952 16.5422H101.53C102.869 16.5422 103.483 17.3806 103.26 18.6102C103.036 19.8398 102.116 20.6502 100.804 20.6502Z" fill="white"/>
<path d="M120.181 11.6518H113.401C112.508 11.6518 112.173 11.9592 112.005 12.8255L108.936 30.3192C108.769 31.1855 109.02 31.4929 109.913 31.4929H116.777C122.302 31.4929 125.734 28.9219 126.599 24.0874L127.324 19.8957C128.189 15.0611 125.706 11.6518 120.181 11.6518ZM121.855 19.5603L121.158 23.5844C120.795 25.5685 119.651 26.6025 117.391 26.6025H115.103L116.888 16.5422H119.149C121.409 16.5422 122.218 17.5762 121.855 19.5603Z" fill="white"/>
<path d="M130.917 12.7696L127.82 30.3751C127.68 31.2134 127.903 31.4929 128.74 31.4929H132.033C132.87 31.4929 133.205 31.2134 133.344 30.3751L136.442 12.7696C136.609 11.9313 136.358 11.6518 135.521 11.6518H132.228C131.391 11.6518 131.084 11.9313 130.917 12.7696Z" fill="white"/>
<path d="M148.602 11.6518H140.65C139.757 11.6518 139.422 11.9592 139.254 12.8255L136.185 30.3192C136.018 31.1855 136.269 31.4929 137.162 31.4929H140.315C141.208 31.4929 141.542 31.1855 141.71 30.3192L142.659 24.8978H143.384C144.612 24.8978 144.807 25.3729 145.114 26.323L146.23 30.1515C146.509 31.1296 147.095 31.4929 148.574 31.4929H151.588C152.508 31.4929 152.815 30.8781 152.564 30.1236L150.89 25.345C150.723 24.8978 150.555 24.5066 150.36 24.1433C152.425 23.0814 153.876 21.3209 154.35 18.6102C155.131 14.2787 152.815 11.6518 148.602 11.6518ZM148.63 18.3587C148.435 19.5044 147.653 20.231 146.481 20.231H143.468L144.137 16.5422H147.123C148.323 16.5422 148.853 17.2409 148.63 18.3587Z" fill="white"/>
<path d="M170.788 11.6518H159.097C158.204 11.6518 157.869 11.9592 157.702 12.8255L154.633 30.3192C154.465 31.1855 154.716 31.4929 155.609 31.4929H167.524C168.417 31.4929 168.779 31.1855 168.919 30.3192L169.365 27.7762C169.533 26.8819 169.282 26.6025 168.417 26.6025H160.799L161.274 23.9198H167.161C168.054 23.9198 168.389 23.6124 168.556 22.7181L169.003 20.2031C169.142 19.3368 168.919 19.0294 168.026 19.0294H162.139L162.585 16.5422H169.951C170.816 16.5422 171.179 16.2348 171.347 15.3406L171.793 12.8255C171.932 11.9592 171.681 11.6518 170.788 11.6518Z" fill="white"/>
<path d="M172.464 18.6661L171.543 23.8359C170.734 28.6425 173.301 31.9121 178.797 31.9121C183.095 31.9121 186.108 30.2074 187.81 27.0776C188.257 26.2671 188.117 25.848 187.336 25.5685L184.434 24.4507C183.653 24.1433 183.29 24.3389 182.788 25.2052C182.118 26.4069 181.141 27.0217 179.579 27.0217C177.374 27.0217 176.677 26.0715 177.012 24.1154L177.932 19.0294C178.267 17.0732 179.3 16.1231 181.504 16.1231C183.067 16.1231 183.792 16.682 184.043 17.9395C184.239 18.8058 184.545 18.9735 185.438 18.694L188.312 17.7159C189.205 17.4365 189.428 17.0173 189.261 16.2069C188.675 13.077 186.61 11.2327 182.313 11.2327C176.816 11.2327 173.301 13.8595 172.464 18.6661Z" fill="white"/>
<path d="M206.099 11.6518H192.287C191.395 11.6518 191.06 11.9592 190.892 12.8255L190.446 15.3406C190.306 16.2348 190.53 16.5422 191.422 16.5422H195.58L193.152 30.3192C192.985 31.1855 193.236 31.4929 194.129 31.4929H197.282C198.175 31.4929 198.51 31.1855 198.677 30.3192L201.105 16.5422H205.234C206.127 16.5422 206.49 16.2348 206.63 15.3406L207.076 12.8255C207.243 11.9592 206.992 11.6518 206.099 11.6518Z" fill="white"/>
</svg>
