<svg width="394" height="91" viewBox="0 0 394 91" fill="none" xmlns="http://www.w3.org/2000/svg">
<path d="M18.6948 26.2756C18.5812 25.1297 18.0935 24.2396 17.2318 23.6051C16.37 22.9706 15.2005 22.6534 13.7232 22.6534C12.7194 22.6534 11.8719 22.7955 11.1806 23.0795C10.4893 23.3542 9.95903 23.7377 9.58971 24.2301C9.22986 24.7225 9.04994 25.2812 9.04994 25.9062C9.031 26.4271 9.1399 26.8816 9.37664 27.2699C9.62285 27.6581 9.95903 27.9943 10.3852 28.2784C10.8113 28.553 11.3037 28.7945 11.8624 29.0028C12.4211 29.2017 13.0177 29.3722 13.6522 29.5142L16.2658 30.1392C17.5348 30.4233 18.6996 30.8021 19.7602 31.2756C20.8208 31.7491 21.7393 32.3314 22.5158 33.0227C23.2924 33.714 23.8937 34.5284 24.3198 35.4659C24.7554 36.4034 24.978 37.4782 24.9874 38.6903C24.978 40.4706 24.5234 42.0142 23.6238 43.321C22.7336 44.6184 21.4458 45.6269 19.7602 46.3466C18.084 47.0568 16.0622 47.4119 13.6948 47.4119C11.3463 47.4119 9.30088 47.0521 7.55846 46.3324C5.8255 45.6127 4.47134 44.5473 3.49596 43.1364C2.53005 41.7159 2.02342 39.9593 1.97607 37.8665H7.92778C7.99406 38.8419 8.27342 39.6562 8.76584 40.3097C9.26774 40.9536 9.93535 41.4413 10.7687 41.7727C11.6115 42.0947 12.5632 42.2557 13.6238 42.2557C14.6655 42.2557 15.5698 42.1042 16.3369 41.8011C17.1134 41.4981 17.7147 41.0767 18.1408 40.5369C18.567 39.9972 18.78 39.3769 18.78 38.6761C18.78 38.0227 18.5859 37.4735 18.1977 37.0284C17.8189 36.5833 17.2602 36.2045 16.5215 35.892C15.7924 35.5795 14.8975 35.2955 13.8369 35.0398L10.6693 34.2443C8.2166 33.6477 6.28005 32.715 4.85959 31.446C3.43914 30.1771 2.73365 28.4678 2.74312 26.3182C2.73365 24.5568 3.2024 23.018 4.14937 21.7017C5.10581 20.3854 6.41736 19.358 8.08403 18.6193C9.75069 17.8807 11.6446 17.5114 13.7658 17.5114C15.9249 17.5114 17.8094 17.8807 19.4193 18.6193C21.0386 19.358 22.298 20.3854 23.1977 21.7017C24.0973 23.018 24.5613 24.5426 24.5897 26.2756H18.6948ZM33.462 34.3864V47H27.4109V17.9091H33.2916V29.0312H33.5472C34.0397 27.7434 34.8351 26.7348 35.9336 26.0057C37.0321 25.267 38.4099 24.8977 40.0671 24.8977C41.5823 24.8977 42.9033 25.2292 44.0302 25.892C45.1666 26.5455 46.0472 27.4877 46.6722 28.7188C47.3067 29.9403 47.6192 31.4034 47.6097 33.108V47H41.5586V34.1875C41.5681 32.8428 41.2272 31.7964 40.5359 31.0483C39.8541 30.3002 38.8976 29.9261 37.6666 29.9261C36.8427 29.9261 36.1135 30.1013 35.4791 30.4517C34.8541 30.8021 34.3616 31.3134 34.0018 31.9858C33.6514 32.6487 33.4715 33.4489 33.462 34.3864ZM50.7718 47V25.1818H56.8229V47H50.7718ZM53.8116 22.3693C52.912 22.3693 52.1402 22.071 51.4962 21.4744C50.8618 20.8684 50.5445 20.1439 50.5445 19.3011C50.5445 18.4678 50.8618 17.7528 51.4962 17.1562C52.1402 16.5502 52.912 16.2472 53.8116 16.2472C54.7112 16.2472 55.4782 16.5502 56.1127 17.1562C56.7567 17.7528 57.0786 18.4678 57.0786 19.3011C57.0786 20.1439 56.7567 20.8684 56.1127 21.4744C55.4782 22.071 54.7112 22.3693 53.8116 22.3693ZM60.0702 55.1818V25.1818H66.0362V28.8466H66.306C66.5712 28.2595 66.9547 27.6629 67.4566 27.0568C67.968 26.4413 68.6309 25.9299 69.4452 25.5227C70.2691 25.1061 71.2918 24.8977 72.5134 24.8977C74.1043 24.8977 75.5721 25.3144 76.9168 26.1477C78.2615 26.9716 79.3363 28.2169 80.1413 29.8835C80.9462 31.5407 81.3487 33.6193 81.3487 36.1193C81.3487 38.553 80.9557 40.608 80.1697 42.2841C79.3932 43.9508 78.3326 45.215 76.9879 46.0767C75.6526 46.929 74.1564 47.3551 72.4992 47.3551C71.325 47.3551 70.3259 47.161 69.5021 46.7727C68.6877 46.3845 68.0201 45.8968 67.4992 45.3097C66.9784 44.7131 66.5807 44.1117 66.306 43.5057H66.1214V55.1818H60.0702ZM65.9935 36.0909C65.9935 37.3883 66.1735 38.5199 66.5333 39.4858C66.8932 40.4517 67.414 41.2045 68.0958 41.7443C68.7776 42.2746 69.6062 42.5398 70.5816 42.5398C71.5665 42.5398 72.3998 42.2699 73.0816 41.7301C73.7634 41.1809 74.2795 40.4233 74.6299 39.4574C74.9898 38.482 75.1697 37.3598 75.1697 36.0909C75.1697 34.8314 74.9945 33.7235 74.6441 32.767C74.2937 31.8106 73.7776 31.0625 73.0958 30.5227C72.414 29.983 71.5759 29.7131 70.5816 29.7131C69.5968 29.7131 68.7634 29.9735 68.0816 30.4943C67.4093 31.0152 66.8932 31.7538 66.5333 32.7102C66.1735 33.6667 65.9935 34.7936 65.9935 36.0909ZM83.7827 55.1818V25.1818H89.7487V28.8466H90.0185C90.2837 28.2595 90.6672 27.6629 91.1691 27.0568C91.6805 26.4413 92.3434 25.9299 93.1577 25.5227C93.9816 25.1061 95.0043 24.8977 96.2259 24.8977C97.8168 24.8977 99.2846 25.3144 100.629 26.1477C101.974 26.9716 103.049 28.2169 103.854 29.8835C104.659 31.5407 105.061 33.6193 105.061 36.1193C105.061 38.553 104.668 40.608 103.882 42.2841C103.106 43.9508 102.045 45.215 100.7 46.0767C99.3651 46.929 97.8689 47.3551 96.2117 47.3551C95.0375 47.3551 94.0384 47.161 93.2146 46.7727C92.4002 46.3845 91.7326 45.8968 91.2117 45.3097C90.6909 44.7131 90.2932 44.1117 90.0185 43.5057H89.8339V55.1818H83.7827ZM89.706 36.0909C89.706 37.3883 89.886 38.5199 90.2458 39.4858C90.6057 40.4517 91.1265 41.2045 91.8083 41.7443C92.4901 42.2746 93.3187 42.5398 94.2941 42.5398C95.279 42.5398 96.1123 42.2699 96.7941 41.7301C97.4759 41.1809 97.992 40.4233 98.3424 39.4574C98.7023 38.482 98.8822 37.3598 98.8822 36.0909C98.8822 34.8314 98.707 33.7235 98.3566 32.767C98.0062 31.8106 97.4901 31.0625 96.8083 30.5227C96.1265 29.983 95.2884 29.7131 94.2941 29.7131C93.3093 29.7131 92.4759 29.9735 91.7941 30.4943C91.1218 31.0152 90.6057 31.7538 90.2458 32.7102C89.886 33.6667 89.706 34.7936 89.706 36.0909ZM107.495 47V25.1818H113.546V47H107.495ZM110.535 22.3693C109.635 22.3693 108.864 22.071 108.22 21.4744C107.585 20.8684 107.268 20.1439 107.268 19.3011C107.268 18.4678 107.585 17.7528 108.22 17.1562C108.864 16.5502 109.635 16.2472 110.535 16.2472C111.435 16.2472 112.202 16.5502 112.836 17.1562C113.48 17.7528 113.802 18.4678 113.802 19.3011C113.802 20.1439 113.48 20.8684 112.836 21.4744C112.202 22.071 111.435 22.3693 110.535 22.3693ZM122.845 34.3864V47H116.794V25.1818H122.561V29.0312H122.816C123.299 27.7623 124.109 26.7585 125.245 26.0199C126.382 25.2718 127.76 24.8977 129.379 24.8977C130.894 24.8977 132.215 25.2292 133.342 25.892C134.469 26.5549 135.345 27.5019 135.97 28.733C136.595 29.9545 136.907 31.4129 136.907 33.108V47H130.856V34.1875C130.866 32.8523 130.525 31.8106 129.833 31.0625C129.142 30.3049 128.19 29.9261 126.978 29.9261C126.164 29.9261 125.444 30.1013 124.819 30.4517C124.204 30.8021 123.721 31.3134 123.37 31.9858C123.029 32.6487 122.854 33.4489 122.845 34.3864ZM149.906 55.6364C147.946 55.6364 146.265 55.3665 144.863 54.8267C143.471 54.2964 142.363 53.572 141.54 52.6534C140.716 51.7348 140.181 50.7027 139.934 49.5568L145.531 48.804C145.702 49.2396 145.971 49.6468 146.341 50.0256C146.71 50.4044 147.198 50.7074 147.804 50.9347C148.419 51.1714 149.167 51.2898 150.048 51.2898C151.364 51.2898 152.449 50.9678 153.301 50.3239C154.163 49.6894 154.594 48.6241 154.594 47.1278V43.1364H154.338C154.073 43.7424 153.675 44.3153 153.145 44.8551C152.614 45.3949 151.933 45.8352 151.099 46.1761C150.266 46.517 149.272 46.6875 148.116 46.6875C146.478 46.6875 144.987 46.3087 143.642 45.5511C142.307 44.7841 141.241 43.6146 140.446 42.0426C139.66 40.4612 139.267 38.4631 139.267 36.0483C139.267 33.5767 139.669 31.5123 140.474 29.8551C141.279 28.1979 142.349 26.9574 143.684 26.1335C145.029 25.3097 146.502 24.8977 148.102 24.8977C149.324 24.8977 150.346 25.1061 151.17 25.5227C151.994 25.9299 152.657 26.4413 153.159 27.0568C153.67 27.6629 154.063 28.2595 154.338 28.8466H154.565V25.1818H160.574V47.2131C160.574 49.0691 160.119 50.6222 159.21 51.8722C158.301 53.1222 157.041 54.0597 155.432 54.6847C153.831 55.3191 151.989 55.6364 149.906 55.6364ZM150.034 42.142C151.009 42.142 151.833 41.9006 152.505 41.4176C153.187 40.9252 153.708 40.2244 154.068 39.3153C154.437 38.3968 154.622 37.2983 154.622 36.0199C154.622 34.7415 154.442 33.6335 154.082 32.696C153.722 31.7491 153.202 31.0152 152.52 30.4943C151.838 29.9735 151.009 29.7131 150.034 29.7131C149.04 29.7131 148.202 29.983 147.52 30.5227C146.838 31.053 146.322 31.7917 145.971 32.7386C145.621 33.6856 145.446 34.7794 145.446 36.0199C145.446 37.2794 145.621 38.3684 145.971 39.2869C146.331 40.196 146.847 40.9015 147.52 41.4034C148.202 41.8958 149.04 42.142 150.034 42.142ZM197.228 28.0938H191.006C190.893 27.2888 190.661 26.5739 190.31 25.9489C189.96 25.3144 189.51 24.7746 188.961 24.3295C188.412 23.8845 187.777 23.5436 187.058 23.3068C186.347 23.0701 185.576 22.9517 184.742 22.9517C183.237 22.9517 181.925 23.3258 180.808 24.0739C179.69 24.8125 178.824 25.892 178.208 27.3125C177.593 28.7235 177.285 30.4375 177.285 32.4545C177.285 34.5284 177.593 36.2708 178.208 37.6818C178.833 39.0928 179.704 40.1581 180.822 40.8778C181.939 41.5975 183.232 41.9574 184.7 41.9574C185.524 41.9574 186.286 41.8485 186.987 41.6307C187.697 41.4129 188.327 41.0956 188.876 40.679C189.425 40.2528 189.88 39.7367 190.239 39.1307C190.609 38.5246 190.864 37.8333 191.006 37.0568L197.228 37.0852C197.067 38.4205 196.665 39.7083 196.021 40.9489C195.386 42.1799 194.529 43.2831 193.45 44.2585C192.38 45.2244 191.101 45.9915 189.614 46.5597C188.137 47.1184 186.466 47.3977 184.6 47.3977C182.006 47.3977 179.685 46.8106 177.64 45.6364C175.604 44.4621 173.994 42.7623 172.81 40.5369C171.636 38.3116 171.049 35.6174 171.049 32.4545C171.049 29.2822 171.646 26.5833 172.839 24.358C174.032 22.1326 175.651 20.4375 177.697 19.2727C179.742 18.0985 182.043 17.5114 184.6 17.5114C186.286 17.5114 187.848 17.7481 189.288 18.2216C190.737 18.6951 192.02 19.3864 193.137 20.2955C194.255 21.1951 195.164 22.2983 195.864 23.6051C196.575 24.9119 197.029 26.4081 197.228 28.0938ZM209.783 47.4261C207.576 47.4261 205.668 46.9574 204.058 46.0199C202.458 45.0729 201.222 43.7566 200.351 42.071C199.48 40.3759 199.044 38.411 199.044 36.1761C199.044 33.9223 199.48 31.9527 200.351 30.267C201.222 28.572 202.458 27.2557 204.058 26.3182C205.668 25.3712 207.576 24.8977 209.783 24.8977C211.989 24.8977 213.893 25.3712 215.493 26.3182C217.103 27.2557 218.343 28.572 219.215 30.267C220.086 31.9527 220.522 33.9223 220.522 36.1761C220.522 38.411 220.086 40.3759 219.215 42.071C218.343 43.7566 217.103 45.0729 215.493 46.0199C213.893 46.9574 211.989 47.4261 209.783 47.4261ZM209.811 42.7386C210.815 42.7386 211.653 42.4545 212.326 41.8864C212.998 41.3087 213.504 40.5227 213.845 39.5284C214.196 38.5341 214.371 37.4025 214.371 36.1335C214.371 34.8646 214.196 33.733 213.845 32.7386C213.504 31.7443 212.998 30.9583 212.326 30.3807C211.653 29.803 210.815 29.5142 209.811 29.5142C208.798 29.5142 207.946 29.803 207.254 30.3807C206.573 30.9583 206.057 31.7443 205.706 32.7386C205.365 33.733 205.195 34.8646 205.195 36.1335C205.195 37.4025 205.365 38.5341 205.706 39.5284C206.057 40.5227 206.573 41.3087 207.254 41.8864C207.946 42.4545 208.798 42.7386 209.811 42.7386ZM236.848 37.7102V25.1818H242.899V47H237.089V43.0369H236.862C236.369 44.3153 235.55 45.3428 234.404 46.1193C233.268 46.8958 231.881 47.2841 230.243 47.2841C228.784 47.2841 227.501 46.9527 226.393 46.2898C225.285 45.6269 224.419 44.6847 223.794 43.4631C223.178 42.2415 222.866 40.7784 222.856 39.0739V25.1818H228.907V37.9943C228.917 39.2822 229.262 40.3002 229.944 41.0483C230.626 41.7964 231.54 42.1705 232.686 42.1705C233.415 42.1705 234.097 42.0047 234.731 41.6733C235.366 41.3324 235.877 40.8305 236.265 40.1676C236.663 39.5047 236.857 38.6856 236.848 37.7102ZM246.139 47V25.1818H252.005V28.9886H252.233C252.63 27.6345 253.298 26.6117 254.236 25.9205C255.173 25.2197 256.253 24.8693 257.474 24.8693C258.061 24.8693 258.606 24.9403 259.108 25.0824C259.61 25.2244 260.059 25.4186 260.457 25.6648L258.639 30.6648C258.355 30.5227 258.042 30.4044 257.702 30.3097C257.37 30.2055 256.996 30.1534 256.579 30.1534C255.765 30.1534 255.026 30.3475 254.363 30.7358C253.701 31.1146 253.175 31.6402 252.787 32.3125C252.398 32.9848 252.2 33.7661 252.19 34.6562V47H246.139ZM261.414 47V25.1818H267.465V47H261.414ZM264.454 22.3693C263.554 22.3693 262.782 22.071 262.138 21.4744C261.504 20.8684 261.187 20.1439 261.187 19.3011C261.187 18.4678 261.504 17.7528 262.138 17.1562C262.782 16.5502 263.554 16.2472 264.454 16.2472C265.353 16.2472 266.12 16.5502 266.755 17.1562C267.399 17.7528 267.721 18.4678 267.721 19.3011C267.721 20.1439 267.399 20.8684 266.755 21.4744C266.12 22.071 265.353 22.3693 264.454 22.3693ZM280.656 47.4261C278.411 47.4261 276.479 46.9716 274.86 46.0625C273.25 45.1439 272.01 43.8466 271.139 42.1705C270.267 40.4848 269.832 38.4915 269.832 36.1903C269.832 33.946 270.267 31.9763 271.139 30.2812C272.01 28.5862 273.236 27.2652 274.818 26.3182C276.408 25.3712 278.274 24.8977 280.414 24.8977C281.854 24.8977 283.194 25.1297 284.434 25.5938C285.684 26.0483 286.773 26.7348 287.701 27.6534C288.639 28.572 289.368 29.7273 289.889 31.1193C290.409 32.5019 290.67 34.1212 290.67 35.9773V37.6392H272.247V33.8892H284.974C284.974 33.018 284.784 32.2462 284.406 31.5739C284.027 30.9015 283.501 30.3759 282.829 29.9972C282.166 29.6089 281.394 29.4148 280.514 29.4148C279.595 29.4148 278.781 29.6278 278.07 30.054C277.37 30.4706 276.82 31.0341 276.423 31.7443C276.025 32.4451 275.821 33.2263 275.812 34.0881V37.6534C275.812 38.733 276.011 39.6657 276.408 40.4517C276.816 41.2377 277.389 41.8438 278.127 42.2699C278.866 42.696 279.742 42.9091 280.755 42.9091C281.427 42.9091 282.043 42.8144 282.602 42.625C283.16 42.4356 283.639 42.1515 284.036 41.7727C284.434 41.3939 284.737 40.9299 284.945 40.3807L290.542 40.75C290.258 42.0947 289.676 43.2689 288.795 44.2727C287.924 45.267 286.797 46.0436 285.414 46.6023C284.041 47.1515 282.455 47.4261 280.656 47.4261ZM293.019 47V25.1818H298.885V28.9886H299.112C299.51 27.6345 300.178 26.6117 301.115 25.9205C302.053 25.2197 303.132 24.8693 304.354 24.8693C304.941 24.8693 305.486 24.9403 305.987 25.0824C306.489 25.2244 306.939 25.4186 307.337 25.6648L305.519 30.6648C305.235 30.5227 304.922 30.4044 304.581 30.3097C304.25 30.2055 303.876 30.1534 303.459 30.1534C302.645 30.1534 301.906 30.3475 301.243 30.7358C300.58 31.1146 300.055 31.6402 299.666 32.3125C299.278 32.9848 299.079 33.7661 299.07 34.6562V47H293.019ZM308.294 47V25.1818H314.16V28.9886H314.387C314.785 27.6345 315.453 26.6117 316.39 25.9205C317.328 25.2197 318.407 24.8693 319.629 24.8693C320.216 24.8693 320.761 24.9403 321.262 25.0824C321.764 25.2244 322.214 25.4186 322.612 25.6648L320.794 30.6648C320.51 30.5227 320.197 30.4044 319.856 30.3097C319.525 30.2055 319.151 30.1534 318.734 30.1534C317.92 30.1534 317.181 30.3475 316.518 30.7358C315.855 31.1146 315.33 31.6402 314.941 32.3125C314.553 32.9848 314.354 33.7661 314.345 34.6562V47H308.294ZM341.722 31.4034L336.182 31.7443C336.088 31.2708 335.884 30.8447 335.572 30.4659C335.259 30.0777 334.847 29.7699 334.336 29.5426C333.834 29.3059 333.232 29.1875 332.532 29.1875C331.594 29.1875 330.804 29.3864 330.16 29.7841C329.516 30.1723 329.194 30.6932 329.194 31.3466C329.194 31.8674 329.402 32.3078 329.819 32.6676C330.235 33.0275 330.95 33.3163 331.964 33.5341L335.912 34.3295C338.034 34.7652 339.615 35.4659 340.657 36.4318C341.698 37.3977 342.219 38.6667 342.219 40.2386C342.219 41.6686 341.798 42.9233 340.955 44.0028C340.122 45.0824 338.976 45.9252 337.518 46.5312C336.069 47.1278 334.397 47.4261 332.503 47.4261C329.615 47.4261 327.314 46.8248 325.6 45.6222C323.895 44.41 322.896 42.7623 322.603 40.679L328.554 40.3665C328.734 41.2472 329.17 41.9195 329.861 42.3835C330.553 42.8381 331.438 43.0653 332.518 43.0653C333.578 43.0653 334.43 42.8617 335.074 42.4545C335.728 42.0379 336.059 41.5028 336.069 40.8494C336.059 40.3002 335.827 39.8504 335.373 39.5C334.918 39.1402 334.217 38.8655 333.27 38.6761L329.492 37.9233C327.361 37.4972 325.775 36.7585 324.733 35.7074C323.701 34.6562 323.185 33.3163 323.185 31.6875C323.185 30.286 323.564 29.0786 324.322 28.0653C325.089 27.0521 326.163 26.2708 327.546 25.7216C328.938 25.1723 330.567 24.8977 332.432 24.8977C335.188 24.8977 337.357 25.4801 338.938 26.6449C340.529 27.8097 341.457 29.3958 341.722 31.4034Z" fill="white"/>
<path d="M4.40447 82L0.824929 68.9091H2.43572L5.17152 79.571H5.29936L8.08629 68.9091H9.87607L12.663 79.571H12.7908L15.5266 68.9091H17.1374L13.5579 82H11.9215L9.03232 71.5682H8.93004L6.04084 82H4.40447ZM21.0826 82.2045C20.1962 82.2045 19.4185 81.9936 18.7495 81.5717C18.0847 81.1499 17.5648 80.5597 17.1898 79.8011C16.8191 79.0426 16.6337 78.1562 16.6337 77.142C16.6337 76.1193 16.8191 75.2266 17.1898 74.4638C17.5648 73.701 18.0847 73.1087 18.7495 72.6868C19.4185 72.2649 20.1962 72.054 21.0826 72.054C21.969 72.054 22.7445 72.2649 23.4093 72.6868C24.0783 73.1087 24.5982 73.701 24.969 74.4638C25.344 75.2266 25.5315 76.1193 25.5315 77.142C25.5315 78.1562 25.344 79.0426 24.969 79.8011C24.5982 80.5597 24.0783 81.1499 23.4093 81.5717C22.7445 81.9936 21.969 82.2045 21.0826 82.2045ZM21.0826 80.8494C21.7559 80.8494 22.3099 80.6768 22.7445 80.3317C23.1792 79.9865 23.5009 79.5327 23.7097 78.9702C23.9185 78.4077 24.0229 77.7983 24.0229 77.142C24.0229 76.4858 23.9185 75.8743 23.7097 75.3075C23.5009 74.7408 23.1792 74.2827 22.7445 73.9332C22.3099 73.5838 21.7559 73.4091 21.0826 73.4091C20.4093 73.4091 19.8553 73.5838 19.4207 73.9332C18.986 74.2827 18.6643 74.7408 18.4555 75.3075C18.2467 75.8743 18.1423 76.4858 18.1423 77.142C18.1423 77.7983 18.2467 78.4077 18.4555 78.9702C18.6643 79.5327 18.986 79.9865 19.4207 80.3317C19.8553 80.6768 20.4093 80.8494 21.0826 80.8494ZM26.9342 82V72.1818H28.3916V73.6648H28.4939C28.6686 73.179 28.9903 72.7848 29.4591 72.4822C29.9278 72.1797 30.4583 72.0284 31.0507 72.0284C31.3234 72.0284 31.562 72.0604 31.7666 72.1243C31.9711 72.1882 32.1501 72.2756 32.3035 72.3864L31.7922 73.6648C31.6856 73.6094 31.5599 73.5668 31.415 73.5369C31.2744 73.5028 31.1103 73.4858 30.9228 73.4858C30.4456 73.4858 30.0194 73.5859 29.6444 73.7862C29.2737 73.9865 28.9797 74.2592 28.7623 74.6044C28.5493 74.9496 28.4427 75.3437 28.4427 75.7869V82H26.9342ZM34.3486 78.4205L34.3231 76.554H34.6299L38.9254 72.1818H40.7918L36.2151 76.8097H36.0873L34.3486 78.4205ZM32.9424 82V68.9091H34.4509V82H32.9424ZM39.181 82L35.3458 77.142L36.4197 76.0938L41.0987 82H39.181ZM41.8334 82V72.1818H43.3419V82H41.8334ZM42.6005 70.5455C42.3064 70.5455 42.0529 70.4453 41.8398 70.245C41.631 70.0447 41.5266 69.804 41.5266 69.5227C41.5266 69.2415 41.631 69.0007 41.8398 68.8004C42.0529 68.6001 42.3064 68.5 42.6005 68.5C42.8945 68.5 43.1459 68.6001 43.3547 68.8004C43.5678 69.0007 43.6743 69.2415 43.6743 69.5227C43.6743 69.804 43.5678 70.0447 43.3547 70.245C43.1459 70.4453 42.8945 70.5455 42.6005 70.5455ZM46.7134 76.0938V82H45.2049V72.1818H46.6623V73.7159H46.7901C47.0202 73.2173 47.3697 72.8168 47.8384 72.5142C48.3072 72.2074 48.9123 72.054 49.6538 72.054C50.3185 72.054 50.9002 72.1903 51.3988 72.4631C51.8974 72.7315 52.2852 73.1406 52.5621 73.6903C52.8391 74.2358 52.9776 74.9261 52.9776 75.7614V82H51.4691V75.8636C51.4691 75.0923 51.2688 74.4915 50.8683 74.0611C50.4677 73.6264 49.918 73.4091 49.2191 73.4091C48.7376 73.4091 48.3072 73.5135 47.9279 73.7223C47.5529 73.9311 47.2567 74.2358 47.0394 74.6364C46.8221 75.0369 46.7134 75.5227 46.7134 76.0938ZM58.7973 85.8864C58.0686 85.8864 57.4422 85.7926 56.918 85.6051C56.3939 85.4219 55.9571 85.179 55.6076 84.8764C55.2625 84.5781 54.9876 84.2585 54.7831 83.9176L55.9848 83.0739C56.1211 83.2528 56.2937 83.4574 56.5025 83.6875C56.7113 83.9219 56.9968 84.1243 57.3591 84.2947C57.7255 84.4695 58.2049 84.5568 58.7973 84.5568C59.5899 84.5568 60.244 84.3651 60.7596 83.9815C61.2752 83.598 61.5331 82.9972 61.5331 82.179V80.1847H61.4052C61.2944 80.3636 61.1368 80.5852 60.9322 80.8494C60.7319 81.1094 60.4422 81.3416 60.0629 81.5462C59.6879 81.7464 59.1808 81.8466 58.5416 81.8466C57.749 81.8466 57.0373 81.6591 56.4066 81.2841C55.7802 80.9091 55.2838 80.3636 54.9173 79.6477C54.5551 78.9318 54.374 78.0625 54.374 77.0398C54.374 76.0341 54.5508 75.1584 54.9045 74.4126C55.2582 73.6626 55.7504 73.0831 56.3811 72.674C57.0118 72.2607 57.7404 72.054 58.5672 72.054C59.2064 72.054 59.7135 72.1605 60.0885 72.3736C60.4677 72.5824 60.7575 72.821 60.9578 73.0895C61.1623 73.3537 61.32 73.571 61.4308 73.7415H61.5842V72.1818H63.0416V82.2812C63.0416 83.125 62.8498 83.8111 62.4663 84.3395C62.087 84.8722 61.5757 85.2621 60.9322 85.5092C60.293 85.7607 59.5814 85.8864 58.7973 85.8864ZM58.7461 80.4915C59.3512 80.4915 59.8626 80.353 60.2802 80.076C60.6978 79.799 61.0153 79.4006 61.2326 78.8807C61.45 78.3608 61.5586 77.7386 61.5586 77.0142C61.5586 76.3068 61.4521 75.6825 61.239 75.1413C61.026 74.6001 60.7106 74.1761 60.293 73.8693C59.8754 73.5625 59.3598 73.4091 58.7461 73.4091C58.1069 73.4091 57.5743 73.571 57.1481 73.8949C56.7262 74.2187 56.4088 74.6534 56.1957 75.1989C55.9869 75.7443 55.8825 76.3494 55.8825 77.0142C55.8825 77.696 55.989 78.299 56.2021 78.8232C56.4194 79.343 56.739 79.7521 57.1609 80.0504C57.587 80.3445 58.1154 80.4915 58.7461 80.4915ZM72.7728 82.2045C71.9547 82.2045 71.2324 81.9979 70.6059 81.5845C69.9795 81.1669 69.4895 80.5788 69.1358 79.8203C68.7821 79.0575 68.6052 78.1562 68.6052 77.1165C68.6052 76.0852 68.7821 75.1903 69.1358 74.4318C69.4895 73.6733 69.9816 73.0874 70.6123 72.674C71.243 72.2607 71.9717 72.054 72.7984 72.054C73.4376 72.054 73.9426 72.1605 74.3133 72.3736C74.6883 72.5824 74.9738 72.821 75.1699 73.0895C75.3701 73.3537 75.5257 73.571 75.6365 73.7415H75.7643V72.1818H77.2728V82H75.8155V80.4915H75.6365C75.5257 80.6705 75.368 80.8963 75.1635 81.169C74.9589 81.4375 74.667 81.6783 74.2878 81.8913C73.9085 82.1001 73.4035 82.2045 72.7728 82.2045ZM72.9774 80.8494C73.5825 80.8494 74.0939 80.6918 74.5115 80.3764C74.9291 80.0568 75.2466 79.6158 75.4639 79.0533C75.6812 78.4865 75.7899 77.8324 75.7899 77.0909C75.7899 76.358 75.6833 75.7166 75.4703 75.1669C75.2572 74.6129 74.9419 74.1825 74.5243 73.8757C74.1066 73.5646 73.591 73.4091 72.9774 73.4091C72.3382 73.4091 71.8055 73.5732 71.3794 73.9013C70.9575 74.2251 70.64 74.6662 70.427 75.2244C70.2181 75.7784 70.1137 76.4006 70.1137 77.0909C70.1137 77.7898 70.2203 78.4247 70.4333 78.9957C70.6507 79.5625 70.9703 80.0142 71.3922 80.3509C71.8183 80.6832 72.3467 80.8494 72.9774 80.8494ZM79.3451 68.9091H80.8537V79.4432C80.8537 79.9205 80.9069 80.255 81.0135 80.4467C81.12 80.6385 81.3395 80.7301 81.6718 80.7216C81.8508 80.7131 81.9829 80.7003 82.0681 80.6832C82.1576 80.6619 82.2386 80.6406 82.311 80.6193L82.6179 81.9233C82.4858 81.9616 82.3196 81.9957 82.1193 82.0256C81.919 82.0597 81.7102 82.0767 81.4929 82.0767C80.777 82.0767 80.24 81.8807 79.8821 81.4886C79.5241 81.0966 79.3451 80.5511 79.3451 79.8523V68.9091ZM87.092 82.2045C86.2056 82.2045 85.4279 81.9936 84.7589 81.5717C84.0941 81.1499 83.5742 80.5597 83.1992 79.8011C82.8285 79.0426 82.6431 78.1562 82.6431 77.142C82.6431 76.1193 82.8285 75.2266 83.1992 74.4638C83.5742 73.701 84.0941 73.1087 84.7589 72.6868C85.4279 72.2649 86.2056 72.054 87.092 72.054C87.9783 72.054 88.7539 72.2649 89.4187 72.6868C90.0877 73.1087 90.6076 73.701 90.9783 74.4638C91.3533 75.2266 91.5408 76.1193 91.5408 77.142C91.5408 78.1562 91.3533 79.0426 90.9783 79.8011C90.6076 80.5597 90.0877 81.1499 89.4187 81.5717C88.7539 81.9936 87.9783 82.2045 87.092 82.2045ZM87.092 80.8494C87.7653 80.8494 88.3192 80.6768 88.7539 80.3317C89.1886 79.9865 89.5103 79.5327 89.7191 78.9702C89.9279 78.4077 90.0323 77.7983 90.0323 77.142C90.0323 76.4858 89.9279 75.8743 89.7191 75.3075C89.5103 74.7408 89.1886 74.2827 88.7539 73.9332C88.3192 73.5838 87.7653 73.4091 87.092 73.4091C86.4187 73.4091 85.8647 73.5838 85.43 73.9332C84.9954 74.2827 84.6737 74.7408 84.4648 75.3075C84.256 75.8743 84.1516 76.4858 84.1516 77.142C84.1516 77.7983 84.256 78.4077 84.4648 78.9702C84.6737 79.5327 84.9954 79.9865 85.43 80.3317C85.8647 80.6768 86.4187 80.8494 87.092 80.8494ZM94.4521 76.0938V82H92.9436V72.1818H94.401V73.7159H94.5288C94.7589 73.2173 95.1083 72.8168 95.5771 72.5142C96.0458 72.2074 96.651 72.054 97.3924 72.054C98.0572 72.054 98.6389 72.1903 99.1375 72.4631C99.636 72.7315 100.024 73.1406 100.301 73.6903C100.578 74.2358 100.716 74.9261 100.716 75.7614V82H99.2078V75.8636C99.2078 75.0923 99.0075 74.4915 98.6069 74.0611C98.2064 73.6264 97.6566 73.4091 96.9578 73.4091C96.4762 73.4091 96.0458 73.5135 95.6666 73.7223C95.2916 73.9311 94.9954 74.2358 94.7781 74.6364C94.5608 75.0369 94.4521 75.5227 94.4521 76.0938ZM106.536 85.8864C105.807 85.8864 105.181 85.7926 104.657 85.6051C104.133 85.4219 103.696 85.179 103.346 84.8764C103.001 84.5781 102.726 84.2585 102.522 83.9176L103.723 83.0739C103.86 83.2528 104.032 83.4574 104.241 83.6875C104.45 83.9219 104.736 84.1243 105.098 84.2947C105.464 84.4695 105.944 84.5568 106.536 84.5568C107.329 84.5568 107.983 84.3651 108.498 83.9815C109.014 83.598 109.272 82.9972 109.272 82.179V80.1847H109.144C109.033 80.3636 108.875 80.5852 108.671 80.8494C108.471 81.1094 108.181 81.3416 107.802 81.5462C107.427 81.7464 106.919 81.8466 106.28 81.8466C105.488 81.8466 104.776 81.6591 104.145 81.2841C103.519 80.9091 103.022 80.3636 102.656 79.6477C102.294 78.9318 102.113 78.0625 102.113 77.0398C102.113 76.0341 102.289 75.1584 102.643 74.4126C102.997 73.6626 103.489 73.0831 104.12 72.674C104.75 72.2607 105.479 72.054 106.306 72.054C106.945 72.054 107.452 72.1605 107.827 72.3736C108.206 72.5824 108.496 72.821 108.696 73.0895C108.901 73.3537 109.059 73.571 109.169 73.7415H109.323V72.1818H110.78V82.2812C110.78 83.125 110.588 83.8111 110.205 84.3395C109.826 84.8722 109.314 85.2621 108.671 85.5092C108.032 85.7607 107.32 85.8864 106.536 85.8864ZM106.485 80.4915C107.09 80.4915 107.601 80.353 108.019 80.076C108.437 79.799 108.754 79.4006 108.971 78.8807C109.189 78.3608 109.297 77.7386 109.297 77.0142C109.297 76.3068 109.191 75.6825 108.978 75.1413C108.765 74.6001 108.449 74.1761 108.032 73.8693C107.614 73.5625 107.098 73.4091 106.485 73.4091C105.846 73.4091 105.313 73.571 104.887 73.8949C104.465 74.2187 104.147 74.6534 103.934 75.1989C103.726 75.7443 103.621 76.3494 103.621 77.0142C103.621 77.696 103.728 78.299 103.941 78.8232C104.158 79.343 104.478 79.7521 104.9 80.0504C105.326 80.3445 105.854 80.4915 106.485 80.4915ZM123.759 74.3807L122.404 74.7642C122.318 74.5384 122.193 74.3189 122.026 74.1058C121.864 73.8885 121.643 73.7095 121.362 73.5689C121.08 73.4283 120.72 73.358 120.281 73.358C119.681 73.358 119.18 73.4964 118.779 73.7734C118.383 74.0462 118.185 74.3935 118.185 74.8153C118.185 75.1903 118.321 75.4865 118.594 75.7038C118.867 75.9212 119.293 76.1023 119.872 76.2472L121.33 76.6051C122.208 76.8182 122.862 77.1442 123.292 77.5831C123.722 78.0178 123.938 78.5781 123.938 79.2642C123.938 79.8267 123.776 80.3295 123.452 80.7727C123.132 81.2159 122.685 81.5653 122.11 81.821C121.534 82.0767 120.865 82.2045 120.102 82.2045C119.101 82.2045 118.272 81.9872 117.616 81.5526C116.96 81.1179 116.544 80.483 116.369 79.6477L117.801 79.2898C117.938 79.8182 118.195 80.2145 118.575 80.4787C118.958 80.7429 119.459 80.875 120.077 80.875C120.78 80.875 121.338 80.7259 121.752 80.4276C122.169 80.125 122.378 79.7628 122.378 79.3409C122.378 79 122.259 78.7145 122.02 78.4844C121.781 78.25 121.415 78.0753 120.921 77.9602L119.284 77.5767C118.385 77.3636 117.725 77.0334 117.303 76.5859C116.885 76.1342 116.676 75.5696 116.676 74.892C116.676 74.3381 116.832 73.848 117.143 73.4219C117.458 72.9957 117.887 72.6612 118.428 72.4183C118.973 72.1754 119.591 72.054 120.281 72.054C121.253 72.054 122.016 72.267 122.57 72.6932C123.128 73.1193 123.524 73.6818 123.759 74.3807ZM125.308 82V72.1818H126.817V82H125.308ZM126.075 70.5455C125.781 70.5455 125.528 70.4453 125.315 70.245C125.106 70.0447 125.002 69.804 125.002 69.5227C125.002 69.2415 125.106 69.0007 125.315 68.8004C125.528 68.6001 125.781 68.5 126.075 68.5C126.369 68.5 126.621 68.6001 126.83 68.8004C127.043 69.0007 127.149 69.2415 127.149 69.5227C127.149 69.804 127.043 70.0447 126.83 70.245C126.621 70.4453 126.369 70.5455 126.075 70.5455ZM132.387 82.2045C131.569 82.2045 130.847 81.9979 130.22 81.5845C129.594 81.1669 129.104 80.5788 128.75 79.8203C128.397 79.0575 128.22 78.1562 128.22 77.1165C128.22 76.0852 128.397 75.1903 128.75 74.4318C129.104 73.6733 129.596 73.0874 130.227 72.674C130.857 72.2607 131.586 72.054 132.413 72.054C133.052 72.054 133.557 72.1605 133.928 72.3736C134.303 72.5824 134.588 72.821 134.784 73.0895C134.985 73.3537 135.14 73.571 135.251 73.7415H135.379V68.9091H136.887V82H135.43V80.4915H135.251C135.14 80.6705 134.982 80.8963 134.778 81.169C134.573 81.4375 134.281 81.6783 133.902 81.8913C133.523 82.1001 133.018 82.2045 132.387 82.2045ZM132.592 80.8494C133.197 80.8494 133.708 80.6918 134.126 80.3764C134.544 80.0568 134.861 79.6158 135.078 79.0533C135.296 78.4865 135.404 77.8324 135.404 77.0909C135.404 76.358 135.298 75.7166 135.085 75.1669C134.872 74.6129 134.556 74.1825 134.139 73.8757C133.721 73.5646 133.205 73.4091 132.592 73.4091C131.953 73.4091 131.42 73.5732 130.994 73.9013C130.572 74.2251 130.254 74.6662 130.041 75.2244C129.833 75.7784 129.728 76.4006 129.728 77.0909C129.728 77.7898 129.835 78.4247 130.048 78.9957C130.265 79.5625 130.585 80.0142 131.007 80.3509C131.433 80.6832 131.961 80.8494 132.592 80.8494ZM143.076 82.2045C142.13 82.2045 141.314 81.9957 140.628 81.5781C139.946 81.1562 139.42 80.5682 139.049 79.8139C138.683 79.0554 138.499 78.1733 138.499 77.1676C138.499 76.1619 138.683 75.2756 139.049 74.5085C139.42 73.7372 139.935 73.1364 140.596 72.706C141.261 72.2713 142.036 72.054 142.923 72.054C143.434 72.054 143.939 72.1392 144.438 72.3097C144.936 72.4801 145.39 72.7571 145.799 73.1406C146.208 73.5199 146.534 74.0227 146.777 74.6491C147.02 75.2756 147.141 76.0469 147.141 76.9631V77.6023H139.573V76.2983H145.607C145.607 75.7443 145.497 75.25 145.275 74.8153C145.058 74.3807 144.747 74.0376 144.342 73.7862C143.941 73.5348 143.468 73.4091 142.923 73.4091C142.322 73.4091 141.802 73.5582 141.363 73.8565C140.928 74.1506 140.594 74.5341 140.359 75.0071C140.125 75.4801 140.008 75.9872 140.008 76.5284V77.3977C140.008 78.1392 140.136 78.7678 140.391 79.2834C140.651 79.7947 141.011 80.1847 141.472 80.4531C141.932 80.7173 142.467 80.8494 143.076 80.8494C143.472 80.8494 143.83 80.794 144.15 80.6832C144.474 80.5682 144.753 80.3977 144.987 80.1719C145.222 79.9418 145.403 79.6562 145.531 79.3153L146.988 79.7244C146.835 80.2188 146.577 80.6534 146.215 81.0284C145.852 81.3991 145.405 81.6889 144.872 81.8977C144.34 82.1023 143.741 82.2045 143.076 82.2045ZM154.923 82L151.932 72.1818H153.517L155.639 79.6989H155.741L157.838 72.1818H159.449L161.52 79.6733H161.622L163.744 72.1818H165.329L162.338 82H160.855L158.707 74.4574H158.554L156.406 82H154.923ZM166.424 82V72.1818H167.932V82H166.424ZM167.191 70.5455C166.897 70.5455 166.643 70.4453 166.43 70.245C166.221 70.0447 166.117 69.804 166.117 69.5227C166.117 69.2415 166.221 69.0007 166.43 68.8004C166.643 68.6001 166.897 68.5 167.191 68.5C167.485 68.5 167.736 68.6001 167.945 68.8004C168.158 69.0007 168.265 69.2415 168.265 69.5227C168.265 69.804 168.158 70.0447 167.945 70.245C167.736 70.4453 167.485 70.5455 167.191 70.5455ZM174.065 72.1818V73.4602H168.977V72.1818H174.065ZM170.46 69.8295H171.968V79.1875C171.968 79.6136 172.03 79.9332 172.154 80.1463C172.282 80.3551 172.444 80.4957 172.64 80.5682C172.84 80.6364 173.051 80.6705 173.272 80.6705C173.439 80.6705 173.575 80.6619 173.682 80.6449C173.788 80.6236 173.873 80.6065 173.937 80.5938L174.244 81.9489C174.142 81.9872 173.999 82.0256 173.816 82.0639C173.632 82.1065 173.4 82.1278 173.119 82.1278C172.693 82.1278 172.275 82.0362 171.866 81.853C171.461 81.6697 171.125 81.3906 170.856 81.0156C170.592 80.6406 170.46 80.1676 170.46 79.5966V69.8295ZM177.154 76.0938V82H175.645V68.9091H177.154V73.7159H177.281C177.512 73.2088 177.857 72.8061 178.317 72.5078C178.781 72.2053 179.399 72.054 180.171 72.054C180.84 72.054 181.426 72.1882 181.929 72.4567C182.431 72.7209 182.821 73.1278 183.098 73.6776C183.38 74.223 183.52 74.9176 183.52 75.7614V82H182.012V75.8636C182.012 75.0838 181.809 74.4808 181.404 74.0547C181.004 73.6243 180.448 73.4091 179.736 73.4091C179.242 73.4091 178.799 73.5135 178.406 73.7223C178.019 73.9311 177.712 74.2358 177.486 74.6364C177.264 75.0369 177.154 75.5227 177.154 76.0938ZM193.812 72.1818V73.4602H188.724V72.1818H193.812ZM190.207 69.8295H191.716V79.1875C191.716 79.6136 191.777 79.9332 191.901 80.1463C192.029 80.3551 192.191 80.4957 192.387 80.5682C192.587 80.6364 192.798 80.6705 193.02 80.6705C193.186 80.6705 193.322 80.6619 193.429 80.6449C193.535 80.6236 193.621 80.6065 193.684 80.5938L193.991 81.9489C193.889 81.9872 193.746 82.0256 193.563 82.0639C193.38 82.1065 193.148 82.1278 192.866 82.1278C192.44 82.1278 192.023 82.0362 191.613 81.853C191.209 81.6697 190.872 81.3906 190.603 81.0156C190.339 80.6406 190.207 80.1676 190.207 79.5966V69.8295ZM196.901 76.0938V82H195.392V68.9091H196.901V73.7159H197.029C197.259 73.2088 197.604 72.8061 198.064 72.5078C198.529 72.2053 199.147 72.054 199.918 72.054C200.587 72.054 201.173 72.1882 201.676 72.4567C202.179 72.7209 202.569 73.1278 202.846 73.6776C203.127 74.223 203.267 74.9176 203.267 75.7614V82H201.759V75.8636C201.759 75.0838 201.556 74.4808 201.152 74.0547C200.751 73.6243 200.195 73.4091 199.483 73.4091C198.989 73.4091 198.546 73.5135 198.154 73.7223C197.766 73.9311 197.459 74.2358 197.233 74.6364C197.012 75.0369 196.901 75.5227 196.901 76.0938ZM209.244 82.2045C208.298 82.2045 207.482 81.9957 206.795 81.5781C206.114 81.1562 205.587 80.5682 205.217 79.8139C204.85 79.0554 204.667 78.1733 204.667 77.1676C204.667 76.1619 204.85 75.2756 205.217 74.5085C205.587 73.7372 206.103 73.1364 206.764 72.706C207.428 72.2713 208.204 72.054 209.09 72.054C209.602 72.054 210.107 72.1392 210.605 72.3097C211.104 72.4801 211.558 72.7571 211.967 73.1406C212.376 73.5199 212.702 74.0227 212.945 74.6491C213.188 75.2756 213.309 76.0469 213.309 76.9631V77.6023H205.741V76.2983H211.775C211.775 75.7443 211.664 75.25 211.443 74.8153C211.225 74.3807 210.914 74.0376 210.509 73.7862C210.109 73.5348 209.636 73.4091 209.09 73.4091C208.489 73.4091 207.97 73.5582 207.531 73.8565C207.096 74.1506 206.761 74.5341 206.527 75.0071C206.293 75.4801 206.175 75.9872 206.175 76.5284V77.3977C206.175 78.1392 206.303 78.7678 206.559 79.2834C206.819 79.7947 207.179 80.1847 207.639 80.4531C208.099 80.7173 208.634 80.8494 209.244 80.8494C209.64 80.8494 209.998 80.794 210.318 80.6832C210.641 80.5682 210.92 80.3977 211.155 80.1719C211.389 79.9418 211.57 79.6562 211.698 79.3153L213.156 79.7244C213.002 80.2188 212.744 80.6534 212.382 81.0284C212.02 81.3991 211.572 81.6889 211.04 81.8977C210.507 82.1023 209.908 82.2045 209.244 82.2045ZM219.071 82V68.9091H220.579V73.7415H220.707C220.818 73.571 220.971 73.3537 221.167 73.0895C221.368 72.821 221.653 72.5824 222.024 72.3736C222.399 72.1605 222.906 72.054 223.545 72.054C224.372 72.054 225.101 72.2607 225.731 72.674C226.362 73.0874 226.854 73.6733 227.208 74.4318C227.562 75.1903 227.738 76.0852 227.738 77.1165C227.738 78.1562 227.562 79.0575 227.208 79.8203C226.854 80.5788 226.364 81.1669 225.738 81.5845C225.111 81.9979 224.389 82.2045 223.571 82.2045C222.94 82.2045 222.435 82.1001 222.056 81.8913C221.677 81.6783 221.385 81.4375 221.18 81.169C220.976 80.8963 220.818 80.6705 220.707 80.4915H220.528V82H219.071ZM220.554 77.0909C220.554 77.8324 220.662 78.4865 220.88 79.0533C221.097 79.6158 221.415 80.0568 221.832 80.3764C222.25 80.6918 222.761 80.8494 223.366 80.8494C223.997 80.8494 224.523 80.6832 224.945 80.3509C225.371 80.0142 225.691 79.5625 225.904 78.9957C226.121 78.4247 226.23 77.7898 226.23 77.0909C226.23 76.4006 226.123 75.7784 225.91 75.2244C225.701 74.6662 225.384 74.2251 224.958 73.9013C224.536 73.5732 224.005 73.4091 223.366 73.4091C222.753 73.4091 222.237 73.5646 221.819 73.8757C221.402 74.1825 221.086 74.6129 220.873 75.1669C220.66 75.7166 220.554 76.358 220.554 77.0909ZM233.262 82.2045C232.316 82.2045 231.5 81.9957 230.814 81.5781C230.132 81.1562 229.606 80.5682 229.235 79.8139C228.869 79.0554 228.686 78.1733 228.686 77.1676C228.686 76.1619 228.869 75.2756 229.235 74.5085C229.606 73.7372 230.122 73.1364 230.782 72.706C231.447 72.2713 232.223 72.054 233.109 72.054C233.62 72.054 234.125 72.1392 234.624 72.3097C235.122 72.4801 235.576 72.7571 235.985 73.1406C236.394 73.5199 236.72 74.0227 236.963 74.6491C237.206 75.2756 237.328 76.0469 237.328 76.9631V77.6023H229.76V76.2983H235.794C235.794 75.7443 235.683 75.25 235.461 74.8153C235.244 74.3807 234.933 74.0376 234.528 73.7862C234.127 73.5348 233.654 73.4091 233.109 73.4091C232.508 73.4091 231.988 73.5582 231.549 73.8565C231.115 74.1506 230.78 74.5341 230.546 75.0071C230.311 75.4801 230.194 75.9872 230.194 76.5284V77.3977C230.194 78.1392 230.322 78.7678 230.578 79.2834C230.838 79.7947 231.198 80.1847 231.658 80.4531C232.118 80.7173 232.653 80.8494 233.262 80.8494C233.659 80.8494 234.017 80.794 234.336 80.6832C234.66 80.5682 234.939 80.3977 235.174 80.1719C235.408 79.9418 235.589 79.6562 235.717 79.3153L237.174 79.7244C237.021 80.2188 236.763 80.6534 236.401 81.0284C236.039 81.3991 235.591 81.6889 235.059 81.8977C234.526 82.1023 233.927 82.2045 233.262 82.2045ZM245.677 74.3807L244.322 74.7642C244.237 74.5384 244.111 74.3189 243.945 74.1058C243.783 73.8885 243.561 73.7095 243.28 73.5689C242.999 73.4283 242.639 73.358 242.2 73.358C241.599 73.358 241.098 73.4964 240.698 73.7734C240.301 74.0462 240.103 74.3935 240.103 74.8153C240.103 75.1903 240.24 75.4865 240.512 75.7038C240.785 75.9212 241.211 76.1023 241.791 76.2472L243.248 76.6051C244.126 76.8182 244.78 77.1442 245.21 77.5831C245.641 78.0178 245.856 78.5781 245.856 79.2642C245.856 79.8267 245.694 80.3295 245.37 80.7727C245.051 81.2159 244.603 81.5653 244.028 81.821C243.453 82.0767 242.784 82.2045 242.021 82.2045C241.019 82.2045 240.191 81.9872 239.534 81.5526C238.878 81.1179 238.463 80.483 238.288 79.6477L239.72 79.2898C239.856 79.8182 240.114 80.2145 240.493 80.4787C240.877 80.7429 241.377 80.875 241.995 80.875C242.698 80.875 243.257 80.7259 243.67 80.4276C244.088 80.125 244.296 79.7628 244.296 79.3409C244.296 79 244.177 78.7145 243.938 78.4844C243.7 78.25 243.333 78.0753 242.839 77.9602L241.203 77.5767C240.303 77.3636 239.643 77.0334 239.221 76.5859C238.803 76.1342 238.595 75.5696 238.595 74.892C238.595 74.3381 238.75 73.848 239.061 73.4219C239.377 72.9957 239.805 72.6612 240.346 72.4183C240.892 72.1754 241.509 72.054 242.2 72.054C243.171 72.054 243.934 72.267 244.488 72.6932C245.046 73.1193 245.443 73.6818 245.677 74.3807ZM251.497 72.1818V73.4602H246.409V72.1818H251.497ZM247.892 69.8295H249.4V79.1875C249.4 79.6136 249.462 79.9332 249.585 80.1463C249.713 80.3551 249.875 80.4957 250.071 80.5682C250.272 80.6364 250.482 80.6705 250.704 80.6705C250.87 80.6705 251.007 80.6619 251.113 80.6449C251.22 80.6236 251.305 80.6065 251.369 80.5938L251.676 81.9489C251.573 81.9872 251.431 82.0256 251.247 82.0639C251.064 82.1065 250.832 82.1278 250.551 82.1278C250.125 82.1278 249.707 82.0362 249.298 81.853C248.893 81.6697 248.556 81.3906 248.288 81.0156C248.024 80.6406 247.892 80.1676 247.892 79.5966V69.8295ZM263.983 74.3807L262.628 74.7642C262.543 74.5384 262.417 74.3189 262.251 74.1058C262.089 73.8885 261.867 73.7095 261.586 73.5689C261.305 73.4283 260.945 73.358 260.506 73.358C259.905 73.358 259.404 73.4964 259.003 73.7734C258.607 74.0462 258.409 74.3935 258.409 74.8153C258.409 75.1903 258.545 75.4865 258.818 75.7038C259.091 75.9212 259.517 76.1023 260.097 76.2472L261.554 76.6051C262.432 76.8182 263.086 77.1442 263.516 77.5831C263.947 78.0178 264.162 78.5781 264.162 79.2642C264.162 79.8267 264 80.3295 263.676 80.7727C263.356 81.2159 262.909 81.5653 262.334 81.821C261.758 82.0767 261.089 82.2045 260.327 82.2045C259.325 82.2045 258.496 81.9872 257.84 81.5526C257.184 81.1179 256.768 80.483 256.594 79.6477L258.026 79.2898C258.162 79.8182 258.42 80.2145 258.799 80.4787C259.182 80.7429 259.683 80.875 260.301 80.875C261.004 80.875 261.562 80.7259 261.976 80.4276C262.393 80.125 262.602 79.7628 262.602 79.3409C262.602 79 262.483 78.7145 262.244 78.4844C262.006 78.25 261.639 78.0753 261.145 77.9602L259.508 77.5767C258.609 77.3636 257.949 77.0334 257.527 76.5859C257.109 76.1342 256.901 75.5696 256.901 74.892C256.901 74.3381 257.056 73.848 257.367 73.4219C257.682 72.9957 258.111 72.6612 258.652 72.4183C259.197 72.1754 259.815 72.054 260.506 72.054C261.477 72.054 262.24 72.267 262.794 72.6932C263.352 73.1193 263.749 73.6818 263.983 74.3807ZM267.041 76.0938V82H265.533V68.9091H267.041V73.7159H267.169C267.399 73.2088 267.744 72.8061 268.205 72.5078C268.669 72.2053 269.287 72.054 270.058 72.054C270.727 72.054 271.313 72.1882 271.816 72.4567C272.319 72.7209 272.709 73.1278 272.986 73.6776C273.267 74.223 273.408 74.9176 273.408 75.7614V82H271.899V75.8636C271.899 75.0838 271.697 74.4808 271.292 74.0547C270.891 73.6243 270.335 73.4091 269.624 73.4091C269.129 73.4091 268.686 73.5135 268.294 73.7223C267.906 73.9311 267.599 74.2358 267.374 74.6364C267.152 75.0369 267.041 75.5227 267.041 76.0938ZM275.267 82V72.1818H276.776V82H275.267ZM276.034 70.5455C275.74 70.5455 275.487 70.4453 275.274 70.245C275.065 70.0447 274.961 69.804 274.961 69.5227C274.961 69.2415 275.065 69.0007 275.274 68.8004C275.487 68.6001 275.74 68.5 276.034 68.5C276.328 68.5 276.58 68.6001 276.789 68.8004C277.002 69.0007 277.108 69.2415 277.108 69.5227C277.108 69.804 277.002 70.0447 276.789 70.245C276.58 70.4453 276.328 70.5455 276.034 70.5455ZM278.639 85.6818V72.1818H280.096V73.7415H280.275C280.386 73.571 280.539 73.3537 280.735 73.0895C280.936 72.821 281.221 72.5824 281.592 72.3736C281.967 72.1605 282.474 72.054 283.113 72.054C283.94 72.054 284.669 72.2607 285.299 72.674C285.93 73.0874 286.422 73.6733 286.776 74.4318C287.13 75.1903 287.307 76.0852 287.307 77.1165C287.307 78.1562 287.13 79.0575 286.776 79.8203C286.422 80.5788 285.932 81.1669 285.306 81.5845C284.679 81.9979 283.957 82.2045 283.139 82.2045C282.508 82.2045 282.003 82.1001 281.624 81.8913C281.245 81.6783 280.953 81.4375 280.748 81.169C280.544 80.8963 280.386 80.6705 280.275 80.4915H280.147V85.6818H278.639ZM280.122 77.0909C280.122 77.8324 280.231 78.4865 280.448 79.0533C280.665 79.6158 280.983 80.0568 281.4 80.3764C281.818 80.6918 282.329 80.8494 282.934 80.8494C283.565 80.8494 284.091 80.6832 284.513 80.3509C284.939 80.0142 285.259 79.5625 285.472 78.9957C285.689 78.4247 285.798 77.7898 285.798 77.0909C285.798 76.4006 285.691 75.7784 285.478 75.2244C285.27 74.6662 284.952 74.2251 284.526 73.9013C284.104 73.5732 283.574 73.4091 282.934 73.4091C282.321 73.4091 281.805 73.5646 281.387 73.8757C280.97 74.1825 280.655 74.6129 280.441 75.1669C280.228 75.7166 280.122 76.358 280.122 77.0909ZM288.708 85.6818V72.1818H290.165V73.7415H290.344C290.455 73.571 290.608 73.3537 290.804 73.0895C291.005 72.821 291.29 72.5824 291.661 72.3736C292.036 72.1605 292.543 72.054 293.182 72.054C294.009 72.054 294.737 72.2607 295.368 72.674C295.999 73.0874 296.491 73.6733 296.845 74.4318C297.198 75.1903 297.375 76.0852 297.375 77.1165C297.375 78.1562 297.198 79.0575 296.845 79.8203C296.491 80.5788 296.001 81.1669 295.375 81.5845C294.748 81.9979 294.026 82.2045 293.208 82.2045C292.577 82.2045 292.072 82.1001 291.693 81.8913C291.313 81.6783 291.022 81.4375 290.817 81.169C290.612 80.8963 290.455 80.6705 290.344 80.4915H290.216V85.6818H288.708ZM290.191 77.0909C290.191 77.8324 290.299 78.4865 290.517 79.0533C290.734 79.6158 291.051 80.0568 291.469 80.3764C291.887 80.6918 292.398 80.8494 293.003 80.8494C293.634 80.8494 294.16 80.6832 294.582 80.3509C295.008 80.0142 295.328 79.5625 295.541 78.9957C295.758 78.4247 295.867 77.7898 295.867 77.0909C295.867 76.4006 295.76 75.7784 295.547 75.2244C295.338 74.6662 295.021 74.2251 294.595 73.9013C294.173 73.5732 293.642 73.4091 293.003 73.4091C292.389 73.4091 291.874 73.5646 291.456 73.8757C291.039 74.1825 290.723 74.6129 290.51 75.1669C290.297 75.7166 290.191 76.358 290.191 77.0909ZM298.776 82V72.1818H300.285V82H298.776ZM299.543 70.5455C299.249 70.5455 298.996 70.4453 298.783 70.245C298.574 70.0447 298.47 69.804 298.47 69.5227C298.47 69.2415 298.574 69.0007 298.783 68.8004C298.996 68.6001 299.249 68.5 299.543 68.5C299.837 68.5 300.089 68.6001 300.298 68.8004C300.511 69.0007 300.617 69.2415 300.617 69.5227C300.617 69.804 300.511 70.0447 300.298 70.245C300.089 70.4453 299.837 70.5455 299.543 70.5455ZM303.656 76.0938V82H302.148V72.1818H303.605V73.7159H303.733C303.963 73.2173 304.313 72.8168 304.781 72.5142C305.25 72.2074 305.855 72.054 306.597 72.054C307.261 72.054 307.843 72.1903 308.342 72.4631C308.84 72.7315 309.228 73.1406 309.505 73.6903C309.782 74.2358 309.921 74.9261 309.921 75.7614V82H308.412V75.8636C308.412 75.0923 308.212 74.4915 307.811 74.0611C307.411 73.6264 306.861 73.4091 306.162 73.4091C305.681 73.4091 305.25 73.5135 304.871 73.7223C304.496 73.9311 304.2 74.2358 303.982 74.6364C303.765 75.0369 303.656 75.5227 303.656 76.0938ZM315.74 85.8864C315.012 85.8864 314.385 85.7926 313.861 85.6051C313.337 85.4219 312.9 85.179 312.551 84.8764C312.205 84.5781 311.931 84.2585 311.726 83.9176L312.928 83.0739C313.064 83.2528 313.237 83.4574 313.445 83.6875C313.654 83.9219 313.94 84.1243 314.302 84.2947C314.669 84.4695 315.148 84.5568 315.74 84.5568C316.533 84.5568 317.187 84.3651 317.703 83.9815C318.218 83.598 318.476 82.9972 318.476 82.179V80.1847H318.348C318.237 80.3636 318.08 80.5852 317.875 80.8494C317.675 81.1094 317.385 81.3416 317.006 81.5462C316.631 81.7464 316.124 81.8466 315.485 81.8466C314.692 81.8466 313.98 81.6591 313.35 81.2841C312.723 80.9091 312.227 80.3636 311.86 79.6477C311.498 78.9318 311.317 78.0625 311.317 77.0398C311.317 76.0341 311.494 75.1584 311.847 74.4126C312.201 73.6626 312.693 73.0831 313.324 72.674C313.955 72.2607 314.683 72.054 315.51 72.054C316.149 72.054 316.656 72.1605 317.031 72.3736C317.411 72.5824 317.7 72.821 317.901 73.0895C318.105 73.3537 318.263 73.571 318.374 73.7415H318.527V72.1818H319.985V82.2812C319.985 83.125 319.793 83.8111 319.409 84.3395C319.03 84.8722 318.519 85.2621 317.875 85.5092C317.236 85.7607 316.524 85.8864 315.74 85.8864ZM315.689 80.4915C316.294 80.4915 316.806 80.353 317.223 80.076C317.641 79.799 317.958 79.4006 318.176 78.8807C318.393 78.3608 318.502 77.7386 318.502 77.0142C318.502 76.3068 318.395 75.6825 318.182 75.1413C317.969 74.6001 317.654 74.1761 317.236 73.8693C316.818 73.5625 316.303 73.4091 315.689 73.4091C315.05 73.4091 314.517 73.571 314.091 73.8949C313.669 74.2187 313.352 74.6534 313.139 75.1989C312.93 75.7443 312.825 76.3494 312.825 77.0142C312.825 77.696 312.932 78.299 313.145 78.8232C313.362 79.343 313.682 79.7521 314.104 80.0504C314.53 80.3445 315.058 80.4915 315.689 80.4915ZM329.997 82.2045C329.077 82.2045 328.284 81.9872 327.619 81.5526C326.954 81.1179 326.443 80.5192 326.085 79.7564C325.727 78.9936 325.548 78.1222 325.548 77.142C325.548 76.1449 325.731 75.2649 326.098 74.5021C326.469 73.7351 326.984 73.1364 327.645 72.706C328.31 72.2713 329.085 72.054 329.971 72.054C330.662 72.054 331.284 72.1818 331.838 72.4375C332.392 72.6932 332.846 73.0511 333.199 73.5114C333.553 73.9716 333.773 74.5085 333.858 75.1222H332.349C332.234 74.6747 331.979 74.2784 331.582 73.9332C331.19 73.5838 330.662 73.4091 329.997 73.4091C329.409 73.4091 328.893 73.5625 328.45 73.8693C328.011 74.1719 327.668 74.6001 327.421 75.1541C327.178 75.7038 327.057 76.3494 327.057 77.0909C327.057 77.8494 327.176 78.5099 327.415 79.0724C327.658 79.6349 327.998 80.0717 328.437 80.3828C328.881 80.6939 329.4 80.8494 329.997 80.8494C330.389 80.8494 330.745 80.7812 331.065 80.6449C331.384 80.5085 331.655 80.3125 331.876 80.0568C332.098 79.8011 332.256 79.4943 332.349 79.1364H333.858C333.773 79.7159 333.562 80.2379 333.225 80.7024C332.893 81.1626 332.452 81.5291 331.902 81.8018C331.356 82.0703 330.721 82.2045 329.997 82.2045ZM339.152 82.2045C338.265 82.2045 337.488 81.9936 336.819 81.5717C336.154 81.1499 335.634 80.5597 335.259 79.8011C334.888 79.0426 334.703 78.1562 334.703 77.142C334.703 76.1193 334.888 75.2266 335.259 74.4638C335.634 73.701 336.154 73.1087 336.819 72.6868C337.488 72.2649 338.265 72.054 339.152 72.054C340.038 72.054 340.814 72.2649 341.478 72.6868C342.147 73.1087 342.667 73.701 343.038 74.4638C343.413 75.2266 343.601 76.1193 343.601 77.142C343.601 78.1562 343.413 79.0426 343.038 79.8011C342.667 80.5597 342.147 81.1499 341.478 81.5717C340.814 81.9936 340.038 82.2045 339.152 82.2045ZM339.152 80.8494C339.825 80.8494 340.379 80.6768 340.814 80.3317C341.248 79.9865 341.57 79.5327 341.779 78.9702C341.988 78.4077 342.092 77.7983 342.092 77.142C342.092 76.4858 341.988 75.8743 341.779 75.3075C341.57 74.7408 341.248 74.2827 340.814 73.9332C340.379 73.5838 339.825 73.4091 339.152 73.4091C338.478 73.4091 337.924 73.5838 337.49 73.9332C337.055 74.2827 336.733 74.7408 336.525 75.3075C336.316 75.8743 336.211 76.4858 336.211 77.142C336.211 77.7983 336.316 78.4077 336.525 78.9702C336.733 79.5327 337.055 79.9865 337.49 80.3317C337.924 80.6768 338.478 80.8494 339.152 80.8494ZM351.191 77.9858V72.1818H352.699V82H351.191V80.3381H351.089C350.858 80.8366 350.5 81.2607 350.015 81.6101C349.529 81.9553 348.915 82.1278 348.174 82.1278C347.56 82.1278 347.015 81.9936 346.537 81.7251C346.06 81.4524 345.685 81.0433 345.412 80.4979C345.14 79.9482 345.003 79.2557 345.003 78.4205V72.1818H346.512V78.3182C346.512 79.0341 346.712 79.6051 347.113 80.0312C347.518 80.4574 348.033 80.6705 348.66 80.6705C349.035 80.6705 349.416 80.5746 349.804 80.3828C350.196 80.1911 350.524 79.897 350.788 79.5007C351.057 79.1044 351.191 78.5994 351.191 77.9858ZM354.562 82V72.1818H356.02V73.6648H356.122C356.297 73.179 356.618 72.7848 357.087 72.4822C357.556 72.1797 358.086 72.0284 358.679 72.0284C358.952 72.0284 359.19 72.0604 359.395 72.1243C359.599 72.1882 359.778 72.2756 359.932 72.3864L359.42 73.6648C359.314 73.6094 359.188 73.5668 359.043 73.5369C358.903 73.5028 358.738 73.4858 358.551 73.4858C358.074 73.4858 357.648 73.5859 357.273 73.7862C356.902 73.9865 356.608 74.2592 356.39 74.6044C356.177 74.9496 356.071 75.3437 356.071 75.7869V82H354.562ZM360.571 82V72.1818H362.028V73.6648H362.13C362.305 73.179 362.627 72.7848 363.095 72.4822C363.564 72.1797 364.095 72.0284 364.687 72.0284C364.96 72.0284 365.198 72.0604 365.403 72.1243C365.607 72.1882 365.786 72.2756 365.94 72.3864L365.428 73.6648C365.322 73.6094 365.196 73.5668 365.051 73.5369C364.911 73.5028 364.747 73.4858 364.559 73.4858C364.082 73.4858 363.656 73.5859 363.281 73.7862C362.91 73.9865 362.616 74.2592 362.399 74.6044C362.186 74.9496 362.079 75.3437 362.079 75.7869V82H360.571ZM366.579 82V72.1818H368.087V82H366.579ZM367.346 70.5455C367.052 70.5455 366.798 70.4453 366.585 70.245C366.376 70.0447 366.272 69.804 366.272 69.5227C366.272 69.2415 366.376 69.0007 366.585 68.8004C366.798 68.6001 367.052 68.5 367.346 68.5C367.64 68.5 367.891 68.6001 368.1 68.8004C368.313 69.0007 368.42 69.2415 368.42 69.5227C368.42 69.804 368.313 70.0447 368.1 70.245C367.891 70.4453 367.64 70.5455 367.346 70.5455ZM374.067 82.2045C373.121 82.2045 372.305 81.9957 371.619 81.5781C370.937 81.1562 370.41 80.5682 370.04 79.8139C369.673 79.0554 369.49 78.1733 369.49 77.1676C369.49 76.1619 369.673 75.2756 370.04 74.5085C370.41 73.7372 370.926 73.1364 371.587 72.706C372.251 72.2713 373.027 72.054 373.913 72.054C374.425 72.054 374.93 72.1392 375.428 72.3097C375.927 72.4801 376.381 72.7571 376.79 73.1406C377.199 73.5199 377.525 74.0227 377.768 74.6491C378.011 75.2756 378.132 76.0469 378.132 76.9631V77.6023H370.564V76.2983H376.598C376.598 75.7443 376.487 75.25 376.266 74.8153C376.048 74.3807 375.737 74.0376 375.332 73.7862C374.932 73.5348 374.459 73.4091 373.913 73.4091C373.312 73.4091 372.793 73.5582 372.354 73.8565C371.919 74.1506 371.584 74.5341 371.35 75.0071C371.116 75.4801 370.998 75.9872 370.998 76.5284V77.3977C370.998 78.1392 371.126 78.7678 371.382 79.2834C371.642 79.7947 372.002 80.1847 372.462 80.4531C372.923 80.7173 373.457 80.8494 374.067 80.8494C374.463 80.8494 374.821 80.794 375.141 80.6832C375.464 80.5682 375.744 80.3977 375.978 80.1719C376.212 79.9418 376.393 79.6562 376.521 79.3153L377.979 79.7244C377.825 80.2188 377.567 80.6534 377.205 81.0284C376.843 81.3991 376.396 81.6889 375.863 81.8977C375.33 82.1023 374.731 82.2045 374.067 82.2045ZM379.527 82V72.1818H380.984V73.6648H381.086C381.261 73.179 381.583 72.7848 382.052 72.4822C382.52 72.1797 383.051 72.0284 383.643 72.0284C383.916 72.0284 384.155 72.0604 384.359 72.1243C384.564 72.1882 384.743 72.2756 384.896 72.3864L384.385 73.6648C384.278 73.6094 384.152 73.5668 384.008 73.5369C383.867 73.5028 383.703 73.4858 383.515 73.4858C383.038 73.4858 382.612 73.5859 382.237 73.7862C381.866 73.9865 381.572 74.2592 381.355 74.6044C381.142 74.9496 381.035 75.3437 381.035 75.7869V82H379.527ZM392.49 74.3807L391.134 74.7642C391.049 74.5384 390.923 74.3189 390.757 74.1058C390.595 73.8885 390.374 73.7095 390.093 73.5689C389.811 73.4283 389.451 73.358 389.012 73.358C388.411 73.358 387.911 73.4964 387.51 73.7734C387.114 74.0462 386.916 74.3935 386.916 74.8153C386.916 75.1903 387.052 75.4865 387.325 75.7038C387.597 75.9212 388.024 76.1023 388.603 76.2472L390.061 76.6051C390.938 76.8182 391.593 77.1442 392.023 77.5831C392.453 78.0178 392.669 78.5781 392.669 79.2642C392.669 79.8267 392.507 80.3295 392.183 80.7727C391.863 81.2159 391.416 81.5653 390.84 81.821C390.265 82.0767 389.596 82.2045 388.833 82.2045C387.832 82.2045 387.003 81.9872 386.347 81.5526C385.691 81.1179 385.275 80.483 385.1 79.6477L386.532 79.2898C386.669 79.8182 386.926 80.2145 387.306 80.4787C387.689 80.7429 388.19 80.875 388.808 80.875C389.511 80.875 390.069 80.7259 390.482 80.4276C390.9 80.125 391.109 79.7628 391.109 79.3409C391.109 79 390.99 78.7145 390.751 78.4844C390.512 78.25 390.146 78.0753 389.651 77.9602L388.015 77.5767C387.116 77.3636 386.455 77.0334 386.034 76.5859C385.616 76.1342 385.407 75.5696 385.407 74.892C385.407 74.3381 385.563 73.848 385.874 73.4219C386.189 72.9957 386.617 72.6612 387.159 72.4183C387.704 72.1754 388.322 72.054 389.012 72.054C389.984 72.054 390.747 72.267 391.301 72.6932C391.859 73.1193 392.255 73.6818 392.49 74.3807Z" fill="#C0E4FE"/>
</svg>
