<svg width="24" height="24" viewBox="0 0 24 24" fill="none" xmlns="http://www.w3.org/2000/svg">
<path opacity="0.4" d="M21.0395 7.19L11.9995 12.42L2.95947 7.19C3.35947 6.45 3.93947 5.8 4.58947 5.44L9.92947 2.48C11.0695 1.84 12.9295 1.84 14.0695 2.48L19.4095 5.44C20.0595 5.8 20.6395 6.45 21.0395 7.19Z" fill="white"/>
<path opacity="0.6" d="M11.9996 12.4199V21.9999C11.2496 21.9999 10.4996 21.8399 9.92965 21.5199L4.58965 18.5599C3.37965 17.8899 2.38965 16.2099 2.38965 14.8299V9.16994C2.38965 8.52994 2.60965 7.82994 2.95965 7.18994L11.9996 12.4199Z" fill="white"/>
<path d="M21.6095 9.16994V14.8299C21.6095 16.2099 20.6195 17.8899 19.4095 18.5599L14.0695 21.5199C13.4995 21.8399 12.7495 21.9999 11.9995 21.9999V12.4199L21.0395 7.18994C21.3895 7.82994 21.6095 8.52994 21.6095 9.16994Z" fill="white"/>
</svg>
