<svg width="28" height="27" viewBox="0 0 28 27" fill="none" xmlns="http://www.w3.org/2000/svg">
<path opacity="0.4" d="M13.092 2.75611C13.8683 2.09236 15.1395 2.09236 15.927 2.75611L17.7045 4.28611C18.042 4.57861 18.672 4.81486 19.122 4.81486H21.0345C22.227 4.81486 23.2058 5.79361 23.2058 6.98611V8.89861C23.2058 9.33736 23.442 9.97861 23.7345 10.3161L25.2645 12.0936C25.9283 12.8699 25.9283 14.1411 25.2645 14.9286L23.7345 16.7061C23.442 17.0436 23.2058 17.6736 23.2058 18.1236V20.0361C23.2058 21.2286 22.227 22.2074 21.0345 22.2074H19.122C18.6833 22.2074 18.042 22.4436 17.7045 22.7361L15.927 24.2661C15.1508 24.9299 13.8795 24.9299 13.092 24.2661L11.3145 22.7361C10.977 22.4436 10.347 22.2074 9.89703 22.2074H7.95078C6.75828 22.2074 5.77953 21.2286 5.77953 20.0361V18.1124C5.77953 17.6736 5.54328 17.0436 5.26203 16.7061L3.74328 14.9174C3.09078 14.1411 3.09078 12.8811 3.74328 12.1049L5.26203 10.3161C5.54328 9.97861 5.77953 9.34861 5.77953 8.90986V6.97486C5.77953 5.78236 6.75828 4.80361 7.95078 4.80361H9.89703C10.3358 4.80361 10.977 4.56736 11.3145 4.27486L13.092 2.75611Z" fill="white"/>
<path d="M13.1367 17.0662C12.9117 17.0662 12.6979 16.9762 12.5404 16.8187L9.81793 14.0962C9.49168 13.7699 9.49168 13.2299 9.81793 12.9037C10.1442 12.5774 10.6842 12.5774 11.0104 12.9037L13.1367 15.0299L17.9742 10.1924C18.3004 9.86619 18.8404 9.86619 19.1667 10.1924C19.4929 10.5187 19.4929 11.0587 19.1667 11.3849L13.7329 16.8187C13.5754 16.9762 13.3617 17.0662 13.1367 17.0662Z" fill="white"/>
</svg>
