<svg width="19" height="19" viewBox="0 0 19 19" fill="none" xmlns="http://www.w3.org/2000/svg">
<path d="M14.1855 11.3365C13.9804 11.5352 13.8862 11.8226 13.9329 12.1044L14.6367 15.9994C14.6961 16.3295 14.5567 16.6636 14.2805 16.8544C14.0097 17.0523 13.6495 17.0761 13.3542 16.9178L9.84791 15.089C9.72599 15.0241 9.59062 14.9893 9.45208 14.9853H9.23753C9.16312 14.9964 9.09028 15.0201 9.02379 15.0565L5.5167 16.894C5.34333 16.9811 5.14699 17.012 4.95462 16.9811C4.48595 16.8924 4.17324 16.4459 4.25003 15.9749L4.95462 12.0799C5.00133 11.7957 4.90712 11.5067 4.70208 11.3048L1.84337 8.534C1.60428 8.30205 1.52116 7.95371 1.63041 7.63942C1.73649 7.32592 2.00724 7.09713 2.3342 7.04567L6.26878 6.47488C6.56803 6.444 6.83087 6.26192 6.96545 5.99275L8.6992 2.43817C8.74037 2.359 8.79341 2.28617 8.85753 2.22442L8.92878 2.169C8.96599 2.12784 9.00874 2.0938 9.05624 2.06609L9.14253 2.03442L9.27712 1.979H9.61041C9.90808 2.00988 10.1701 2.188 10.3071 2.454L12.0638 5.99275C12.1905 6.25163 12.4367 6.43134 12.7209 6.47488L16.6555 7.04567C16.988 7.09317 17.2658 7.32275 17.3759 7.63942C17.4796 7.95688 17.3901 8.30521 17.1463 8.534L14.1855 11.3365Z" fill="white"/>
</svg>
